<?xml version="1.0" encoding="utf-8" standalone="no"?>
<!DOCTYPE svg PUBLIC "-//W3C//DTD SVG 1.1//EN"
  "http://www.w3.org/Graphics/SVG/1.1/DTD/svg11.dtd">
<svg xmlns:xlink="http://www.w3.org/1999/xlink" width="576pt" height="360pt" viewBox="0 0 576 360" xmlns="http://www.w3.org/2000/svg" version="1.1">
 <metadata>
  <rdf:RDF xmlns:dc="http://purl.org/dc/elements/1.1/" xmlns:cc="http://creativecommons.org/ns#" xmlns:rdf="http://www.w3.org/1999/02/22-rdf-syntax-ns#">
   <cc:Work>
    <dc:type rdf:resource="http://purl.org/dc/dcmitype/StillImage"/>
    <dc:date>2023-09-20T02:22:01.813293</dc:date>
    <dc:format>image/svg+xml</dc:format>
    <dc:creator>
     <cc:Agent>
      <dc:title>Matplotlib v3.8.0, https://matplotlib.org/</dc:title>
     </cc:Agent>
    </dc:creator>
   </cc:Work>
  </rdf:RDF>
 </metadata>
 <defs>
  <style type="text/css">*{stroke-linejoin: round; stroke-linecap: butt}</style>
 </defs>
 <g id="figure_1">
  <g id="patch_1">
   <path d="M 0 360 
L 576 360 
L 576 0 
L 0 0 
z
" style="fill: #ffffff"/>
  </g>
  <g id="axes_1">
   <g id="patch_2">
    <path d="M 72 320.4 
L 518.4 320.4 
L 518.4 43.2 
L 72 43.2 
z
" style="fill: #ffffff"/>
   </g>
   <g id="matplotlib.axis_1">
    <g id="xtick_1">
     <g id="line2d_1">
      <defs>
       <path id="m1d0801585f" d="M 0 0 
L 0 3.5 
" style="stroke: #000000; stroke-width: 0.8"/>
      </defs>
      <g>
       <use xlink:href="#m1d0801585f" x="92.290909" y="320.4" style="stroke: #000000; stroke-width: 0.8"/>
      </g>
     </g>
     <g id="text_1">
      <!-- 4 -->
      <g transform="translate(89.109659 334.998438) scale(0.1 -0.1)">
       <defs>
        <path id="DejaVuSans-34" d="M 2419 4116 
L 825 1625 
L 2419 1625 
L 2419 4116 
z
M 2253 4666 
L 3047 4666 
L 3047 1625 
L 3713 1625 
L 3713 1100 
L 3047 1100 
L 3047 0 
L 2419 0 
L 2419 1100 
L 313 1100 
L 313 1709 
L 2253 4666 
z
" transform="scale(0.015625)"/>
       </defs>
       <use xlink:href="#DejaVuSans-34"/>
      </g>
     </g>
    </g>
    <g id="xtick_2">
     <g id="line2d_2">
      <g>
       <use xlink:href="#m1d0801585f" x="177.726316" y="320.4" style="stroke: #000000; stroke-width: 0.8"/>
      </g>
     </g>
     <g id="text_2">
      <!-- 5 -->
      <g transform="translate(174.545066 334.998438) scale(0.1 -0.1)">
       <defs>
        <path id="DejaVuSans-35" d="M 691 4666 
L 3169 4666 
L 3169 4134 
L 1269 4134 
L 1269 2991 
Q 1406 3038 1543 3061 
Q 1681 3084 1819 3084 
Q 2600 3084 3056 2656 
Q 3513 2228 3513 1497 
Q 3513 744 3044 326 
Q 2575 -91 1722 -91 
Q 1428 -91 1123 -41 
Q 819 9 494 109 
L 494 744 
Q 775 591 1075 516 
Q 1375 441 1709 441 
Q 2250 441 2565 725 
Q 2881 1009 2881 1497 
Q 2881 1984 2565 2268 
Q 2250 2553 1709 2553 
Q 1456 2553 1204 2497 
Q 953 2441 691 2322 
L 691 4666 
z
" transform="scale(0.015625)"/>
       </defs>
       <use xlink:href="#DejaVuSans-35"/>
      </g>
     </g>
    </g>
    <g id="xtick_3">
     <g id="line2d_3">
      <g>
       <use xlink:href="#m1d0801585f" x="263.161722" y="320.4" style="stroke: #000000; stroke-width: 0.8"/>
      </g>
     </g>
     <g id="text_3">
      <!-- 6 -->
      <g transform="translate(259.980472 334.998438) scale(0.1 -0.1)">
       <defs>
        <path id="DejaVuSans-36" d="M 2113 2584 
Q 1688 2584 1439 2293 
Q 1191 2003 1191 1497 
Q 1191 994 1439 701 
Q 1688 409 2113 409 
Q 2538 409 2786 701 
Q 3034 994 3034 1497 
Q 3034 2003 2786 2293 
Q 2538 2584 2113 2584 
z
M 3366 4563 
L 3366 3988 
Q 3128 4100 2886 4159 
Q 2644 4219 2406 4219 
Q 1781 4219 1451 3797 
Q 1122 3375 1075 2522 
Q 1259 2794 1537 2939 
Q 1816 3084 2150 3084 
Q 2853 3084 3261 2657 
Q 3669 2231 3669 1497 
Q 3669 778 3244 343 
Q 2819 -91 2113 -91 
Q 1303 -91 875 529 
Q 447 1150 447 2328 
Q 447 3434 972 4092 
Q 1497 4750 2381 4750 
Q 2619 4750 2861 4703 
Q 3103 4656 3366 4563 
z
" transform="scale(0.015625)"/>
       </defs>
       <use xlink:href="#DejaVuSans-36"/>
      </g>
     </g>
    </g>
    <g id="xtick_4">
     <g id="line2d_4">
      <g>
       <use xlink:href="#m1d0801585f" x="348.597129" y="320.4" style="stroke: #000000; stroke-width: 0.8"/>
      </g>
     </g>
     <g id="text_4">
      <!-- 7 -->
      <g transform="translate(345.415879 334.998438) scale(0.1 -0.1)">
       <defs>
        <path id="DejaVuSans-37" d="M 525 4666 
L 3525 4666 
L 3525 4397 
L 1831 0 
L 1172 0 
L 2766 4134 
L 525 4134 
L 525 4666 
z
" transform="scale(0.015625)"/>
       </defs>
       <use xlink:href="#DejaVuSans-37"/>
      </g>
     </g>
    </g>
    <g id="xtick_5">
     <g id="line2d_5">
      <g>
       <use xlink:href="#m1d0801585f" x="434.032536" y="320.4" style="stroke: #000000; stroke-width: 0.8"/>
      </g>
     </g>
     <g id="text_5">
      <!-- 8 -->
      <g transform="translate(430.851286 334.998438) scale(0.1 -0.1)">
       <defs>
        <path id="DejaVuSans-38" d="M 2034 2216 
Q 1584 2216 1326 1975 
Q 1069 1734 1069 1313 
Q 1069 891 1326 650 
Q 1584 409 2034 409 
Q 2484 409 2743 651 
Q 3003 894 3003 1313 
Q 3003 1734 2745 1975 
Q 2488 2216 2034 2216 
z
M 1403 2484 
Q 997 2584 770 2862 
Q 544 3141 544 3541 
Q 544 4100 942 4425 
Q 1341 4750 2034 4750 
Q 2731 4750 3128 4425 
Q 3525 4100 3525 3541 
Q 3525 3141 3298 2862 
Q 3072 2584 2669 2484 
Q 3125 2378 3379 2068 
Q 3634 1759 3634 1313 
Q 3634 634 3220 271 
Q 2806 -91 2034 -91 
Q 1263 -91 848 271 
Q 434 634 434 1313 
Q 434 1759 690 2068 
Q 947 2378 1403 2484 
z
M 1172 3481 
Q 1172 3119 1398 2916 
Q 1625 2713 2034 2713 
Q 2441 2713 2670 2916 
Q 2900 3119 2900 3481 
Q 2900 3844 2670 4047 
Q 2441 4250 2034 4250 
Q 1625 4250 1398 4047 
Q 1172 3844 1172 3481 
z
" transform="scale(0.015625)"/>
       </defs>
       <use xlink:href="#DejaVuSans-38"/>
      </g>
     </g>
    </g>
    <g id="text_6">
     <!-- applied current -->
     <g transform="translate(257.135156 348.676562) scale(0.1 -0.1)">
      <defs>
       <path id="DejaVuSans-61" d="M 2194 1759 
Q 1497 1759 1228 1600 
Q 959 1441 959 1056 
Q 959 750 1161 570 
Q 1363 391 1709 391 
Q 2188 391 2477 730 
Q 2766 1069 2766 1631 
L 2766 1759 
L 2194 1759 
z
M 3341 1997 
L 3341 0 
L 2766 0 
L 2766 531 
Q 2569 213 2275 61 
Q 1981 -91 1556 -91 
Q 1019 -91 701 211 
Q 384 513 384 1019 
Q 384 1609 779 1909 
Q 1175 2209 1959 2209 
L 2766 2209 
L 2766 2266 
Q 2766 2663 2505 2880 
Q 2244 3097 1772 3097 
Q 1472 3097 1187 3025 
Q 903 2953 641 2809 
L 641 3341 
Q 956 3463 1253 3523 
Q 1550 3584 1831 3584 
Q 2591 3584 2966 3190 
Q 3341 2797 3341 1997 
z
" transform="scale(0.015625)"/>
       <path id="DejaVuSans-70" d="M 1159 525 
L 1159 -1331 
L 581 -1331 
L 581 3500 
L 1159 3500 
L 1159 2969 
Q 1341 3281 1617 3432 
Q 1894 3584 2278 3584 
Q 2916 3584 3314 3078 
Q 3713 2572 3713 1747 
Q 3713 922 3314 415 
Q 2916 -91 2278 -91 
Q 1894 -91 1617 61 
Q 1341 213 1159 525 
z
M 3116 1747 
Q 3116 2381 2855 2742 
Q 2594 3103 2138 3103 
Q 1681 3103 1420 2742 
Q 1159 2381 1159 1747 
Q 1159 1113 1420 752 
Q 1681 391 2138 391 
Q 2594 391 2855 752 
Q 3116 1113 3116 1747 
z
" transform="scale(0.015625)"/>
       <path id="DejaVuSans-6c" d="M 603 4863 
L 1178 4863 
L 1178 0 
L 603 0 
L 603 4863 
z
" transform="scale(0.015625)"/>
       <path id="DejaVuSans-69" d="M 603 3500 
L 1178 3500 
L 1178 0 
L 603 0 
L 603 3500 
z
M 603 4863 
L 1178 4863 
L 1178 4134 
L 603 4134 
L 603 4863 
z
" transform="scale(0.015625)"/>
       <path id="DejaVuSans-65" d="M 3597 1894 
L 3597 1613 
L 953 1613 
Q 991 1019 1311 708 
Q 1631 397 2203 397 
Q 2534 397 2845 478 
Q 3156 559 3463 722 
L 3463 178 
Q 3153 47 2828 -22 
Q 2503 -91 2169 -91 
Q 1331 -91 842 396 
Q 353 884 353 1716 
Q 353 2575 817 3079 
Q 1281 3584 2069 3584 
Q 2775 3584 3186 3129 
Q 3597 2675 3597 1894 
z
M 3022 2063 
Q 3016 2534 2758 2815 
Q 2500 3097 2075 3097 
Q 1594 3097 1305 2825 
Q 1016 2553 972 2059 
L 3022 2063 
z
" transform="scale(0.015625)"/>
       <path id="DejaVuSans-64" d="M 2906 2969 
L 2906 4863 
L 3481 4863 
L 3481 0 
L 2906 0 
L 2906 525 
Q 2725 213 2448 61 
Q 2172 -91 1784 -91 
Q 1150 -91 751 415 
Q 353 922 353 1747 
Q 353 2572 751 3078 
Q 1150 3584 1784 3584 
Q 2172 3584 2448 3432 
Q 2725 3281 2906 2969 
z
M 947 1747 
Q 947 1113 1208 752 
Q 1469 391 1925 391 
Q 2381 391 2643 752 
Q 2906 1113 2906 1747 
Q 2906 2381 2643 2742 
Q 2381 3103 1925 3103 
Q 1469 3103 1208 2742 
Q 947 2381 947 1747 
z
" transform="scale(0.015625)"/>
       <path id="DejaVuSans-20" transform="scale(0.015625)"/>
       <path id="DejaVuSans-63" d="M 3122 3366 
L 3122 2828 
Q 2878 2963 2633 3030 
Q 2388 3097 2138 3097 
Q 1578 3097 1268 2742 
Q 959 2388 959 1747 
Q 959 1106 1268 751 
Q 1578 397 2138 397 
Q 2388 397 2633 464 
Q 2878 531 3122 666 
L 3122 134 
Q 2881 22 2623 -34 
Q 2366 -91 2075 -91 
Q 1284 -91 818 406 
Q 353 903 353 1747 
Q 353 2603 823 3093 
Q 1294 3584 2113 3584 
Q 2378 3584 2631 3529 
Q 2884 3475 3122 3366 
z
" transform="scale(0.015625)"/>
       <path id="DejaVuSans-75" d="M 544 1381 
L 544 3500 
L 1119 3500 
L 1119 1403 
Q 1119 906 1312 657 
Q 1506 409 1894 409 
Q 2359 409 2629 706 
Q 2900 1003 2900 1516 
L 2900 3500 
L 3475 3500 
L 3475 0 
L 2900 0 
L 2900 538 
Q 2691 219 2414 64 
Q 2138 -91 1772 -91 
Q 1169 -91 856 284 
Q 544 659 544 1381 
z
M 1991 3584 
L 1991 3584 
z
" transform="scale(0.015625)"/>
       <path id="DejaVuSans-72" d="M 2631 2963 
Q 2534 3019 2420 3045 
Q 2306 3072 2169 3072 
Q 1681 3072 1420 2755 
Q 1159 2438 1159 1844 
L 1159 0 
L 581 0 
L 581 3500 
L 1159 3500 
L 1159 2956 
Q 1341 3275 1631 3429 
Q 1922 3584 2338 3584 
Q 2397 3584 2469 3576 
Q 2541 3569 2628 3553 
L 2631 2963 
z
" transform="scale(0.015625)"/>
       <path id="DejaVuSans-6e" d="M 3513 2113 
L 3513 0 
L 2938 0 
L 2938 2094 
Q 2938 2591 2744 2837 
Q 2550 3084 2163 3084 
Q 1697 3084 1428 2787 
Q 1159 2491 1159 1978 
L 1159 0 
L 581 0 
L 581 3500 
L 1159 3500 
L 1159 2956 
Q 1366 3272 1645 3428 
Q 1925 3584 2291 3584 
Q 2894 3584 3203 3211 
Q 3513 2838 3513 2113 
z
" transform="scale(0.015625)"/>
       <path id="DejaVuSans-74" d="M 1172 4494 
L 1172 3500 
L 2356 3500 
L 2356 3053 
L 1172 3053 
L 1172 1153 
Q 1172 725 1289 603 
Q 1406 481 1766 481 
L 2356 481 
L 2356 0 
L 1766 0 
Q 1100 0 847 248 
Q 594 497 594 1153 
L 594 3053 
L 172 3053 
L 172 3500 
L 594 3500 
L 594 4494 
L 1172 4494 
z
" transform="scale(0.015625)"/>
      </defs>
      <use xlink:href="#DejaVuSans-61"/>
      <use xlink:href="#DejaVuSans-70" x="61.279297"/>
      <use xlink:href="#DejaVuSans-70" x="124.755859"/>
      <use xlink:href="#DejaVuSans-6c" x="188.232422"/>
      <use xlink:href="#DejaVuSans-69" x="216.015625"/>
      <use xlink:href="#DejaVuSans-65" x="243.798828"/>
      <use xlink:href="#DejaVuSans-64" x="305.322266"/>
      <use xlink:href="#DejaVuSans-20" x="368.798828"/>
      <use xlink:href="#DejaVuSans-63" x="400.585938"/>
      <use xlink:href="#DejaVuSans-75" x="455.566406"/>
      <use xlink:href="#DejaVuSans-72" x="518.945312"/>
      <use xlink:href="#DejaVuSans-72" x="558.308594"/>
      <use xlink:href="#DejaVuSans-65" x="597.171875"/>
      <use xlink:href="#DejaVuSans-6e" x="658.695312"/>
      <use xlink:href="#DejaVuSans-74" x="722.074219"/>
     </g>
    </g>
   </g>
   <g id="matplotlib.axis_2">
    <g id="ytick_1">
     <g id="line2d_6">
      <defs>
       <path id="mbb34d7d82a" d="M 0 0 
L -3.5 0 
" style="stroke: #000000; stroke-width: 0.8"/>
      </defs>
      <g>
       <use xlink:href="#mbb34d7d82a" x="72" y="320.4" style="stroke: #000000; stroke-width: 0.8"/>
      </g>
     </g>
     <g id="text_7">
      <!-- 0 -->
      <g transform="translate(58.6375 324.199219) scale(0.1 -0.1)">
       <defs>
        <path id="DejaVuSans-30" d="M 2034 4250 
Q 1547 4250 1301 3770 
Q 1056 3291 1056 2328 
Q 1056 1369 1301 889 
Q 1547 409 2034 409 
Q 2525 409 2770 889 
Q 3016 1369 3016 2328 
Q 3016 3291 2770 3770 
Q 2525 4250 2034 4250 
z
M 2034 4750 
Q 2819 4750 3233 4129 
Q 3647 3509 3647 2328 
Q 3647 1150 3233 529 
Q 2819 -91 2034 -91 
Q 1250 -91 836 529 
Q 422 1150 422 2328 
Q 422 3509 836 4129 
Q 1250 4750 2034 4750 
z
" transform="scale(0.015625)"/>
       </defs>
       <use xlink:href="#DejaVuSans-30"/>
      </g>
     </g>
    </g>
    <g id="ytick_2">
     <g id="line2d_7">
      <g>
       <use xlink:href="#mbb34d7d82a" x="72" y="274.2" style="stroke: #000000; stroke-width: 0.8"/>
      </g>
     </g>
     <g id="text_8">
      <!-- 50 -->
      <g transform="translate(52.275 277.999219) scale(0.1 -0.1)">
       <use xlink:href="#DejaVuSans-35"/>
       <use xlink:href="#DejaVuSans-30" x="63.623047"/>
      </g>
     </g>
    </g>
    <g id="ytick_3">
     <g id="line2d_8">
      <g>
       <use xlink:href="#mbb34d7d82a" x="72" y="228" style="stroke: #000000; stroke-width: 0.8"/>
      </g>
     </g>
     <g id="text_9">
      <!-- 100 -->
      <g transform="translate(45.9125 231.799219) scale(0.1 -0.1)">
       <defs>
        <path id="DejaVuSans-31" d="M 794 531 
L 1825 531 
L 1825 4091 
L 703 3866 
L 703 4441 
L 1819 4666 
L 2450 4666 
L 2450 531 
L 3481 531 
L 3481 0 
L 794 0 
L 794 531 
z
" transform="scale(0.015625)"/>
       </defs>
       <use xlink:href="#DejaVuSans-31"/>
       <use xlink:href="#DejaVuSans-30" x="63.623047"/>
       <use xlink:href="#DejaVuSans-30" x="127.246094"/>
      </g>
     </g>
    </g>
    <g id="ytick_4">
     <g id="line2d_9">
      <g>
       <use xlink:href="#mbb34d7d82a" x="72" y="181.8" style="stroke: #000000; stroke-width: 0.8"/>
      </g>
     </g>
     <g id="text_10">
      <!-- 150 -->
      <g transform="translate(45.9125 185.599219) scale(0.1 -0.1)">
       <use xlink:href="#DejaVuSans-31"/>
       <use xlink:href="#DejaVuSans-35" x="63.623047"/>
       <use xlink:href="#DejaVuSans-30" x="127.246094"/>
      </g>
     </g>
    </g>
    <g id="ytick_5">
     <g id="line2d_10">
      <g>
       <use xlink:href="#mbb34d7d82a" x="72" y="135.6" style="stroke: #000000; stroke-width: 0.8"/>
      </g>
     </g>
     <g id="text_11">
      <!-- 200 -->
      <g transform="translate(45.9125 139.399219) scale(0.1 -0.1)">
       <defs>
        <path id="DejaVuSans-32" d="M 1228 531 
L 3431 531 
L 3431 0 
L 469 0 
L 469 531 
Q 828 903 1448 1529 
Q 2069 2156 2228 2338 
Q 2531 2678 2651 2914 
Q 2772 3150 2772 3378 
Q 2772 3750 2511 3984 
Q 2250 4219 1831 4219 
Q 1534 4219 1204 4116 
Q 875 4013 500 3803 
L 500 4441 
Q 881 4594 1212 4672 
Q 1544 4750 1819 4750 
Q 2544 4750 2975 4387 
Q 3406 4025 3406 3419 
Q 3406 3131 3298 2873 
Q 3191 2616 2906 2266 
Q 2828 2175 2409 1742 
Q 1991 1309 1228 531 
z
" transform="scale(0.015625)"/>
       </defs>
       <use xlink:href="#DejaVuSans-32"/>
       <use xlink:href="#DejaVuSans-30" x="63.623047"/>
       <use xlink:href="#DejaVuSans-30" x="127.246094"/>
      </g>
     </g>
    </g>
    <g id="ytick_6">
     <g id="line2d_11">
      <g>
       <use xlink:href="#mbb34d7d82a" x="72" y="89.4" style="stroke: #000000; stroke-width: 0.8"/>
      </g>
     </g>
     <g id="text_12">
      <!-- 250 -->
      <g transform="translate(45.9125 93.199219) scale(0.1 -0.1)">
       <use xlink:href="#DejaVuSans-32"/>
       <use xlink:href="#DejaVuSans-35" x="63.623047"/>
       <use xlink:href="#DejaVuSans-30" x="127.246094"/>
      </g>
     </g>
    </g>
    <g id="ytick_7">
     <g id="line2d_12">
      <g>
       <use xlink:href="#mbb34d7d82a" x="72" y="43.2" style="stroke: #000000; stroke-width: 0.8"/>
      </g>
     </g>
     <g id="text_13">
      <!-- 300 -->
      <g transform="translate(45.9125 46.999219) scale(0.1 -0.1)">
       <defs>
        <path id="DejaVuSans-33" d="M 2597 2516 
Q 3050 2419 3304 2112 
Q 3559 1806 3559 1356 
Q 3559 666 3084 287 
Q 2609 -91 1734 -91 
Q 1441 -91 1130 -33 
Q 819 25 488 141 
L 488 750 
Q 750 597 1062 519 
Q 1375 441 1716 441 
Q 2309 441 2620 675 
Q 2931 909 2931 1356 
Q 2931 1769 2642 2001 
Q 2353 2234 1838 2234 
L 1294 2234 
L 1294 2753 
L 1863 2753 
Q 2328 2753 2575 2939 
Q 2822 3125 2822 3475 
Q 2822 3834 2567 4026 
Q 2313 4219 1838 4219 
Q 1578 4219 1281 4162 
Q 984 4106 628 3988 
L 628 4550 
Q 988 4650 1302 4700 
Q 1616 4750 1894 4750 
Q 2613 4750 3031 4423 
Q 3450 4097 3450 3541 
Q 3450 3153 3228 2886 
Q 3006 2619 2597 2516 
z
" transform="scale(0.015625)"/>
       </defs>
       <use xlink:href="#DejaVuSans-33"/>
       <use xlink:href="#DejaVuSans-30" x="63.623047"/>
       <use xlink:href="#DejaVuSans-30" x="127.246094"/>
      </g>
     </g>
    </g>
    <g id="text_14">
     <!-- spiking frequency -->
     <g transform="translate(39.832812 226.260937) rotate(-90) scale(0.1 -0.1)">
      <defs>
       <path id="DejaVuSans-73" d="M 2834 3397 
L 2834 2853 
Q 2591 2978 2328 3040 
Q 2066 3103 1784 3103 
Q 1356 3103 1142 2972 
Q 928 2841 928 2578 
Q 928 2378 1081 2264 
Q 1234 2150 1697 2047 
L 1894 2003 
Q 2506 1872 2764 1633 
Q 3022 1394 3022 966 
Q 3022 478 2636 193 
Q 2250 -91 1575 -91 
Q 1294 -91 989 -36 
Q 684 19 347 128 
L 347 722 
Q 666 556 975 473 
Q 1284 391 1588 391 
Q 1994 391 2212 530 
Q 2431 669 2431 922 
Q 2431 1156 2273 1281 
Q 2116 1406 1581 1522 
L 1381 1569 
Q 847 1681 609 1914 
Q 372 2147 372 2553 
Q 372 3047 722 3315 
Q 1072 3584 1716 3584 
Q 2034 3584 2315 3537 
Q 2597 3491 2834 3397 
z
" transform="scale(0.015625)"/>
       <path id="DejaVuSans-6b" d="M 581 4863 
L 1159 4863 
L 1159 1991 
L 2875 3500 
L 3609 3500 
L 1753 1863 
L 3688 0 
L 2938 0 
L 1159 1709 
L 1159 0 
L 581 0 
L 581 4863 
z
" transform="scale(0.015625)"/>
       <path id="DejaVuSans-67" d="M 2906 1791 
Q 2906 2416 2648 2759 
Q 2391 3103 1925 3103 
Q 1463 3103 1205 2759 
Q 947 2416 947 1791 
Q 947 1169 1205 825 
Q 1463 481 1925 481 
Q 2391 481 2648 825 
Q 2906 1169 2906 1791 
z
M 3481 434 
Q 3481 -459 3084 -895 
Q 2688 -1331 1869 -1331 
Q 1566 -1331 1297 -1286 
Q 1028 -1241 775 -1147 
L 775 -588 
Q 1028 -725 1275 -790 
Q 1522 -856 1778 -856 
Q 2344 -856 2625 -561 
Q 2906 -266 2906 331 
L 2906 616 
Q 2728 306 2450 153 
Q 2172 0 1784 0 
Q 1141 0 747 490 
Q 353 981 353 1791 
Q 353 2603 747 3093 
Q 1141 3584 1784 3584 
Q 2172 3584 2450 3431 
Q 2728 3278 2906 2969 
L 2906 3500 
L 3481 3500 
L 3481 434 
z
" transform="scale(0.015625)"/>
       <path id="DejaVuSans-66" d="M 2375 4863 
L 2375 4384 
L 1825 4384 
Q 1516 4384 1395 4259 
Q 1275 4134 1275 3809 
L 1275 3500 
L 2222 3500 
L 2222 3053 
L 1275 3053 
L 1275 0 
L 697 0 
L 697 3053 
L 147 3053 
L 147 3500 
L 697 3500 
L 697 3744 
Q 697 4328 969 4595 
Q 1241 4863 1831 4863 
L 2375 4863 
z
" transform="scale(0.015625)"/>
       <path id="DejaVuSans-71" d="M 947 1747 
Q 947 1113 1208 752 
Q 1469 391 1925 391 
Q 2381 391 2643 752 
Q 2906 1113 2906 1747 
Q 2906 2381 2643 2742 
Q 2381 3103 1925 3103 
Q 1469 3103 1208 2742 
Q 947 2381 947 1747 
z
M 2906 525 
Q 2725 213 2448 61 
Q 2172 -91 1784 -91 
Q 1150 -91 751 415 
Q 353 922 353 1747 
Q 353 2572 751 3078 
Q 1150 3584 1784 3584 
Q 2172 3584 2448 3432 
Q 2725 3281 2906 2969 
L 2906 3500 
L 3481 3500 
L 3481 -1331 
L 2906 -1331 
L 2906 525 
z
" transform="scale(0.015625)"/>
       <path id="DejaVuSans-79" d="M 2059 -325 
Q 1816 -950 1584 -1140 
Q 1353 -1331 966 -1331 
L 506 -1331 
L 506 -850 
L 844 -850 
Q 1081 -850 1212 -737 
Q 1344 -625 1503 -206 
L 1606 56 
L 191 3500 
L 800 3500 
L 1894 763 
L 2988 3500 
L 3597 3500 
L 2059 -325 
z
" transform="scale(0.015625)"/>
      </defs>
      <use xlink:href="#DejaVuSans-73"/>
      <use xlink:href="#DejaVuSans-70" x="52.099609"/>
      <use xlink:href="#DejaVuSans-69" x="115.576172"/>
      <use xlink:href="#DejaVuSans-6b" x="143.359375"/>
      <use xlink:href="#DejaVuSans-69" x="201.269531"/>
      <use xlink:href="#DejaVuSans-6e" x="229.052734"/>
      <use xlink:href="#DejaVuSans-67" x="292.431641"/>
      <use xlink:href="#DejaVuSans-20" x="355.908203"/>
      <use xlink:href="#DejaVuSans-66" x="387.695312"/>
      <use xlink:href="#DejaVuSans-72" x="422.900391"/>
      <use xlink:href="#DejaVuSans-65" x="461.763672"/>
      <use xlink:href="#DejaVuSans-71" x="523.287109"/>
      <use xlink:href="#DejaVuSans-75" x="586.763672"/>
      <use xlink:href="#DejaVuSans-65" x="650.142578"/>
      <use xlink:href="#DejaVuSans-6e" x="711.666016"/>
      <use xlink:href="#DejaVuSans-63" x="775.044922"/>
      <use xlink:href="#DejaVuSans-79" x="830.025391"/>
     </g>
    </g>
   </g>
   <g id="line2d_13">
    <defs>
     <path id="m3eae282552" d="M 0 1.5 
C 0.397805 1.5 0.77937 1.341951 1.06066 1.06066 
C 1.341951 0.77937 1.5 0.397805 1.5 0 
C 1.5 -0.397805 1.341951 -0.77937 1.06066 -1.06066 
C 0.77937 -1.341951 0.397805 -1.5 0 -1.5 
C -0.397805 -1.5 -0.77937 -1.341951 -1.06066 -1.06066 
C -1.341951 -0.77937 -1.5 -0.397805 -1.5 0 
C -1.5 0.397805 -1.341951 0.77937 -1.06066 1.06066 
C -0.77937 1.341951 -0.397805 1.5 0 1.5 
z
" style="stroke: #87ceeb"/>
    </defs>
    <g clip-path="url(#pf1d203fca3)">
     <use xlink:href="#m3eae282552" x="92.290909" y="320.4" style="fill: #87ceeb; stroke: #87ceeb"/>
     <use xlink:href="#m3eae282552" x="92.290909" y="320.4" style="fill: #87ceeb; stroke: #87ceeb"/>
     <use xlink:href="#m3eae282552" x="92.290909" y="320.4" style="fill: #87ceeb; stroke: #87ceeb"/>
     <use xlink:href="#m3eae282552" x="92.290909" y="320.4" style="fill: #87ceeb; stroke: #87ceeb"/>
     <use xlink:href="#m3eae282552" x="92.290909" y="320.4" style="fill: #87ceeb; stroke: #87ceeb"/>
     <use xlink:href="#m3eae282552" x="92.290909" y="320.4" style="fill: #87ceeb; stroke: #87ceeb"/>
     <use xlink:href="#m3eae282552" x="92.290909" y="320.4" style="fill: #87ceeb; stroke: #87ceeb"/>
     <use xlink:href="#m3eae282552" x="92.290909" y="320.4" style="fill: #87ceeb; stroke: #87ceeb"/>
     <use xlink:href="#m3eae282552" x="92.290909" y="320.4" style="fill: #87ceeb; stroke: #87ceeb"/>
     <use xlink:href="#m3eae282552" x="92.290909" y="320.4" style="fill: #87ceeb; stroke: #87ceeb"/>
     <use xlink:href="#m3eae282552" x="92.397539" y="320.4" style="fill: #87ceeb; stroke: #87ceeb"/>
     <use xlink:href="#m3eae282552" x="94.544858" y="320.4" style="fill: #87ceeb; stroke: #87ceeb"/>
     <use xlink:href="#m3eae282552" x="96.691477" y="320.4" style="fill: #87ceeb; stroke: #87ceeb"/>
     <use xlink:href="#m3eae282552" x="98.838095" y="320.4" style="fill: #87ceeb; stroke: #87ceeb"/>
     <use xlink:href="#m3eae282552" x="100.984713" y="320.4" style="fill: #87ceeb; stroke: #87ceeb"/>
     <use xlink:href="#m3eae282552" x="103.131331" y="320.4" style="fill: #87ceeb; stroke: #87ceeb"/>
     <use xlink:href="#m3eae282552" x="105.27795" y="320.4" style="fill: #87ceeb; stroke: #87ceeb"/>
     <use xlink:href="#m3eae282552" x="107.424568" y="320.4" style="fill: #87ceeb; stroke: #87ceeb"/>
     <use xlink:href="#m3eae282552" x="109.571186" y="320.4" style="fill: #87ceeb; stroke: #87ceeb"/>
     <use xlink:href="#m3eae282552" x="111.717804" y="320.4" style="fill: #87ceeb; stroke: #87ceeb"/>
     <use xlink:href="#m3eae282552" x="113.864423" y="320.4" style="fill: #87ceeb; stroke: #87ceeb"/>
     <use xlink:href="#m3eae282552" x="116.011041" y="320.4" style="fill: #87ceeb; stroke: #87ceeb"/>
     <use xlink:href="#m3eae282552" x="118.157659" y="320.4" style="fill: #87ceeb; stroke: #87ceeb"/>
     <use xlink:href="#m3eae282552" x="120.304277" y="320.4" style="fill: #87ceeb; stroke: #87ceeb"/>
     <use xlink:href="#m3eae282552" x="122.450896" y="320.4" style="fill: #87ceeb; stroke: #87ceeb"/>
     <use xlink:href="#m3eae282552" x="124.597514" y="320.4" style="fill: #87ceeb; stroke: #87ceeb"/>
     <use xlink:href="#m3eae282552" x="126.744132" y="320.4" style="fill: #87ceeb; stroke: #87ceeb"/>
     <use xlink:href="#m3eae282552" x="128.89075" y="320.4" style="fill: #87ceeb; stroke: #87ceeb"/>
     <use xlink:href="#m3eae282552" x="131.037369" y="320.4" style="fill: #87ceeb; stroke: #87ceeb"/>
     <use xlink:href="#m3eae282552" x="133.183987" y="320.4" style="fill: #87ceeb; stroke: #87ceeb"/>
     <use xlink:href="#m3eae282552" x="135.330605" y="320.4" style="fill: #87ceeb; stroke: #87ceeb"/>
     <use xlink:href="#m3eae282552" x="137.477223" y="305.008246" style="fill: #87ceeb; stroke: #87ceeb"/>
     <use xlink:href="#m3eae282552" x="139.623842" y="297.003893" style="fill: #87ceeb; stroke: #87ceeb"/>
     <use xlink:href="#m3eae282552" x="141.77046" y="291.754759" style="fill: #87ceeb; stroke: #87ceeb"/>
     <use xlink:href="#m3eae282552" x="143.917078" y="287.702248" style="fill: #87ceeb; stroke: #87ceeb"/>
     <use xlink:href="#m3eae282552" x="146.063696" y="284.350719" style="fill: #87ceeb; stroke: #87ceeb"/>
     <use xlink:href="#m3eae282552" x="148.210315" y="281.4722" style="fill: #87ceeb; stroke: #87ceeb"/>
     <use xlink:href="#m3eae282552" x="150.356933" y="278.935441" style="fill: #87ceeb; stroke: #87ceeb"/>
     <use xlink:href="#m3eae282552" x="152.503551" y="276.660355" style="fill: #87ceeb; stroke: #87ceeb"/>
     <use xlink:href="#m3eae282552" x="154.65017" y="274.590871" style="fill: #87ceeb; stroke: #87ceeb"/>
     <use xlink:href="#m3eae282552" x="156.796788" y="272.689978" style="fill: #87ceeb; stroke: #87ceeb"/>
     <use xlink:href="#m3eae282552" x="158.943406" y="270.930035" style="fill: #87ceeb; stroke: #87ceeb"/>
     <use xlink:href="#m3eae282552" x="161.090024" y="269.290544" style="fill: #87ceeb; stroke: #87ceeb"/>
     <use xlink:href="#m3eae282552" x="163.236643" y="267.753106" style="fill: #87ceeb; stroke: #87ceeb"/>
     <use xlink:href="#m3eae282552" x="165.383261" y="266.305598" style="fill: #87ceeb; stroke: #87ceeb"/>
     <use xlink:href="#m3eae282552" x="167.529879" y="264.933223" style="fill: #87ceeb; stroke: #87ceeb"/>
     <use xlink:href="#m3eae282552" x="169.676497" y="263.63182" style="fill: #87ceeb; stroke: #87ceeb"/>
     <use xlink:href="#m3eae282552" x="171.823116" y="262.389773" style="fill: #87ceeb; stroke: #87ceeb"/>
     <use xlink:href="#m3eae282552" x="173.969734" y="261.20901" style="fill: #87ceeb; stroke: #87ceeb"/>
     <use xlink:href="#m3eae282552" x="176.116352" y="260.071441" style="fill: #87ceeb; stroke: #87ceeb"/>
     <use xlink:href="#m3eae282552" x="178.26297" y="258.982334" style="fill: #87ceeb; stroke: #87ceeb"/>
     <use xlink:href="#m3eae282552" x="180.409589" y="257.938792" style="fill: #87ceeb; stroke: #87ceeb"/>
     <use xlink:href="#m3eae282552" x="182.556207" y="256.926922" style="fill: #87ceeb; stroke: #87ceeb"/>
     <use xlink:href="#m3eae282552" x="184.702825" y="255.953618" style="fill: #87ceeb; stroke: #87ceeb"/>
     <use xlink:href="#m3eae282552" x="186.849443" y="255.010524" style="fill: #87ceeb; stroke: #87ceeb"/>
     <use xlink:href="#m3eae282552" x="188.996062" y="254.102337" style="fill: #87ceeb; stroke: #87ceeb"/>
     <use xlink:href="#m3eae282552" x="191.14268" y="253.216965" style="fill: #87ceeb; stroke: #87ceeb"/>
     <use xlink:href="#m3eae282552" x="193.289298" y="252.358067" style="fill: #87ceeb; stroke: #87ceeb"/>
     <use xlink:href="#m3eae282552" x="195.435916" y="251.524654" style="fill: #87ceeb; stroke: #87ceeb"/>
     <use xlink:href="#m3eae282552" x="197.582535" y="250.715282" style="fill: #87ceeb; stroke: #87ceeb"/>
     <use xlink:href="#m3eae282552" x="199.729153" y="249.92381" style="fill: #87ceeb; stroke: #87ceeb"/>
     <use xlink:href="#m3eae282552" x="201.875771" y="249.156447" style="fill: #87ceeb; stroke: #87ceeb"/>
     <use xlink:href="#m3eae282552" x="204.022389" y="248.404921" style="fill: #87ceeb; stroke: #87ceeb"/>
     <use xlink:href="#m3eae282552" x="206.169008" y="247.67713" style="fill: #87ceeb; stroke: #87ceeb"/>
     <use xlink:href="#m3eae282552" x="208.315626" y="246.962054" style="fill: #87ceeb; stroke: #87ceeb"/>
     <use xlink:href="#m3eae282552" x="210.462244" y="246.263293" style="fill: #87ceeb; stroke: #87ceeb"/>
     <use xlink:href="#m3eae282552" x="212.608862" y="245.578303" style="fill: #87ceeb; stroke: #87ceeb"/>
     <use xlink:href="#m3eae282552" x="214.755481" y="244.909804" style="fill: #87ceeb; stroke: #87ceeb"/>
     <use xlink:href="#m3eae282552" x="216.902099" y="244.256613" style="fill: #87ceeb; stroke: #87ceeb"/>
     <use xlink:href="#m3eae282552" x="219.048717" y="243.611967" style="fill: #87ceeb; stroke: #87ceeb"/>
     <use xlink:href="#m3eae282552" x="221.195336" y="242.986973" style="fill: #87ceeb; stroke: #87ceeb"/>
     <use xlink:href="#m3eae282552" x="223.341954" y="242.366521" style="fill: #87ceeb; stroke: #87ceeb"/>
     <use xlink:href="#m3eae282552" x="225.488572" y="241.757621" style="fill: #87ceeb; stroke: #87ceeb"/>
     <use xlink:href="#m3eae282552" x="227.63519" y="241.16766" style="fill: #87ceeb; stroke: #87ceeb"/>
     <use xlink:href="#m3eae282552" x="229.781809" y="240.580995" style="fill: #87ceeb; stroke: #87ceeb"/>
     <use xlink:href="#m3eae282552" x="231.928427" y="240.006401" style="fill: #87ceeb; stroke: #87ceeb"/>
     <use xlink:href="#m3eae282552" x="234.075045" y="239.442331" style="fill: #87ceeb; stroke: #87ceeb"/>
     <use xlink:href="#m3eae282552" x="236.221663" y="238.890102" style="fill: #87ceeb; stroke: #87ceeb"/>
     <use xlink:href="#m3eae282552" x="238.368282" y="238.342999" style="fill: #87ceeb; stroke: #87ceeb"/>
     <use xlink:href="#m3eae282552" x="240.5149" y="237.805675" style="fill: #87ceeb; stroke: #87ceeb"/>
     <use xlink:href="#m3eae282552" x="242.661518" y="237.275895" style="fill: #87ceeb; stroke: #87ceeb"/>
     <use xlink:href="#m3eae282552" x="244.808136" y="236.754858" style="fill: #87ceeb; stroke: #87ceeb"/>
     <use xlink:href="#m3eae282552" x="246.954755" y="236.239155" style="fill: #87ceeb; stroke: #87ceeb"/>
     <use xlink:href="#m3eae282552" x="249.101373" y="235.737236" style="fill: #87ceeb; stroke: #87ceeb"/>
     <use xlink:href="#m3eae282552" x="251.247991" y="235.234349" style="fill: #87ceeb; stroke: #87ceeb"/>
     <use xlink:href="#m3eae282552" x="253.394609" y="234.745307" style="fill: #87ceeb; stroke: #87ceeb"/>
     <use xlink:href="#m3eae282552" x="255.541228" y="234.25954" style="fill: #87ceeb; stroke: #87ceeb"/>
     <use xlink:href="#m3eae282552" x="257.687846" y="233.780884" style="fill: #87ceeb; stroke: #87ceeb"/>
     <use xlink:href="#m3eae282552" x="259.834464" y="233.310562" style="fill: #87ceeb; stroke: #87ceeb"/>
     <use xlink:href="#m3eae282552" x="261.981082" y="232.839615" style="fill: #87ceeb; stroke: #87ceeb"/>
     <use xlink:href="#m3eae282552" x="264.127701" y="232.381777" style="fill: #87ceeb; stroke: #87ceeb"/>
     <use xlink:href="#m3eae282552" x="266.274319" y="231.929412" style="fill: #87ceeb; stroke: #87ceeb"/>
     <use xlink:href="#m3eae282552" x="268.420937" y="231.481081" style="fill: #87ceeb; stroke: #87ceeb"/>
     <use xlink:href="#m3eae282552" x="270.567555" y="231.034697" style="fill: #87ceeb; stroke: #87ceeb"/>
     <use xlink:href="#m3eae282552" x="272.714174" y="230.598511" style="fill: #87ceeb; stroke: #87ceeb"/>
     <use xlink:href="#m3eae282552" x="274.860792" y="230.166543" style="fill: #87ceeb; stroke: #87ceeb"/>
     <use xlink:href="#m3eae282552" x="277.00741" y="229.737694" style="fill: #87ceeb; stroke: #87ceeb"/>
     <use xlink:href="#m3eae282552" x="279.154029" y="229.315154" style="fill: #87ceeb; stroke: #87ceeb"/>
     <use xlink:href="#m3eae282552" x="281.300647" y="228.895977" style="fill: #87ceeb; stroke: #87ceeb"/>
     <use xlink:href="#m3eae282552" x="283.447265" y="228.478368" style="fill: #87ceeb; stroke: #87ceeb"/>
     <use xlink:href="#m3eae282552" x="285.593883" y="228.07066" style="fill: #87ceeb; stroke: #87ceeb"/>
     <use xlink:href="#m3eae282552" x="287.740502" y="227.666158" style="fill: #87ceeb; stroke: #87ceeb"/>
     <use xlink:href="#m3eae282552" x="289.88712" y="227.268251" style="fill: #87ceeb; stroke: #87ceeb"/>
     <use xlink:href="#m3eae282552" x="292.033738" y="226.873869" style="fill: #87ceeb; stroke: #87ceeb"/>
     <use xlink:href="#m3eae282552" x="294.180356" y="226.478471" style="fill: #87ceeb; stroke: #87ceeb"/>
     <use xlink:href="#m3eae282552" x="296.326975" y="226.090227" style="fill: #87ceeb; stroke: #87ceeb"/>
     <use xlink:href="#m3eae282552" x="298.473593" y="225.702185" style="fill: #87ceeb; stroke: #87ceeb"/>
     <use xlink:href="#m3eae282552" x="300.620211" y="225.323599" style="fill: #87ceeb; stroke: #87ceeb"/>
     <use xlink:href="#m3eae282552" x="302.766829" y="224.945455" style="fill: #87ceeb; stroke: #87ceeb"/>
     <use xlink:href="#m3eae282552" x="304.913448" y="224.570819" style="fill: #87ceeb; stroke: #87ceeb"/>
     <use xlink:href="#m3eae282552" x="307.060066" y="224.204032" style="fill: #87ceeb; stroke: #87ceeb"/>
     <use xlink:href="#m3eae282552" x="309.206684" y="223.835663" style="fill: #87ceeb; stroke: #87ceeb"/>
     <use xlink:href="#m3eae282552" x="311.353302" y="223.471939" style="fill: #87ceeb; stroke: #87ceeb"/>
     <use xlink:href="#m3eae282552" x="313.499921" y="223.111742" style="fill: #87ceeb; stroke: #87ceeb"/>
     <use xlink:href="#m3eae282552" x="315.646539" y="222.751387" style="fill: #87ceeb; stroke: #87ceeb"/>
     <use xlink:href="#m3eae282552" x="317.793157" y="222.397858" style="fill: #87ceeb; stroke: #87ceeb"/>
     <use xlink:href="#m3eae282552" x="319.939775" y="222.047839" style="fill: #87ceeb; stroke: #87ceeb"/>
     <use xlink:href="#m3eae282552" x="322.086394" y="221.703343" style="fill: #87ceeb; stroke: #87ceeb"/>
     <use xlink:href="#m3eae282552" x="324.233012" y="221.357485" style="fill: #87ceeb; stroke: #87ceeb"/>
     <use xlink:href="#m3eae282552" x="326.37963" y="221.009874" style="fill: #87ceeb; stroke: #87ceeb"/>
     <use xlink:href="#m3eae282552" x="328.526248" y="220.670848" style="fill: #87ceeb; stroke: #87ceeb"/>
     <use xlink:href="#m3eae282552" x="330.672867" y="220.334614" style="fill: #87ceeb; stroke: #87ceeb"/>
     <use xlink:href="#m3eae282552" x="332.819485" y="220.001251" style="fill: #87ceeb; stroke: #87ceeb"/>
     <use xlink:href="#m3eae282552" x="334.966103" y="219.670839" style="fill: #87ceeb; stroke: #87ceeb"/>
     <use xlink:href="#m3eae282552" x="337.112722" y="219.34481" style="fill: #87ceeb; stroke: #87ceeb"/>
     <use xlink:href="#m3eae282552" x="339.25934" y="219.021425" style="fill: #87ceeb; stroke: #87ceeb"/>
     <use xlink:href="#m3eae282552" x="341.405958" y="218.690781" style="fill: #87ceeb; stroke: #87ceeb"/>
     <use xlink:href="#m3eae282552" x="343.552576" y="218.372295" style="fill: #87ceeb; stroke: #87ceeb"/>
     <use xlink:href="#m3eae282552" x="345.699195" y="218.049231" style="fill: #87ceeb; stroke: #87ceeb"/>
     <use xlink:href="#m3eae282552" x="347.845813" y="217.733333" style="fill: #87ceeb; stroke: #87ceeb"/>
     <use xlink:href="#m3eae282552" x="349.992431" y="217.426493" style="fill: #87ceeb; stroke: #87ceeb"/>
     <use xlink:href="#m3eae282552" x="352.139049" y="217.112565" style="fill: #87ceeb; stroke: #87ceeb"/>
     <use xlink:href="#m3eae282552" x="354.285668" y="216.796718" style="fill: #87ceeb; stroke: #87ceeb"/>
     <use xlink:href="#m3eae282552" x="356.432286" y="216.491169" style="fill: #87ceeb; stroke: #87ceeb"/>
     <use xlink:href="#m3eae282552" x="358.578904" y="216.185912" style="fill: #87ceeb; stroke: #87ceeb"/>
     <use xlink:href="#m3eae282552" x="360.725522" y="215.885861" style="fill: #87ceeb; stroke: #87ceeb"/>
     <use xlink:href="#m3eae282552" x="362.872141" y="215.580796" style="fill: #87ceeb; stroke: #87ceeb"/>
     <use xlink:href="#m3eae282552" x="365.018759" y="215.282682" style="fill: #87ceeb; stroke: #87ceeb"/>
     <use xlink:href="#m3eae282552" x="367.165377" y="214.988235" style="fill: #87ceeb; stroke: #87ceeb"/>
     <use xlink:href="#m3eae282552" x="369.311995" y="214.688725" style="fill: #87ceeb; stroke: #87ceeb"/>
     <use xlink:href="#m3eae282552" x="371.458614" y="214.399795" style="fill: #87ceeb; stroke: #87ceeb"/>
     <use xlink:href="#m3eae282552" x="373.605232" y="214.105834" style="fill: #87ceeb; stroke: #87ceeb"/>
     <use xlink:href="#m3eae282552" x="375.75185" y="213.822371" style="fill: #87ceeb; stroke: #87ceeb"/>
     <use xlink:href="#m3eae282552" x="377.898468" y="213.530422" style="fill: #87ceeb; stroke: #87ceeb"/>
     <use xlink:href="#m3eae282552" x="380.045087" y="213.242319" style="fill: #87ceeb; stroke: #87ceeb"/>
     <use xlink:href="#m3eae282552" x="382.191705" y="212.963619" style="fill: #87ceeb; stroke: #87ceeb"/>
     <use xlink:href="#m3eae282552" x="384.338323" y="212.6828" style="fill: #87ceeb; stroke: #87ceeb"/>
     <use xlink:href="#m3eae282552" x="386.484941" y="212.401845" style="fill: #87ceeb; stroke: #87ceeb"/>
     <use xlink:href="#m3eae282552" x="388.63156" y="212.124315" style="fill: #87ceeb; stroke: #87ceeb"/>
     <use xlink:href="#m3eae282552" x="390.778178" y="211.848248" style="fill: #87ceeb; stroke: #87ceeb"/>
     <use xlink:href="#m3eae282552" x="392.924796" y="211.567183" style="fill: #87ceeb; stroke: #87ceeb"/>
     <use xlink:href="#m3eae282552" x="395.071414" y="211.295765" style="fill: #87ceeb; stroke: #87ceeb"/>
     <use xlink:href="#m3eae282552" x="397.218033" y="211.023464" style="fill: #87ceeb; stroke: #87ceeb"/>
     <use xlink:href="#m3eae282552" x="399.364651" y="210.754458" style="fill: #87ceeb; stroke: #87ceeb"/>
     <use xlink:href="#m3eae282552" x="401.511269" y="210.484602" style="fill: #87ceeb; stroke: #87ceeb"/>
     <use xlink:href="#m3eae282552" x="403.657888" y="210.219079" style="fill: #87ceeb; stroke: #87ceeb"/>
     <use xlink:href="#m3eae282552" x="405.804506" y="209.954295" style="fill: #87ceeb; stroke: #87ceeb"/>
     <use xlink:href="#m3eae282552" x="407.951124" y="209.685134" style="fill: #87ceeb; stroke: #87ceeb"/>
     <use xlink:href="#m3eae282552" x="410.097742" y="209.425954" style="fill: #87ceeb; stroke: #87ceeb"/>
     <use xlink:href="#m3eae282552" x="412.244361" y="209.164045" style="fill: #87ceeb; stroke: #87ceeb"/>
     <use xlink:href="#m3eae282552" x="414.390979" y="208.903937" style="fill: #87ceeb; stroke: #87ceeb"/>
     <use xlink:href="#m3eae282552" x="416.537597" y="208.641082" style="fill: #87ceeb; stroke: #87ceeb"/>
     <use xlink:href="#m3eae282552" x="418.684215" y="208.388494" style="fill: #87ceeb; stroke: #87ceeb"/>
     <use xlink:href="#m3eae282552" x="420.830834" y="208.127825" style="fill: #87ceeb; stroke: #87ceeb"/>
     <use xlink:href="#m3eae282552" x="422.977452" y="207.877167" style="fill: #87ceeb; stroke: #87ceeb"/>
     <use xlink:href="#m3eae282552" x="425.12407" y="207.625386" style="fill: #87ceeb; stroke: #87ceeb"/>
     <use xlink:href="#m3eae282552" x="427.270688" y="207.372477" style="fill: #87ceeb; stroke: #87ceeb"/>
     <use xlink:href="#m3eae282552" x="429.417307" y="207.124217" style="fill: #87ceeb; stroke: #87ceeb"/>
     <use xlink:href="#m3eae282552" x="431.563925" y="206.869052" style="fill: #87ceeb; stroke: #87ceeb"/>
     <use xlink:href="#m3eae282552" x="433.710543" y="206.624411" style="fill: #87ceeb; stroke: #87ceeb"/>
     <use xlink:href="#m3eae282552" x="435.857161" y="206.377849" style="fill: #87ceeb; stroke: #87ceeb"/>
     <use xlink:href="#m3eae282552" x="438.00378" y="206.129346" style="fill: #87ceeb; stroke: #87ceeb"/>
     <use xlink:href="#m3eae282552" x="440.150398" y="205.885575" style="fill: #87ceeb; stroke: #87ceeb"/>
     <use xlink:href="#m3eae282552" x="442.297016" y="205.646603" style="fill: #87ceeb; stroke: #87ceeb"/>
     <use xlink:href="#m3eae282552" x="444.443634" y="205.404266" style="fill: #87ceeb; stroke: #87ceeb"/>
     <use xlink:href="#m3eae282552" x="446.590253" y="205.165653" style="fill: #87ceeb; stroke: #87ceeb"/>
     <use xlink:href="#m3eae282552" x="448.736871" y="204.923663" style="fill: #87ceeb; stroke: #87ceeb"/>
     <use xlink:href="#m3eae282552" x="450.883489" y="204.686594" style="fill: #87ceeb; stroke: #87ceeb"/>
     <use xlink:href="#m3eae282552" x="453.030107" y="204.444125" style="fill: #87ceeb; stroke: #87ceeb"/>
     <use xlink:href="#m3eae282552" x="455.176726" y="204.214835" style="fill: #87ceeb; stroke: #87ceeb"/>
     <use xlink:href="#m3eae282552" x="457.323344" y="203.972808" style="fill: #87ceeb; stroke: #87ceeb"/>
     <use xlink:href="#m3eae282552" x="459.469962" y="203.747587" style="fill: #87ceeb; stroke: #87ceeb"/>
     <use xlink:href="#m3eae282552" x="461.616581" y="203.514301" style="fill: #87ceeb; stroke: #87ceeb"/>
     <use xlink:href="#m3eae282552" x="463.763199" y="203.276565" style="fill: #87ceeb; stroke: #87ceeb"/>
     <use xlink:href="#m3eae282552" x="465.909817" y="203.04864" style="fill: #87ceeb; stroke: #87ceeb"/>
     <use xlink:href="#m3eae282552" x="468.056435" y="202.819827" style="fill: #87ceeb; stroke: #87ceeb"/>
     <use xlink:href="#m3eae282552" x="470.203054" y="202.591753" style="fill: #87ceeb; stroke: #87ceeb"/>
     <use xlink:href="#m3eae282552" x="472.349672" y="202.36482" style="fill: #87ceeb; stroke: #87ceeb"/>
     <use xlink:href="#m3eae282552" x="474.49629" y="202.137011" style="fill: #87ceeb; stroke: #87ceeb"/>
     <use xlink:href="#m3eae282552" x="476.642908" y="201.90832" style="fill: #87ceeb; stroke: #87ceeb"/>
     <use xlink:href="#m3eae282552" x="478.789527" y="201.682811" style="fill: #87ceeb; stroke: #87ceeb"/>
     <use xlink:href="#m3eae282552" x="480.936145" y="201.460428" style="fill: #87ceeb; stroke: #87ceeb"/>
     <use xlink:href="#m3eae282552" x="483.082763" y="201.23521" style="fill: #87ceeb; stroke: #87ceeb"/>
     <use xlink:href="#m3eae282552" x="485.229381" y="201.015258" style="fill: #87ceeb; stroke: #87ceeb"/>
     <use xlink:href="#m3eae282552" x="487.376" y="200.800445" style="fill: #87ceeb; stroke: #87ceeb"/>
     <use xlink:href="#m3eae282552" x="489.522618" y="200.582352" style="fill: #87ceeb; stroke: #87ceeb"/>
     <use xlink:href="#m3eae282552" x="491.669236" y="200.363463" style="fill: #87ceeb; stroke: #87ceeb"/>
     <use xlink:href="#m3eae282552" x="493.815854" y="200.137658" style="fill: #87ceeb; stroke: #87ceeb"/>
     <use xlink:href="#m3eae282552" x="495.962473" y="199.924598" style="fill: #87ceeb; stroke: #87ceeb"/>
     <use xlink:href="#m3eae282552" x="498.109091" y="199.708128" style="fill: #87ceeb; stroke: #87ceeb"/>
    </g>
   </g>
   <g id="patch_3">
    <path d="M 72 320.4 
L 72 43.2 
" style="fill: none; stroke: #000000; stroke-width: 0.8; stroke-linejoin: miter; stroke-linecap: square"/>
   </g>
   <g id="patch_4">
    <path d="M 518.4 320.4 
L 518.4 43.2 
" style="fill: none; stroke: #000000; stroke-width: 0.8; stroke-linejoin: miter; stroke-linecap: square"/>
   </g>
   <g id="patch_5">
    <path d="M 72 320.4 
L 518.4 320.4 
" style="fill: none; stroke: #000000; stroke-width: 0.8; stroke-linejoin: miter; stroke-linecap: square"/>
   </g>
   <g id="patch_6">
    <path d="M 72 43.2 
L 518.4 43.2 
" style="fill: none; stroke: #000000; stroke-width: 0.8; stroke-linejoin: miter; stroke-linecap: square"/>
   </g>
   <g id="text_15">
    <!-- F-I curve, type 1 excitability -->
    <g transform="translate(211.505625 37.2) scale(0.12 -0.12)">
     <defs>
      <path id="DejaVuSans-46" d="M 628 4666 
L 3309 4666 
L 3309 4134 
L 1259 4134 
L 1259 2759 
L 3109 2759 
L 3109 2228 
L 1259 2228 
L 1259 0 
L 628 0 
L 628 4666 
z
" transform="scale(0.015625)"/>
      <path id="DejaVuSans-2d" d="M 313 2009 
L 1997 2009 
L 1997 1497 
L 313 1497 
L 313 2009 
z
" transform="scale(0.015625)"/>
      <path id="DejaVuSans-49" d="M 628 4666 
L 1259 4666 
L 1259 0 
L 628 0 
L 628 4666 
z
" transform="scale(0.015625)"/>
      <path id="DejaVuSans-76" d="M 191 3500 
L 800 3500 
L 1894 563 
L 2988 3500 
L 3597 3500 
L 2284 0 
L 1503 0 
L 191 3500 
z
" transform="scale(0.015625)"/>
      <path id="DejaVuSans-2c" d="M 750 794 
L 1409 794 
L 1409 256 
L 897 -744 
L 494 -744 
L 750 256 
L 750 794 
z
" transform="scale(0.015625)"/>
      <path id="DejaVuSans-78" d="M 3513 3500 
L 2247 1797 
L 3578 0 
L 2900 0 
L 1881 1375 
L 863 0 
L 184 0 
L 1544 1831 
L 300 3500 
L 978 3500 
L 1906 2253 
L 2834 3500 
L 3513 3500 
z
" transform="scale(0.015625)"/>
      <path id="DejaVuSans-62" d="M 3116 1747 
Q 3116 2381 2855 2742 
Q 2594 3103 2138 3103 
Q 1681 3103 1420 2742 
Q 1159 2381 1159 1747 
Q 1159 1113 1420 752 
Q 1681 391 2138 391 
Q 2594 391 2855 752 
Q 3116 1113 3116 1747 
z
M 1159 2969 
Q 1341 3281 1617 3432 
Q 1894 3584 2278 3584 
Q 2916 3584 3314 3078 
Q 3713 2572 3713 1747 
Q 3713 922 3314 415 
Q 2916 -91 2278 -91 
Q 1894 -91 1617 61 
Q 1341 213 1159 525 
L 1159 0 
L 581 0 
L 581 4863 
L 1159 4863 
L 1159 2969 
z
" transform="scale(0.015625)"/>
     </defs>
     <use xlink:href="#DejaVuSans-46"/>
     <use xlink:href="#DejaVuSans-2d" x="57.519531"/>
     <use xlink:href="#DejaVuSans-49" x="93.603516"/>
     <use xlink:href="#DejaVuSans-20" x="123.095703"/>
     <use xlink:href="#DejaVuSans-63" x="154.882812"/>
     <use xlink:href="#DejaVuSans-75" x="209.863281"/>
     <use xlink:href="#DejaVuSans-72" x="273.242188"/>
     <use xlink:href="#DejaVuSans-76" x="314.355469"/>
     <use xlink:href="#DejaVuSans-65" x="373.535156"/>
     <use xlink:href="#DejaVuSans-2c" x="435.058594"/>
     <use xlink:href="#DejaVuSans-20" x="466.845703"/>
     <use xlink:href="#DejaVuSans-74" x="498.632812"/>
     <use xlink:href="#DejaVuSans-79" x="537.841797"/>
     <use xlink:href="#DejaVuSans-70" x="597.021484"/>
     <use xlink:href="#DejaVuSans-65" x="660.498047"/>
     <use xlink:href="#DejaVuSans-20" x="722.021484"/>
     <use xlink:href="#DejaVuSans-31" x="753.808594"/>
     <use xlink:href="#DejaVuSans-20" x="817.431641"/>
     <use xlink:href="#DejaVuSans-65" x="849.21875"/>
     <use xlink:href="#DejaVuSans-78" x="908.992188"/>
     <use xlink:href="#DejaVuSans-63" x="966.421875"/>
     <use xlink:href="#DejaVuSans-69" x="1021.402344"/>
     <use xlink:href="#DejaVuSans-74" x="1049.185547"/>
     <use xlink:href="#DejaVuSans-61" x="1088.394531"/>
     <use xlink:href="#DejaVuSans-62" x="1149.673828"/>
     <use xlink:href="#DejaVuSans-69" x="1213.150391"/>
     <use xlink:href="#DejaVuSans-6c" x="1240.933594"/>
     <use xlink:href="#DejaVuSans-69" x="1268.716797"/>
     <use xlink:href="#DejaVuSans-74" x="1296.5"/>
     <use xlink:href="#DejaVuSans-79" x="1335.708984"/>
    </g>
   </g>
  </g>
 </g>
 <defs>
  <clipPath id="pf1d203fca3">
   <rect x="72" y="43.2" width="446.4" height="277.2"/>
  </clipPath>
 </defs>
</svg>
