<?xml version="1.0" encoding="utf-8" standalone="no"?>
<!DOCTYPE svg PUBLIC "-//W3C//DTD SVG 1.1//EN"
  "http://www.w3.org/Graphics/SVG/1.1/DTD/svg11.dtd">
<svg xmlns:xlink="http://www.w3.org/1999/xlink" width="576pt" height="360pt" viewBox="0 0 576 360" xmlns="http://www.w3.org/2000/svg" version="1.1">
 <metadata>
  <rdf:RDF xmlns:dc="http://purl.org/dc/elements/1.1/" xmlns:cc="http://creativecommons.org/ns#" xmlns:rdf="http://www.w3.org/1999/02/22-rdf-syntax-ns#">
   <cc:Work>
    <dc:type rdf:resource="http://purl.org/dc/dcmitype/StillImage"/>
    <dc:date>2023-09-20T02:08:49.356736</dc:date>
    <dc:format>image/svg+xml</dc:format>
    <dc:creator>
     <cc:Agent>
      <dc:title>Matplotlib v3.8.0, https://matplotlib.org/</dc:title>
     </cc:Agent>
    </dc:creator>
   </cc:Work>
  </rdf:RDF>
 </metadata>
 <defs>
  <style type="text/css">*{stroke-linejoin: round; stroke-linecap: butt}</style>
 </defs>
 <g id="figure_1">
  <g id="patch_1">
   <path d="M 0 360 
L 576 360 
L 576 0 
L 0 0 
z
" style="fill: #ffffff"/>
  </g>
  <g id="axes_1">
   <g id="patch_2">
    <path d="M 72 320.4 
L 518.4 320.4 
L 518.4 43.2 
L 72 43.2 
z
" style="fill: #ffffff"/>
   </g>
   <g id="matplotlib.axis_1">
    <g id="xtick_1">
     <g id="line2d_1">
      <defs>
       <path id="m84b24cdb07" d="M 0 0 
L 0 3.5 
" style="stroke: #000000; stroke-width: 0.8"/>
      </defs>
      <g>
       <use xlink:href="#m84b24cdb07" x="141.480992" y="320.4" style="stroke: #000000; stroke-width: 0.8"/>
      </g>
     </g>
     <g id="text_1">
      <!-- 10 -->
      <g transform="translate(135.118492 334.998438) scale(0.1 -0.1)">
       <defs>
        <path id="DejaVuSans-31" d="M 794 531 
L 1825 531 
L 1825 4091 
L 703 3866 
L 703 4441 
L 1819 4666 
L 2450 4666 
L 2450 531 
L 3481 531 
L 3481 0 
L 794 0 
L 794 531 
z
" transform="scale(0.015625)"/>
        <path id="DejaVuSans-30" d="M 2034 4250 
Q 1547 4250 1301 3770 
Q 1056 3291 1056 2328 
Q 1056 1369 1301 889 
Q 1547 409 2034 409 
Q 2525 409 2770 889 
Q 3016 1369 3016 2328 
Q 3016 3291 2770 3770 
Q 2525 4250 2034 4250 
z
M 2034 4750 
Q 2819 4750 3233 4129 
Q 3647 3509 3647 2328 
Q 3647 1150 3233 529 
Q 2819 -91 2034 -91 
Q 1250 -91 836 529 
Q 422 1150 422 2328 
Q 422 3509 836 4129 
Q 1250 4750 2034 4750 
z
" transform="scale(0.015625)"/>
       </defs>
       <use xlink:href="#DejaVuSans-31"/>
       <use xlink:href="#DejaVuSans-30" x="63.623047"/>
      </g>
     </g>
    </g>
    <g id="xtick_2">
     <g id="line2d_2">
      <g>
       <use xlink:href="#m84b24cdb07" x="223.464463" y="320.4" style="stroke: #000000; stroke-width: 0.8"/>
      </g>
     </g>
     <g id="text_2">
      <!-- 20 -->
      <g transform="translate(217.101963 334.998438) scale(0.1 -0.1)">
       <defs>
        <path id="DejaVuSans-32" d="M 1228 531 
L 3431 531 
L 3431 0 
L 469 0 
L 469 531 
Q 828 903 1448 1529 
Q 2069 2156 2228 2338 
Q 2531 2678 2651 2914 
Q 2772 3150 2772 3378 
Q 2772 3750 2511 3984 
Q 2250 4219 1831 4219 
Q 1534 4219 1204 4116 
Q 875 4013 500 3803 
L 500 4441 
Q 881 4594 1212 4672 
Q 1544 4750 1819 4750 
Q 2544 4750 2975 4387 
Q 3406 4025 3406 3419 
Q 3406 3131 3298 2873 
Q 3191 2616 2906 2266 
Q 2828 2175 2409 1742 
Q 1991 1309 1228 531 
z
" transform="scale(0.015625)"/>
       </defs>
       <use xlink:href="#DejaVuSans-32"/>
       <use xlink:href="#DejaVuSans-30" x="63.623047"/>
      </g>
     </g>
    </g>
    <g id="xtick_3">
     <g id="line2d_3">
      <g>
       <use xlink:href="#m84b24cdb07" x="305.447934" y="320.4" style="stroke: #000000; stroke-width: 0.8"/>
      </g>
     </g>
     <g id="text_3">
      <!-- 30 -->
      <g transform="translate(299.085434 334.998438) scale(0.1 -0.1)">
       <defs>
        <path id="DejaVuSans-33" d="M 2597 2516 
Q 3050 2419 3304 2112 
Q 3559 1806 3559 1356 
Q 3559 666 3084 287 
Q 2609 -91 1734 -91 
Q 1441 -91 1130 -33 
Q 819 25 488 141 
L 488 750 
Q 750 597 1062 519 
Q 1375 441 1716 441 
Q 2309 441 2620 675 
Q 2931 909 2931 1356 
Q 2931 1769 2642 2001 
Q 2353 2234 1838 2234 
L 1294 2234 
L 1294 2753 
L 1863 2753 
Q 2328 2753 2575 2939 
Q 2822 3125 2822 3475 
Q 2822 3834 2567 4026 
Q 2313 4219 1838 4219 
Q 1578 4219 1281 4162 
Q 984 4106 628 3988 
L 628 4550 
Q 988 4650 1302 4700 
Q 1616 4750 1894 4750 
Q 2613 4750 3031 4423 
Q 3450 4097 3450 3541 
Q 3450 3153 3228 2886 
Q 3006 2619 2597 2516 
z
" transform="scale(0.015625)"/>
       </defs>
       <use xlink:href="#DejaVuSans-33"/>
       <use xlink:href="#DejaVuSans-30" x="63.623047"/>
      </g>
     </g>
    </g>
    <g id="xtick_4">
     <g id="line2d_4">
      <g>
       <use xlink:href="#m84b24cdb07" x="387.431405" y="320.4" style="stroke: #000000; stroke-width: 0.8"/>
      </g>
     </g>
     <g id="text_4">
      <!-- 40 -->
      <g transform="translate(381.068905 334.998438) scale(0.1 -0.1)">
       <defs>
        <path id="DejaVuSans-34" d="M 2419 4116 
L 825 1625 
L 2419 1625 
L 2419 4116 
z
M 2253 4666 
L 3047 4666 
L 3047 1625 
L 3713 1625 
L 3713 1100 
L 3047 1100 
L 3047 0 
L 2419 0 
L 2419 1100 
L 313 1100 
L 313 1709 
L 2253 4666 
z
" transform="scale(0.015625)"/>
       </defs>
       <use xlink:href="#DejaVuSans-34"/>
       <use xlink:href="#DejaVuSans-30" x="63.623047"/>
      </g>
     </g>
    </g>
    <g id="xtick_5">
     <g id="line2d_5">
      <g>
       <use xlink:href="#m84b24cdb07" x="469.414876" y="320.4" style="stroke: #000000; stroke-width: 0.8"/>
      </g>
     </g>
     <g id="text_5">
      <!-- 50 -->
      <g transform="translate(463.052376 334.998438) scale(0.1 -0.1)">
       <defs>
        <path id="DejaVuSans-35" d="M 691 4666 
L 3169 4666 
L 3169 4134 
L 1269 4134 
L 1269 2991 
Q 1406 3038 1543 3061 
Q 1681 3084 1819 3084 
Q 2600 3084 3056 2656 
Q 3513 2228 3513 1497 
Q 3513 744 3044 326 
Q 2575 -91 1722 -91 
Q 1428 -91 1123 -41 
Q 819 9 494 109 
L 494 744 
Q 775 591 1075 516 
Q 1375 441 1709 441 
Q 2250 441 2565 725 
Q 2881 1009 2881 1497 
Q 2881 1984 2565 2268 
Q 2250 2553 1709 2553 
Q 1456 2553 1204 2497 
Q 953 2441 691 2322 
L 691 4666 
z
" transform="scale(0.015625)"/>
       </defs>
       <use xlink:href="#DejaVuSans-35"/>
       <use xlink:href="#DejaVuSans-30" x="63.623047"/>
      </g>
     </g>
    </g>
    <g id="text_6">
     <!-- applied current -->
     <g transform="translate(257.135156 348.676562) scale(0.1 -0.1)">
      <defs>
       <path id="DejaVuSans-61" d="M 2194 1759 
Q 1497 1759 1228 1600 
Q 959 1441 959 1056 
Q 959 750 1161 570 
Q 1363 391 1709 391 
Q 2188 391 2477 730 
Q 2766 1069 2766 1631 
L 2766 1759 
L 2194 1759 
z
M 3341 1997 
L 3341 0 
L 2766 0 
L 2766 531 
Q 2569 213 2275 61 
Q 1981 -91 1556 -91 
Q 1019 -91 701 211 
Q 384 513 384 1019 
Q 384 1609 779 1909 
Q 1175 2209 1959 2209 
L 2766 2209 
L 2766 2266 
Q 2766 2663 2505 2880 
Q 2244 3097 1772 3097 
Q 1472 3097 1187 3025 
Q 903 2953 641 2809 
L 641 3341 
Q 956 3463 1253 3523 
Q 1550 3584 1831 3584 
Q 2591 3584 2966 3190 
Q 3341 2797 3341 1997 
z
" transform="scale(0.015625)"/>
       <path id="DejaVuSans-70" d="M 1159 525 
L 1159 -1331 
L 581 -1331 
L 581 3500 
L 1159 3500 
L 1159 2969 
Q 1341 3281 1617 3432 
Q 1894 3584 2278 3584 
Q 2916 3584 3314 3078 
Q 3713 2572 3713 1747 
Q 3713 922 3314 415 
Q 2916 -91 2278 -91 
Q 1894 -91 1617 61 
Q 1341 213 1159 525 
z
M 3116 1747 
Q 3116 2381 2855 2742 
Q 2594 3103 2138 3103 
Q 1681 3103 1420 2742 
Q 1159 2381 1159 1747 
Q 1159 1113 1420 752 
Q 1681 391 2138 391 
Q 2594 391 2855 752 
Q 3116 1113 3116 1747 
z
" transform="scale(0.015625)"/>
       <path id="DejaVuSans-6c" d="M 603 4863 
L 1178 4863 
L 1178 0 
L 603 0 
L 603 4863 
z
" transform="scale(0.015625)"/>
       <path id="DejaVuSans-69" d="M 603 3500 
L 1178 3500 
L 1178 0 
L 603 0 
L 603 3500 
z
M 603 4863 
L 1178 4863 
L 1178 4134 
L 603 4134 
L 603 4863 
z
" transform="scale(0.015625)"/>
       <path id="DejaVuSans-65" d="M 3597 1894 
L 3597 1613 
L 953 1613 
Q 991 1019 1311 708 
Q 1631 397 2203 397 
Q 2534 397 2845 478 
Q 3156 559 3463 722 
L 3463 178 
Q 3153 47 2828 -22 
Q 2503 -91 2169 -91 
Q 1331 -91 842 396 
Q 353 884 353 1716 
Q 353 2575 817 3079 
Q 1281 3584 2069 3584 
Q 2775 3584 3186 3129 
Q 3597 2675 3597 1894 
z
M 3022 2063 
Q 3016 2534 2758 2815 
Q 2500 3097 2075 3097 
Q 1594 3097 1305 2825 
Q 1016 2553 972 2059 
L 3022 2063 
z
" transform="scale(0.015625)"/>
       <path id="DejaVuSans-64" d="M 2906 2969 
L 2906 4863 
L 3481 4863 
L 3481 0 
L 2906 0 
L 2906 525 
Q 2725 213 2448 61 
Q 2172 -91 1784 -91 
Q 1150 -91 751 415 
Q 353 922 353 1747 
Q 353 2572 751 3078 
Q 1150 3584 1784 3584 
Q 2172 3584 2448 3432 
Q 2725 3281 2906 2969 
z
M 947 1747 
Q 947 1113 1208 752 
Q 1469 391 1925 391 
Q 2381 391 2643 752 
Q 2906 1113 2906 1747 
Q 2906 2381 2643 2742 
Q 2381 3103 1925 3103 
Q 1469 3103 1208 2742 
Q 947 2381 947 1747 
z
" transform="scale(0.015625)"/>
       <path id="DejaVuSans-20" transform="scale(0.015625)"/>
       <path id="DejaVuSans-63" d="M 3122 3366 
L 3122 2828 
Q 2878 2963 2633 3030 
Q 2388 3097 2138 3097 
Q 1578 3097 1268 2742 
Q 959 2388 959 1747 
Q 959 1106 1268 751 
Q 1578 397 2138 397 
Q 2388 397 2633 464 
Q 2878 531 3122 666 
L 3122 134 
Q 2881 22 2623 -34 
Q 2366 -91 2075 -91 
Q 1284 -91 818 406 
Q 353 903 353 1747 
Q 353 2603 823 3093 
Q 1294 3584 2113 3584 
Q 2378 3584 2631 3529 
Q 2884 3475 3122 3366 
z
" transform="scale(0.015625)"/>
       <path id="DejaVuSans-75" d="M 544 1381 
L 544 3500 
L 1119 3500 
L 1119 1403 
Q 1119 906 1312 657 
Q 1506 409 1894 409 
Q 2359 409 2629 706 
Q 2900 1003 2900 1516 
L 2900 3500 
L 3475 3500 
L 3475 0 
L 2900 0 
L 2900 538 
Q 2691 219 2414 64 
Q 2138 -91 1772 -91 
Q 1169 -91 856 284 
Q 544 659 544 1381 
z
M 1991 3584 
L 1991 3584 
z
" transform="scale(0.015625)"/>
       <path id="DejaVuSans-72" d="M 2631 2963 
Q 2534 3019 2420 3045 
Q 2306 3072 2169 3072 
Q 1681 3072 1420 2755 
Q 1159 2438 1159 1844 
L 1159 0 
L 581 0 
L 581 3500 
L 1159 3500 
L 1159 2956 
Q 1341 3275 1631 3429 
Q 1922 3584 2338 3584 
Q 2397 3584 2469 3576 
Q 2541 3569 2628 3553 
L 2631 2963 
z
" transform="scale(0.015625)"/>
       <path id="DejaVuSans-6e" d="M 3513 2113 
L 3513 0 
L 2938 0 
L 2938 2094 
Q 2938 2591 2744 2837 
Q 2550 3084 2163 3084 
Q 1697 3084 1428 2787 
Q 1159 2491 1159 1978 
L 1159 0 
L 581 0 
L 581 3500 
L 1159 3500 
L 1159 2956 
Q 1366 3272 1645 3428 
Q 1925 3584 2291 3584 
Q 2894 3584 3203 3211 
Q 3513 2838 3513 2113 
z
" transform="scale(0.015625)"/>
       <path id="DejaVuSans-74" d="M 1172 4494 
L 1172 3500 
L 2356 3500 
L 2356 3053 
L 1172 3053 
L 1172 1153 
Q 1172 725 1289 603 
Q 1406 481 1766 481 
L 2356 481 
L 2356 0 
L 1766 0 
Q 1100 0 847 248 
Q 594 497 594 1153 
L 594 3053 
L 172 3053 
L 172 3500 
L 594 3500 
L 594 4494 
L 1172 4494 
z
" transform="scale(0.015625)"/>
      </defs>
      <use xlink:href="#DejaVuSans-61"/>
      <use xlink:href="#DejaVuSans-70" x="61.279297"/>
      <use xlink:href="#DejaVuSans-70" x="124.755859"/>
      <use xlink:href="#DejaVuSans-6c" x="188.232422"/>
      <use xlink:href="#DejaVuSans-69" x="216.015625"/>
      <use xlink:href="#DejaVuSans-65" x="243.798828"/>
      <use xlink:href="#DejaVuSans-64" x="305.322266"/>
      <use xlink:href="#DejaVuSans-20" x="368.798828"/>
      <use xlink:href="#DejaVuSans-63" x="400.585938"/>
      <use xlink:href="#DejaVuSans-75" x="455.566406"/>
      <use xlink:href="#DejaVuSans-72" x="518.945312"/>
      <use xlink:href="#DejaVuSans-72" x="558.308594"/>
      <use xlink:href="#DejaVuSans-65" x="597.171875"/>
      <use xlink:href="#DejaVuSans-6e" x="658.695312"/>
      <use xlink:href="#DejaVuSans-74" x="722.074219"/>
     </g>
    </g>
   </g>
   <g id="matplotlib.axis_2">
    <g id="ytick_1">
     <g id="line2d_6">
      <defs>
       <path id="me4b4f1b99a" d="M 0 0 
L -3.5 0 
" style="stroke: #000000; stroke-width: 0.8"/>
      </defs>
      <g>
       <use xlink:href="#me4b4f1b99a" x="72" y="320.4" style="stroke: #000000; stroke-width: 0.8"/>
      </g>
     </g>
     <g id="text_7">
      <!-- 0 -->
      <g transform="translate(58.6375 324.199219) scale(0.1 -0.1)">
       <use xlink:href="#DejaVuSans-30"/>
      </g>
     </g>
    </g>
    <g id="ytick_2">
     <g id="line2d_7">
      <g>
       <use xlink:href="#me4b4f1b99a" x="72" y="274.2" style="stroke: #000000; stroke-width: 0.8"/>
      </g>
     </g>
     <g id="text_8">
      <!-- 50 -->
      <g transform="translate(52.275 277.999219) scale(0.1 -0.1)">
       <use xlink:href="#DejaVuSans-35"/>
       <use xlink:href="#DejaVuSans-30" x="63.623047"/>
      </g>
     </g>
    </g>
    <g id="ytick_3">
     <g id="line2d_8">
      <g>
       <use xlink:href="#me4b4f1b99a" x="72" y="228" style="stroke: #000000; stroke-width: 0.8"/>
      </g>
     </g>
     <g id="text_9">
      <!-- 100 -->
      <g transform="translate(45.9125 231.799219) scale(0.1 -0.1)">
       <use xlink:href="#DejaVuSans-31"/>
       <use xlink:href="#DejaVuSans-30" x="63.623047"/>
       <use xlink:href="#DejaVuSans-30" x="127.246094"/>
      </g>
     </g>
    </g>
    <g id="ytick_4">
     <g id="line2d_9">
      <g>
       <use xlink:href="#me4b4f1b99a" x="72" y="181.8" style="stroke: #000000; stroke-width: 0.8"/>
      </g>
     </g>
     <g id="text_10">
      <!-- 150 -->
      <g transform="translate(45.9125 185.599219) scale(0.1 -0.1)">
       <use xlink:href="#DejaVuSans-31"/>
       <use xlink:href="#DejaVuSans-35" x="63.623047"/>
       <use xlink:href="#DejaVuSans-30" x="127.246094"/>
      </g>
     </g>
    </g>
    <g id="ytick_5">
     <g id="line2d_10">
      <g>
       <use xlink:href="#me4b4f1b99a" x="72" y="135.6" style="stroke: #000000; stroke-width: 0.8"/>
      </g>
     </g>
     <g id="text_11">
      <!-- 200 -->
      <g transform="translate(45.9125 139.399219) scale(0.1 -0.1)">
       <use xlink:href="#DejaVuSans-32"/>
       <use xlink:href="#DejaVuSans-30" x="63.623047"/>
       <use xlink:href="#DejaVuSans-30" x="127.246094"/>
      </g>
     </g>
    </g>
    <g id="ytick_6">
     <g id="line2d_11">
      <g>
       <use xlink:href="#me4b4f1b99a" x="72" y="89.4" style="stroke: #000000; stroke-width: 0.8"/>
      </g>
     </g>
     <g id="text_12">
      <!-- 250 -->
      <g transform="translate(45.9125 93.199219) scale(0.1 -0.1)">
       <use xlink:href="#DejaVuSans-32"/>
       <use xlink:href="#DejaVuSans-35" x="63.623047"/>
       <use xlink:href="#DejaVuSans-30" x="127.246094"/>
      </g>
     </g>
    </g>
    <g id="ytick_7">
     <g id="line2d_12">
      <g>
       <use xlink:href="#me4b4f1b99a" x="72" y="43.2" style="stroke: #000000; stroke-width: 0.8"/>
      </g>
     </g>
     <g id="text_13">
      <!-- 300 -->
      <g transform="translate(45.9125 46.999219) scale(0.1 -0.1)">
       <use xlink:href="#DejaVuSans-33"/>
       <use xlink:href="#DejaVuSans-30" x="63.623047"/>
       <use xlink:href="#DejaVuSans-30" x="127.246094"/>
      </g>
     </g>
    </g>
    <g id="text_14">
     <!-- spiking frequency -->
     <g transform="translate(39.832812 226.260937) rotate(-90) scale(0.1 -0.1)">
      <defs>
       <path id="DejaVuSans-73" d="M 2834 3397 
L 2834 2853 
Q 2591 2978 2328 3040 
Q 2066 3103 1784 3103 
Q 1356 3103 1142 2972 
Q 928 2841 928 2578 
Q 928 2378 1081 2264 
Q 1234 2150 1697 2047 
L 1894 2003 
Q 2506 1872 2764 1633 
Q 3022 1394 3022 966 
Q 3022 478 2636 193 
Q 2250 -91 1575 -91 
Q 1294 -91 989 -36 
Q 684 19 347 128 
L 347 722 
Q 666 556 975 473 
Q 1284 391 1588 391 
Q 1994 391 2212 530 
Q 2431 669 2431 922 
Q 2431 1156 2273 1281 
Q 2116 1406 1581 1522 
L 1381 1569 
Q 847 1681 609 1914 
Q 372 2147 372 2553 
Q 372 3047 722 3315 
Q 1072 3584 1716 3584 
Q 2034 3584 2315 3537 
Q 2597 3491 2834 3397 
z
" transform="scale(0.015625)"/>
       <path id="DejaVuSans-6b" d="M 581 4863 
L 1159 4863 
L 1159 1991 
L 2875 3500 
L 3609 3500 
L 1753 1863 
L 3688 0 
L 2938 0 
L 1159 1709 
L 1159 0 
L 581 0 
L 581 4863 
z
" transform="scale(0.015625)"/>
       <path id="DejaVuSans-67" d="M 2906 1791 
Q 2906 2416 2648 2759 
Q 2391 3103 1925 3103 
Q 1463 3103 1205 2759 
Q 947 2416 947 1791 
Q 947 1169 1205 825 
Q 1463 481 1925 481 
Q 2391 481 2648 825 
Q 2906 1169 2906 1791 
z
M 3481 434 
Q 3481 -459 3084 -895 
Q 2688 -1331 1869 -1331 
Q 1566 -1331 1297 -1286 
Q 1028 -1241 775 -1147 
L 775 -588 
Q 1028 -725 1275 -790 
Q 1522 -856 1778 -856 
Q 2344 -856 2625 -561 
Q 2906 -266 2906 331 
L 2906 616 
Q 2728 306 2450 153 
Q 2172 0 1784 0 
Q 1141 0 747 490 
Q 353 981 353 1791 
Q 353 2603 747 3093 
Q 1141 3584 1784 3584 
Q 2172 3584 2450 3431 
Q 2728 3278 2906 2969 
L 2906 3500 
L 3481 3500 
L 3481 434 
z
" transform="scale(0.015625)"/>
       <path id="DejaVuSans-66" d="M 2375 4863 
L 2375 4384 
L 1825 4384 
Q 1516 4384 1395 4259 
Q 1275 4134 1275 3809 
L 1275 3500 
L 2222 3500 
L 2222 3053 
L 1275 3053 
L 1275 0 
L 697 0 
L 697 3053 
L 147 3053 
L 147 3500 
L 697 3500 
L 697 3744 
Q 697 4328 969 4595 
Q 1241 4863 1831 4863 
L 2375 4863 
z
" transform="scale(0.015625)"/>
       <path id="DejaVuSans-71" d="M 947 1747 
Q 947 1113 1208 752 
Q 1469 391 1925 391 
Q 2381 391 2643 752 
Q 2906 1113 2906 1747 
Q 2906 2381 2643 2742 
Q 2381 3103 1925 3103 
Q 1469 3103 1208 2742 
Q 947 2381 947 1747 
z
M 2906 525 
Q 2725 213 2448 61 
Q 2172 -91 1784 -91 
Q 1150 -91 751 415 
Q 353 922 353 1747 
Q 353 2572 751 3078 
Q 1150 3584 1784 3584 
Q 2172 3584 2448 3432 
Q 2725 3281 2906 2969 
L 2906 3500 
L 3481 3500 
L 3481 -1331 
L 2906 -1331 
L 2906 525 
z
" transform="scale(0.015625)"/>
       <path id="DejaVuSans-79" d="M 2059 -325 
Q 1816 -950 1584 -1140 
Q 1353 -1331 966 -1331 
L 506 -1331 
L 506 -850 
L 844 -850 
Q 1081 -850 1212 -737 
Q 1344 -625 1503 -206 
L 1606 56 
L 191 3500 
L 800 3500 
L 1894 763 
L 2988 3500 
L 3597 3500 
L 2059 -325 
z
" transform="scale(0.015625)"/>
      </defs>
      <use xlink:href="#DejaVuSans-73"/>
      <use xlink:href="#DejaVuSans-70" x="52.099609"/>
      <use xlink:href="#DejaVuSans-69" x="115.576172"/>
      <use xlink:href="#DejaVuSans-6b" x="143.359375"/>
      <use xlink:href="#DejaVuSans-69" x="201.269531"/>
      <use xlink:href="#DejaVuSans-6e" x="229.052734"/>
      <use xlink:href="#DejaVuSans-67" x="292.431641"/>
      <use xlink:href="#DejaVuSans-20" x="355.908203"/>
      <use xlink:href="#DejaVuSans-66" x="387.695312"/>
      <use xlink:href="#DejaVuSans-72" x="422.900391"/>
      <use xlink:href="#DejaVuSans-65" x="461.763672"/>
      <use xlink:href="#DejaVuSans-71" x="523.287109"/>
      <use xlink:href="#DejaVuSans-75" x="586.763672"/>
      <use xlink:href="#DejaVuSans-65" x="650.142578"/>
      <use xlink:href="#DejaVuSans-6e" x="711.666016"/>
      <use xlink:href="#DejaVuSans-63" x="775.044922"/>
      <use xlink:href="#DejaVuSans-79" x="830.025391"/>
     </g>
    </g>
   </g>
   <g id="line2d_13">
    <defs>
     <path id="md01ca37dfc" d="M 0 1.5 
C 0.397805 1.5 0.77937 1.341951 1.06066 1.06066 
C 1.341951 0.77937 1.5 0.397805 1.5 0 
C 1.5 -0.397805 1.341951 -0.77937 1.06066 -1.06066 
C 0.77937 -1.341951 0.397805 -1.5 0 -1.5 
C -0.397805 -1.5 -0.77937 -1.341951 -1.06066 -1.06066 
C -1.341951 -0.77937 -1.5 -0.397805 -1.5 0 
C -1.5 0.397805 -1.341951 0.77937 -1.06066 1.06066 
C -0.77937 1.341951 -0.397805 1.5 0 1.5 
z
" style="stroke: #87ceeb"/>
    </defs>
    <g clip-path="url(#p03ac1881cb)">
     <use xlink:href="#md01ca37dfc" x="92.290909" y="320.4" style="fill: #87ceeb; stroke: #87ceeb"/>
     <use xlink:href="#md01ca37dfc" x="92.290909" y="320.4" style="fill: #87ceeb; stroke: #87ceeb"/>
     <use xlink:href="#md01ca37dfc" x="92.305988" y="320.4" style="fill: #87ceeb; stroke: #87ceeb"/>
     <use xlink:href="#md01ca37dfc" x="94.371394" y="320.4" style="fill: #87ceeb; stroke: #87ceeb"/>
     <use xlink:href="#md01ca37dfc" x="96.43128" y="320.4" style="fill: #87ceeb; stroke: #87ceeb"/>
     <use xlink:href="#md01ca37dfc" x="98.491167" y="320.4" style="fill: #87ceeb; stroke: #87ceeb"/>
     <use xlink:href="#md01ca37dfc" x="100.551053" y="320.4" style="fill: #87ceeb; stroke: #87ceeb"/>
     <use xlink:href="#md01ca37dfc" x="102.610939" y="320.4" style="fill: #87ceeb; stroke: #87ceeb"/>
     <use xlink:href="#md01ca37dfc" x="104.670825" y="320.4" style="fill: #87ceeb; stroke: #87ceeb"/>
     <use xlink:href="#md01ca37dfc" x="106.730711" y="320.4" style="fill: #87ceeb; stroke: #87ceeb"/>
     <use xlink:href="#md01ca37dfc" x="108.790598" y="320.4" style="fill: #87ceeb; stroke: #87ceeb"/>
     <use xlink:href="#md01ca37dfc" x="110.850484" y="320.4" style="fill: #87ceeb; stroke: #87ceeb"/>
     <use xlink:href="#md01ca37dfc" x="112.91037" y="320.4" style="fill: #87ceeb; stroke: #87ceeb"/>
     <use xlink:href="#md01ca37dfc" x="114.970256" y="320.4" style="fill: #87ceeb; stroke: #87ceeb"/>
     <use xlink:href="#md01ca37dfc" x="117.030142" y="320.4" style="fill: #87ceeb; stroke: #87ceeb"/>
     <use xlink:href="#md01ca37dfc" x="119.090029" y="320.4" style="fill: #87ceeb; stroke: #87ceeb"/>
     <use xlink:href="#md01ca37dfc" x="121.149915" y="320.4" style="fill: #87ceeb; stroke: #87ceeb"/>
     <use xlink:href="#md01ca37dfc" x="123.209801" y="320.4" style="fill: #87ceeb; stroke: #87ceeb"/>
     <use xlink:href="#md01ca37dfc" x="125.269687" y="320.4" style="fill: #87ceeb; stroke: #87ceeb"/>
     <use xlink:href="#md01ca37dfc" x="127.329573" y="320.4" style="fill: #87ceeb; stroke: #87ceeb"/>
     <use xlink:href="#md01ca37dfc" x="129.38946" y="320.4" style="fill: #87ceeb; stroke: #87ceeb"/>
     <use xlink:href="#md01ca37dfc" x="131.449346" y="320.4" style="fill: #87ceeb; stroke: #87ceeb"/>
     <use xlink:href="#md01ca37dfc" x="133.509232" y="320.4" style="fill: #87ceeb; stroke: #87ceeb"/>
     <use xlink:href="#md01ca37dfc" x="135.569118" y="320.4" style="fill: #87ceeb; stroke: #87ceeb"/>
     <use xlink:href="#md01ca37dfc" x="137.629005" y="320.4" style="fill: #87ceeb; stroke: #87ceeb"/>
     <use xlink:href="#md01ca37dfc" x="139.688891" y="320.4" style="fill: #87ceeb; stroke: #87ceeb"/>
     <use xlink:href="#md01ca37dfc" x="141.748777" y="320.4" style="fill: #87ceeb; stroke: #87ceeb"/>
     <use xlink:href="#md01ca37dfc" x="143.808663" y="320.4" style="fill: #87ceeb; stroke: #87ceeb"/>
     <use xlink:href="#md01ca37dfc" x="145.868549" y="320.4" style="fill: #87ceeb; stroke: #87ceeb"/>
     <use xlink:href="#md01ca37dfc" x="147.928436" y="320.4" style="fill: #87ceeb; stroke: #87ceeb"/>
     <use xlink:href="#md01ca37dfc" x="149.988322" y="320.4" style="fill: #87ceeb; stroke: #87ceeb"/>
     <use xlink:href="#md01ca37dfc" x="152.048208" y="320.4" style="fill: #87ceeb; stroke: #87ceeb"/>
     <use xlink:href="#md01ca37dfc" x="154.108094" y="320.4" style="fill: #87ceeb; stroke: #87ceeb"/>
     <use xlink:href="#md01ca37dfc" x="156.16798" y="320.4" style="fill: #87ceeb; stroke: #87ceeb"/>
     <use xlink:href="#md01ca37dfc" x="158.227867" y="320.4" style="fill: #87ceeb; stroke: #87ceeb"/>
     <use xlink:href="#md01ca37dfc" x="160.287753" y="320.4" style="fill: #87ceeb; stroke: #87ceeb"/>
     <use xlink:href="#md01ca37dfc" x="162.347639" y="320.4" style="fill: #87ceeb; stroke: #87ceeb"/>
     <use xlink:href="#md01ca37dfc" x="164.407525" y="320.4" style="fill: #87ceeb; stroke: #87ceeb"/>
     <use xlink:href="#md01ca37dfc" x="166.467411" y="320.4" style="fill: #87ceeb; stroke: #87ceeb"/>
     <use xlink:href="#md01ca37dfc" x="168.527298" y="320.4" style="fill: #87ceeb; stroke: #87ceeb"/>
     <use xlink:href="#md01ca37dfc" x="170.587184" y="320.4" style="fill: #87ceeb; stroke: #87ceeb"/>
     <use xlink:href="#md01ca37dfc" x="172.64707" y="320.4" style="fill: #87ceeb; stroke: #87ceeb"/>
     <use xlink:href="#md01ca37dfc" x="174.706956" y="320.4" style="fill: #87ceeb; stroke: #87ceeb"/>
     <use xlink:href="#md01ca37dfc" x="176.766842" y="320.4" style="fill: #87ceeb; stroke: #87ceeb"/>
     <use xlink:href="#md01ca37dfc" x="178.826729" y="320.4" style="fill: #87ceeb; stroke: #87ceeb"/>
     <use xlink:href="#md01ca37dfc" x="180.886615" y="320.4" style="fill: #87ceeb; stroke: #87ceeb"/>
     <use xlink:href="#md01ca37dfc" x="182.946501" y="320.4" style="fill: #87ceeb; stroke: #87ceeb"/>
     <use xlink:href="#md01ca37dfc" x="185.006387" y="320.4" style="fill: #87ceeb; stroke: #87ceeb"/>
     <use xlink:href="#md01ca37dfc" x="187.066274" y="320.4" style="fill: #87ceeb; stroke: #87ceeb"/>
     <use xlink:href="#md01ca37dfc" x="189.12616" y="320.4" style="fill: #87ceeb; stroke: #87ceeb"/>
     <use xlink:href="#md01ca37dfc" x="191.186046" y="320.4" style="fill: #87ceeb; stroke: #87ceeb"/>
     <use xlink:href="#md01ca37dfc" x="193.245932" y="320.4" style="fill: #87ceeb; stroke: #87ceeb"/>
     <use xlink:href="#md01ca37dfc" x="195.305818" y="320.4" style="fill: #87ceeb; stroke: #87ceeb"/>
     <use xlink:href="#md01ca37dfc" x="197.365705" y="320.4" style="fill: #87ceeb; stroke: #87ceeb"/>
     <use xlink:href="#md01ca37dfc" x="199.425591" y="320.4" style="fill: #87ceeb; stroke: #87ceeb"/>
     <use xlink:href="#md01ca37dfc" x="201.485477" y="320.4" style="fill: #87ceeb; stroke: #87ceeb"/>
     <use xlink:href="#md01ca37dfc" x="203.545363" y="320.4" style="fill: #87ceeb; stroke: #87ceeb"/>
     <use xlink:href="#md01ca37dfc" x="205.605249" y="320.4" style="fill: #87ceeb; stroke: #87ceeb"/>
     <use xlink:href="#md01ca37dfc" x="207.665136" y="320.4" style="fill: #87ceeb; stroke: #87ceeb"/>
     <use xlink:href="#md01ca37dfc" x="209.725022" y="320.4" style="fill: #87ceeb; stroke: #87ceeb"/>
     <use xlink:href="#md01ca37dfc" x="211.784908" y="320.4" style="fill: #87ceeb; stroke: #87ceeb"/>
     <use xlink:href="#md01ca37dfc" x="213.844794" y="320.4" style="fill: #87ceeb; stroke: #87ceeb"/>
     <use xlink:href="#md01ca37dfc" x="215.90468" y="320.4" style="fill: #87ceeb; stroke: #87ceeb"/>
     <use xlink:href="#md01ca37dfc" x="217.964567" y="320.4" style="fill: #87ceeb; stroke: #87ceeb"/>
     <use xlink:href="#md01ca37dfc" x="220.024453" y="320.4" style="fill: #87ceeb; stroke: #87ceeb"/>
     <use xlink:href="#md01ca37dfc" x="222.084339" y="320.4" style="fill: #87ceeb; stroke: #87ceeb"/>
     <use xlink:href="#md01ca37dfc" x="224.144225" y="320.4" style="fill: #87ceeb; stroke: #87ceeb"/>
     <use xlink:href="#md01ca37dfc" x="226.204111" y="320.4" style="fill: #87ceeb; stroke: #87ceeb"/>
     <use xlink:href="#md01ca37dfc" x="228.263998" y="320.4" style="fill: #87ceeb; stroke: #87ceeb"/>
     <use xlink:href="#md01ca37dfc" x="230.323884" y="320.4" style="fill: #87ceeb; stroke: #87ceeb"/>
     <use xlink:href="#md01ca37dfc" x="232.38377" y="320.4" style="fill: #87ceeb; stroke: #87ceeb"/>
     <use xlink:href="#md01ca37dfc" x="234.443656" y="320.4" style="fill: #87ceeb; stroke: #87ceeb"/>
     <use xlink:href="#md01ca37dfc" x="236.503543" y="320.4" style="fill: #87ceeb; stroke: #87ceeb"/>
     <use xlink:href="#md01ca37dfc" x="238.563429" y="320.4" style="fill: #87ceeb; stroke: #87ceeb"/>
     <use xlink:href="#md01ca37dfc" x="240.623315" y="320.4" style="fill: #87ceeb; stroke: #87ceeb"/>
     <use xlink:href="#md01ca37dfc" x="242.683201" y="320.4" style="fill: #87ceeb; stroke: #87ceeb"/>
     <use xlink:href="#md01ca37dfc" x="244.743087" y="320.4" style="fill: #87ceeb; stroke: #87ceeb"/>
     <use xlink:href="#md01ca37dfc" x="246.802974" y="320.4" style="fill: #87ceeb; stroke: #87ceeb"/>
     <use xlink:href="#md01ca37dfc" x="248.86286" y="320.4" style="fill: #87ceeb; stroke: #87ceeb"/>
     <use xlink:href="#md01ca37dfc" x="250.922746" y="320.4" style="fill: #87ceeb; stroke: #87ceeb"/>
     <use xlink:href="#md01ca37dfc" x="252.982632" y="320.4" style="fill: #87ceeb; stroke: #87ceeb"/>
     <use xlink:href="#md01ca37dfc" x="255.042518" y="320.4" style="fill: #87ceeb; stroke: #87ceeb"/>
     <use xlink:href="#md01ca37dfc" x="257.102405" y="320.4" style="fill: #87ceeb; stroke: #87ceeb"/>
     <use xlink:href="#md01ca37dfc" x="259.162291" y="320.4" style="fill: #87ceeb; stroke: #87ceeb"/>
     <use xlink:href="#md01ca37dfc" x="261.222177" y="320.4" style="fill: #87ceeb; stroke: #87ceeb"/>
     <use xlink:href="#md01ca37dfc" x="263.282063" y="320.4" style="fill: #87ceeb; stroke: #87ceeb"/>
     <use xlink:href="#md01ca37dfc" x="265.341949" y="320.4" style="fill: #87ceeb; stroke: #87ceeb"/>
     <use xlink:href="#md01ca37dfc" x="267.401836" y="320.4" style="fill: #87ceeb; stroke: #87ceeb"/>
     <use xlink:href="#md01ca37dfc" x="269.461722" y="320.4" style="fill: #87ceeb; stroke: #87ceeb"/>
     <use xlink:href="#md01ca37dfc" x="271.521608" y="320.4" style="fill: #87ceeb; stroke: #87ceeb"/>
     <use xlink:href="#md01ca37dfc" x="273.581494" y="320.4" style="fill: #87ceeb; stroke: #87ceeb"/>
     <use xlink:href="#md01ca37dfc" x="275.64138" y="320.4" style="fill: #87ceeb; stroke: #87ceeb"/>
     <use xlink:href="#md01ca37dfc" x="277.701267" y="320.4" style="fill: #87ceeb; stroke: #87ceeb"/>
     <use xlink:href="#md01ca37dfc" x="279.761153" y="320.4" style="fill: #87ceeb; stroke: #87ceeb"/>
     <use xlink:href="#md01ca37dfc" x="281.821039" y="320.4" style="fill: #87ceeb; stroke: #87ceeb"/>
     <use xlink:href="#md01ca37dfc" x="283.880925" y="320.4" style="fill: #87ceeb; stroke: #87ceeb"/>
     <use xlink:href="#md01ca37dfc" x="285.940811" y="320.4" style="fill: #87ceeb; stroke: #87ceeb"/>
     <use xlink:href="#md01ca37dfc" x="288.000698" y="320.4" style="fill: #87ceeb; stroke: #87ceeb"/>
     <use xlink:href="#md01ca37dfc" x="290.060584" y="320.4" style="fill: #87ceeb; stroke: #87ceeb"/>
     <use xlink:href="#md01ca37dfc" x="292.12047" y="320.4" style="fill: #87ceeb; stroke: #87ceeb"/>
     <use xlink:href="#md01ca37dfc" x="294.180356" y="320.4" style="fill: #87ceeb; stroke: #87ceeb"/>
     <use xlink:href="#md01ca37dfc" x="296.240243" y="320.4" style="fill: #87ceeb; stroke: #87ceeb"/>
     <use xlink:href="#md01ca37dfc" x="298.300129" y="320.4" style="fill: #87ceeb; stroke: #87ceeb"/>
     <use xlink:href="#md01ca37dfc" x="300.360015" y="320.4" style="fill: #87ceeb; stroke: #87ceeb"/>
     <use xlink:href="#md01ca37dfc" x="302.419901" y="320.4" style="fill: #87ceeb; stroke: #87ceeb"/>
     <use xlink:href="#md01ca37dfc" x="304.479787" y="320.4" style="fill: #87ceeb; stroke: #87ceeb"/>
     <use xlink:href="#md01ca37dfc" x="306.539674" y="320.4" style="fill: #87ceeb; stroke: #87ceeb"/>
     <use xlink:href="#md01ca37dfc" x="308.59956" y="320.4" style="fill: #87ceeb; stroke: #87ceeb"/>
     <use xlink:href="#md01ca37dfc" x="310.659446" y="320.4" style="fill: #87ceeb; stroke: #87ceeb"/>
     <use xlink:href="#md01ca37dfc" x="312.719332" y="320.4" style="fill: #87ceeb; stroke: #87ceeb"/>
     <use xlink:href="#md01ca37dfc" x="314.779218" y="320.4" style="fill: #87ceeb; stroke: #87ceeb"/>
     <use xlink:href="#md01ca37dfc" x="316.839105" y="320.4" style="fill: #87ceeb; stroke: #87ceeb"/>
     <use xlink:href="#md01ca37dfc" x="318.898991" y="320.4" style="fill: #87ceeb; stroke: #87ceeb"/>
     <use xlink:href="#md01ca37dfc" x="320.958877" y="320.4" style="fill: #87ceeb; stroke: #87ceeb"/>
     <use xlink:href="#md01ca37dfc" x="323.018763" y="320.4" style="fill: #87ceeb; stroke: #87ceeb"/>
     <use xlink:href="#md01ca37dfc" x="325.078649" y="320.4" style="fill: #87ceeb; stroke: #87ceeb"/>
     <use xlink:href="#md01ca37dfc" x="327.138536" y="320.4" style="fill: #87ceeb; stroke: #87ceeb"/>
     <use xlink:href="#md01ca37dfc" x="329.198422" y="320.4" style="fill: #87ceeb; stroke: #87ceeb"/>
     <use xlink:href="#md01ca37dfc" x="331.258308" y="320.4" style="fill: #87ceeb; stroke: #87ceeb"/>
     <use xlink:href="#md01ca37dfc" x="333.318194" y="320.4" style="fill: #87ceeb; stroke: #87ceeb"/>
     <use xlink:href="#md01ca37dfc" x="335.37808" y="320.4" style="fill: #87ceeb; stroke: #87ceeb"/>
     <use xlink:href="#md01ca37dfc" x="337.437967" y="320.4" style="fill: #87ceeb; stroke: #87ceeb"/>
     <use xlink:href="#md01ca37dfc" x="339.497853" y="320.4" style="fill: #87ceeb; stroke: #87ceeb"/>
     <use xlink:href="#md01ca37dfc" x="341.557739" y="320.4" style="fill: #87ceeb; stroke: #87ceeb"/>
     <use xlink:href="#md01ca37dfc" x="343.617625" y="320.4" style="fill: #87ceeb; stroke: #87ceeb"/>
     <use xlink:href="#md01ca37dfc" x="345.677512" y="320.4" style="fill: #87ceeb; stroke: #87ceeb"/>
     <use xlink:href="#md01ca37dfc" x="347.737398" y="320.4" style="fill: #87ceeb; stroke: #87ceeb"/>
     <use xlink:href="#md01ca37dfc" x="349.797284" y="320.4" style="fill: #87ceeb; stroke: #87ceeb"/>
     <use xlink:href="#md01ca37dfc" x="351.85717" y="320.4" style="fill: #87ceeb; stroke: #87ceeb"/>
     <use xlink:href="#md01ca37dfc" x="353.917056" y="320.4" style="fill: #87ceeb; stroke: #87ceeb"/>
     <use xlink:href="#md01ca37dfc" x="355.976943" y="320.4" style="fill: #87ceeb; stroke: #87ceeb"/>
     <use xlink:href="#md01ca37dfc" x="358.036829" y="108.253582" style="fill: #87ceeb; stroke: #87ceeb"/>
     <use xlink:href="#md01ca37dfc" x="360.096715" y="109.390385" style="fill: #87ceeb; stroke: #87ceeb"/>
     <use xlink:href="#md01ca37dfc" x="362.156601" y="109.519919" style="fill: #87ceeb; stroke: #87ceeb"/>
     <use xlink:href="#md01ca37dfc" x="364.216487" y="109.221171" style="fill: #87ceeb; stroke: #87ceeb"/>
     <use xlink:href="#md01ca37dfc" x="366.276374" y="108.739753" style="fill: #87ceeb; stroke: #87ceeb"/>
     <use xlink:href="#md01ca37dfc" x="368.33626" y="108.146713" style="fill: #87ceeb; stroke: #87ceeb"/>
     <use xlink:href="#md01ca37dfc" x="370.396146" y="107.507438" style="fill: #87ceeb; stroke: #87ceeb"/>
     <use xlink:href="#md01ca37dfc" x="372.456032" y="106.834183" style="fill: #87ceeb; stroke: #87ceeb"/>
     <use xlink:href="#md01ca37dfc" x="374.515918" y="106.13373" style="fill: #87ceeb; stroke: #87ceeb"/>
     <use xlink:href="#md01ca37dfc" x="376.575805" y="105.418461" style="fill: #87ceeb; stroke: #87ceeb"/>
     <use xlink:href="#md01ca37dfc" x="378.635691" y="104.71633" style="fill: #87ceeb; stroke: #87ceeb"/>
     <use xlink:href="#md01ca37dfc" x="380.695577" y="104.008742" style="fill: #87ceeb; stroke: #87ceeb"/>
     <use xlink:href="#md01ca37dfc" x="382.755463" y="103.285502" style="fill: #87ceeb; stroke: #87ceeb"/>
     <use xlink:href="#md01ca37dfc" x="384.815349" y="102.572073" style="fill: #87ceeb; stroke: #87ceeb"/>
     <use xlink:href="#md01ca37dfc" x="386.875236" y="101.866152" style="fill: #87ceeb; stroke: #87ceeb"/>
     <use xlink:href="#md01ca37dfc" x="388.935122" y="101.158467" style="fill: #87ceeb; stroke: #87ceeb"/>
     <use xlink:href="#md01ca37dfc" x="390.995008" y="100.455474" style="fill: #87ceeb; stroke: #87ceeb"/>
     <use xlink:href="#md01ca37dfc" x="393.054894" y="99.765609" style="fill: #87ceeb; stroke: #87ceeb"/>
     <use xlink:href="#md01ca37dfc" x="395.114781" y="99.060359" style="fill: #87ceeb; stroke: #87ceeb"/>
     <use xlink:href="#md01ca37dfc" x="397.174667" y="98.373568" style="fill: #87ceeb; stroke: #87ceeb"/>
     <use xlink:href="#md01ca37dfc" x="399.234553" y="97.68175" style="fill: #87ceeb; stroke: #87ceeb"/>
     <use xlink:href="#md01ca37dfc" x="401.294439" y="96.997995" style="fill: #87ceeb; stroke: #87ceeb"/>
     <use xlink:href="#md01ca37dfc" x="403.354325" y="96.321435" style="fill: #87ceeb; stroke: #87ceeb"/>
     <use xlink:href="#md01ca37dfc" x="405.414212" y="95.639447" style="fill: #87ceeb; stroke: #87ceeb"/>
     <use xlink:href="#md01ca37dfc" x="407.474098" y="94.977348" style="fill: #87ceeb; stroke: #87ceeb"/>
     <use xlink:href="#md01ca37dfc" x="409.533984" y="94.304954" style="fill: #87ceeb; stroke: #87ceeb"/>
     <use xlink:href="#md01ca37dfc" x="411.59387" y="93.651534" style="fill: #87ceeb; stroke: #87ceeb"/>
     <use xlink:href="#md01ca37dfc" x="413.653756" y="92.988259" style="fill: #87ceeb; stroke: #87ceeb"/>
     <use xlink:href="#md01ca37dfc" x="415.713643" y="92.332629" style="fill: #87ceeb; stroke: #87ceeb"/>
     <use xlink:href="#md01ca37dfc" x="417.773529" y="91.677923" style="fill: #87ceeb; stroke: #87ceeb"/>
     <use xlink:href="#md01ca37dfc" x="419.833415" y="91.031685" style="fill: #87ceeb; stroke: #87ceeb"/>
     <use xlink:href="#md01ca37dfc" x="421.893301" y="90.381785" style="fill: #87ceeb; stroke: #87ceeb"/>
     <use xlink:href="#md01ca37dfc" x="423.953187" y="89.748767" style="fill: #87ceeb; stroke: #87ceeb"/>
     <use xlink:href="#md01ca37dfc" x="426.013074" y="89.110889" style="fill: #87ceeb; stroke: #87ceeb"/>
     <use xlink:href="#md01ca37dfc" x="428.07296" y="88.476514" style="fill: #87ceeb; stroke: #87ceeb"/>
     <use xlink:href="#md01ca37dfc" x="430.132846" y="87.84186" style="fill: #87ceeb; stroke: #87ceeb"/>
     <use xlink:href="#md01ca37dfc" x="432.192732" y="87.225556" style="fill: #87ceeb; stroke: #87ceeb"/>
     <use xlink:href="#md01ca37dfc" x="434.252618" y="86.606164" style="fill: #87ceeb; stroke: #87ceeb"/>
     <use xlink:href="#md01ca37dfc" x="436.312505" y="85.981395" style="fill: #87ceeb; stroke: #87ceeb"/>
     <use xlink:href="#md01ca37dfc" x="438.372391" y="85.363197" style="fill: #87ceeb; stroke: #87ceeb"/>
     <use xlink:href="#md01ca37dfc" x="440.432277" y="84.759662" style="fill: #87ceeb; stroke: #87ceeb"/>
     <use xlink:href="#md01ca37dfc" x="442.492163" y="84.144715" style="fill: #87ceeb; stroke: #87ceeb"/>
     <use xlink:href="#md01ca37dfc" x="444.55205" y="83.536234" style="fill: #87ceeb; stroke: #87ceeb"/>
     <use xlink:href="#md01ca37dfc" x="446.611936" y="82.937563" style="fill: #87ceeb; stroke: #87ceeb"/>
     <use xlink:href="#md01ca37dfc" x="448.671822" y="82.332367" style="fill: #87ceeb; stroke: #87ceeb"/>
     <use xlink:href="#md01ca37dfc" x="450.731708" y="81.733534" style="fill: #87ceeb; stroke: #87ceeb"/>
     <use xlink:href="#md01ca37dfc" x="452.791594" y="81.152503" style="fill: #87ceeb; stroke: #87ceeb"/>
     <use xlink:href="#md01ca37dfc" x="454.851481" y="80.55695" style="fill: #87ceeb; stroke: #87ceeb"/>
     <use xlink:href="#md01ca37dfc" x="456.911367" y="79.964297" style="fill: #87ceeb; stroke: #87ceeb"/>
     <use xlink:href="#md01ca37dfc" x="458.971253" y="79.380892" style="fill: #87ceeb; stroke: #87ceeb"/>
     <use xlink:href="#md01ca37dfc" x="461.031139" y="78.794931" style="fill: #87ceeb; stroke: #87ceeb"/>
     <use xlink:href="#md01ca37dfc" x="463.091025" y="78.210374" style="fill: #87ceeb; stroke: #87ceeb"/>
     <use xlink:href="#md01ca37dfc" x="465.150912" y="77.647512" style="fill: #87ceeb; stroke: #87ceeb"/>
     <use xlink:href="#md01ca37dfc" x="467.210798" y="77.058793" style="fill: #87ceeb; stroke: #87ceeb"/>
     <use xlink:href="#md01ca37dfc" x="469.270684" y="76.494907" style="fill: #87ceeb; stroke: #87ceeb"/>
     <use xlink:href="#md01ca37dfc" x="471.33057" y="75.916057" style="fill: #87ceeb; stroke: #87ceeb"/>
     <use xlink:href="#md01ca37dfc" x="473.390456" y="75.359259" style="fill: #87ceeb; stroke: #87ceeb"/>
     <use xlink:href="#md01ca37dfc" x="475.450343" y="74.793878" style="fill: #87ceeb; stroke: #87ceeb"/>
     <use xlink:href="#md01ca37dfc" x="477.510229" y="74.234443" style="fill: #87ceeb; stroke: #87ceeb"/>
     <use xlink:href="#md01ca37dfc" x="479.570115" y="73.663541" style="fill: #87ceeb; stroke: #87ceeb"/>
     <use xlink:href="#md01ca37dfc" x="481.630001" y="73.119956" style="fill: #87ceeb; stroke: #87ceeb"/>
     <use xlink:href="#md01ca37dfc" x="483.689887" y="72.558919" style="fill: #87ceeb; stroke: #87ceeb"/>
     <use xlink:href="#md01ca37dfc" x="485.749774" y="71.995331" style="fill: #87ceeb; stroke: #87ceeb"/>
     <use xlink:href="#md01ca37dfc" x="487.80966" y="71.461071" style="fill: #87ceeb; stroke: #87ceeb"/>
     <use xlink:href="#md01ca37dfc" x="489.869546" y="70.909294" style="fill: #87ceeb; stroke: #87ceeb"/>
     <use xlink:href="#md01ca37dfc" x="491.929432" y="70.36769" style="fill: #87ceeb; stroke: #87ceeb"/>
     <use xlink:href="#md01ca37dfc" x="493.989318" y="69.823729" style="fill: #87ceeb; stroke: #87ceeb"/>
     <use xlink:href="#md01ca37dfc" x="496.049205" y="69.275132" style="fill: #87ceeb; stroke: #87ceeb"/>
     <use xlink:href="#md01ca37dfc" x="498.109091" y="68.744848" style="fill: #87ceeb; stroke: #87ceeb"/>
    </g>
   </g>
   <g id="patch_3">
    <path d="M 72 320.4 
L 72 43.2 
" style="fill: none; stroke: #000000; stroke-width: 0.8; stroke-linejoin: miter; stroke-linecap: square"/>
   </g>
   <g id="patch_4">
    <path d="M 518.4 320.4 
L 518.4 43.2 
" style="fill: none; stroke: #000000; stroke-width: 0.8; stroke-linejoin: miter; stroke-linecap: square"/>
   </g>
   <g id="patch_5">
    <path d="M 72 320.4 
L 518.4 320.4 
" style="fill: none; stroke: #000000; stroke-width: 0.8; stroke-linejoin: miter; stroke-linecap: square"/>
   </g>
   <g id="patch_6">
    <path d="M 72 43.2 
L 518.4 43.2 
" style="fill: none; stroke: #000000; stroke-width: 0.8; stroke-linejoin: miter; stroke-linecap: square"/>
   </g>
   <g id="text_15">
    <!-- F-I curve, type 2 excitability -->
    <g transform="translate(211.505625 37.2) scale(0.12 -0.12)">
     <defs>
      <path id="DejaVuSans-46" d="M 628 4666 
L 3309 4666 
L 3309 4134 
L 1259 4134 
L 1259 2759 
L 3109 2759 
L 3109 2228 
L 1259 2228 
L 1259 0 
L 628 0 
L 628 4666 
z
" transform="scale(0.015625)"/>
      <path id="DejaVuSans-2d" d="M 313 2009 
L 1997 2009 
L 1997 1497 
L 313 1497 
L 313 2009 
z
" transform="scale(0.015625)"/>
      <path id="DejaVuSans-49" d="M 628 4666 
L 1259 4666 
L 1259 0 
L 628 0 
L 628 4666 
z
" transform="scale(0.015625)"/>
      <path id="DejaVuSans-76" d="M 191 3500 
L 800 3500 
L 1894 563 
L 2988 3500 
L 3597 3500 
L 2284 0 
L 1503 0 
L 191 3500 
z
" transform="scale(0.015625)"/>
      <path id="DejaVuSans-2c" d="M 750 794 
L 1409 794 
L 1409 256 
L 897 -744 
L 494 -744 
L 750 256 
L 750 794 
z
" transform="scale(0.015625)"/>
      <path id="DejaVuSans-78" d="M 3513 3500 
L 2247 1797 
L 3578 0 
L 2900 0 
L 1881 1375 
L 863 0 
L 184 0 
L 1544 1831 
L 300 3500 
L 978 3500 
L 1906 2253 
L 2834 3500 
L 3513 3500 
z
" transform="scale(0.015625)"/>
      <path id="DejaVuSans-62" d="M 3116 1747 
Q 3116 2381 2855 2742 
Q 2594 3103 2138 3103 
Q 1681 3103 1420 2742 
Q 1159 2381 1159 1747 
Q 1159 1113 1420 752 
Q 1681 391 2138 391 
Q 2594 391 2855 752 
Q 3116 1113 3116 1747 
z
M 1159 2969 
Q 1341 3281 1617 3432 
Q 1894 3584 2278 3584 
Q 2916 3584 3314 3078 
Q 3713 2572 3713 1747 
Q 3713 922 3314 415 
Q 2916 -91 2278 -91 
Q 1894 -91 1617 61 
Q 1341 213 1159 525 
L 1159 0 
L 581 0 
L 581 4863 
L 1159 4863 
L 1159 2969 
z
" transform="scale(0.015625)"/>
     </defs>
     <use xlink:href="#DejaVuSans-46"/>
     <use xlink:href="#DejaVuSans-2d" x="57.519531"/>
     <use xlink:href="#DejaVuSans-49" x="93.603516"/>
     <use xlink:href="#DejaVuSans-20" x="123.095703"/>
     <use xlink:href="#DejaVuSans-63" x="154.882812"/>
     <use xlink:href="#DejaVuSans-75" x="209.863281"/>
     <use xlink:href="#DejaVuSans-72" x="273.242188"/>
     <use xlink:href="#DejaVuSans-76" x="314.355469"/>
     <use xlink:href="#DejaVuSans-65" x="373.535156"/>
     <use xlink:href="#DejaVuSans-2c" x="435.058594"/>
     <use xlink:href="#DejaVuSans-20" x="466.845703"/>
     <use xlink:href="#DejaVuSans-74" x="498.632812"/>
     <use xlink:href="#DejaVuSans-79" x="537.841797"/>
     <use xlink:href="#DejaVuSans-70" x="597.021484"/>
     <use xlink:href="#DejaVuSans-65" x="660.498047"/>
     <use xlink:href="#DejaVuSans-20" x="722.021484"/>
     <use xlink:href="#DejaVuSans-32" x="753.808594"/>
     <use xlink:href="#DejaVuSans-20" x="817.431641"/>
     <use xlink:href="#DejaVuSans-65" x="849.21875"/>
     <use xlink:href="#DejaVuSans-78" x="908.992188"/>
     <use xlink:href="#DejaVuSans-63" x="966.421875"/>
     <use xlink:href="#DejaVuSans-69" x="1021.402344"/>
     <use xlink:href="#DejaVuSans-74" x="1049.185547"/>
     <use xlink:href="#DejaVuSans-61" x="1088.394531"/>
     <use xlink:href="#DejaVuSans-62" x="1149.673828"/>
     <use xlink:href="#DejaVuSans-69" x="1213.150391"/>
     <use xlink:href="#DejaVuSans-6c" x="1240.933594"/>
     <use xlink:href="#DejaVuSans-69" x="1268.716797"/>
     <use xlink:href="#DejaVuSans-74" x="1296.5"/>
     <use xlink:href="#DejaVuSans-79" x="1335.708984"/>
    </g>
   </g>
  </g>
 </g>
 <defs>
  <clipPath id="p03ac1881cb">
   <rect x="72" y="43.2" width="446.4" height="277.2"/>
  </clipPath>
 </defs>
</svg>
