<?xml version="1.0" encoding="utf-8" standalone="no"?>
<!DOCTYPE svg PUBLIC "-//W3C//DTD SVG 1.1//EN"
  "http://www.w3.org/Graphics/SVG/1.1/DTD/svg11.dtd">
<svg xmlns:xlink="http://www.w3.org/1999/xlink" width="1152pt" height="648pt" viewBox="0 0 1152 648" xmlns="http://www.w3.org/2000/svg" version="1.1">
 <metadata>
  <rdf:RDF xmlns:dc="http://purl.org/dc/elements/1.1/" xmlns:cc="http://creativecommons.org/ns#" xmlns:rdf="http://www.w3.org/1999/02/22-rdf-syntax-ns#">
   <cc:Work>
    <dc:type rdf:resource="http://purl.org/dc/dcmitype/StillImage"/>
    <dc:date>2023-09-20T02:14:44.810479</dc:date>
    <dc:format>image/svg+xml</dc:format>
    <dc:creator>
     <cc:Agent>
      <dc:title>Matplotlib v3.8.0, https://matplotlib.org/</dc:title>
     </cc:Agent>
    </dc:creator>
   </cc:Work>
  </rdf:RDF>
 </metadata>
 <defs>
  <style type="text/css">*{stroke-linejoin: round; stroke-linecap: butt}</style>
 </defs>
 <g id="figure_1">
  <g id="patch_1">
   <path d="M 0 648 
L 1152 648 
L 1152 0 
L 0 0 
z
" style="fill: #ffffff"/>
  </g>
  <g id="axes_1">
   <g id="patch_2">
    <path d="M 144 224.512941 
L 1036.8 224.512941 
L 1036.8 77.76 
L 144 77.76 
z
" style="fill: #ffffff"/>
   </g>
   <g id="matplotlib.axis_1">
    <g id="xtick_1">
     <g id="line2d_1">
      <defs>
       <path id="mb0fa0289f7" d="M 0 0 
L 0 3.5 
" style="stroke: #000000; stroke-width: 0.8"/>
      </defs>
      <g>
       <use xlink:href="#mb0fa0289f7" x="184.581818" y="224.512941" style="stroke: #000000; stroke-width: 0.8"/>
      </g>
     </g>
    </g>
    <g id="xtick_2">
     <g id="line2d_2">
      <g>
       <use xlink:href="#mb0fa0289f7" x="286.042705" y="224.512941" style="stroke: #000000; stroke-width: 0.8"/>
      </g>
     </g>
    </g>
    <g id="xtick_3">
     <g id="line2d_3">
      <g>
       <use xlink:href="#mb0fa0289f7" x="387.503592" y="224.512941" style="stroke: #000000; stroke-width: 0.8"/>
      </g>
     </g>
    </g>
    <g id="xtick_4">
     <g id="line2d_4">
      <g>
       <use xlink:href="#mb0fa0289f7" x="488.964478" y="224.512941" style="stroke: #000000; stroke-width: 0.8"/>
      </g>
     </g>
    </g>
    <g id="xtick_5">
     <g id="line2d_5">
      <g>
       <use xlink:href="#mb0fa0289f7" x="590.425365" y="224.512941" style="stroke: #000000; stroke-width: 0.8"/>
      </g>
     </g>
    </g>
    <g id="xtick_6">
     <g id="line2d_6">
      <g>
       <use xlink:href="#mb0fa0289f7" x="691.886252" y="224.512941" style="stroke: #000000; stroke-width: 0.8"/>
      </g>
     </g>
    </g>
    <g id="xtick_7">
     <g id="line2d_7">
      <g>
       <use xlink:href="#mb0fa0289f7" x="793.347139" y="224.512941" style="stroke: #000000; stroke-width: 0.8"/>
      </g>
     </g>
    </g>
    <g id="xtick_8">
     <g id="line2d_8">
      <g>
       <use xlink:href="#mb0fa0289f7" x="894.808026" y="224.512941" style="stroke: #000000; stroke-width: 0.8"/>
      </g>
     </g>
    </g>
    <g id="xtick_9">
     <g id="line2d_9">
      <g>
       <use xlink:href="#mb0fa0289f7" x="996.268912" y="224.512941" style="stroke: #000000; stroke-width: 0.8"/>
      </g>
     </g>
    </g>
   </g>
   <g id="matplotlib.axis_2">
    <g id="ytick_1">
     <g id="line2d_10">
      <defs>
       <path id="m9a573fb2a5" d="M 0 0 
L -3.5 0 
" style="stroke: #000000; stroke-width: 0.8"/>
      </defs>
      <g>
       <use xlink:href="#m9a573fb2a5" x="144" y="223.206744" style="stroke: #000000; stroke-width: 0.8"/>
      </g>
     </g>
     <g id="text_1">
      <!-- −80 -->
      <g transform="translate(115.895313 227.005963) scale(0.1 -0.1)">
       <defs>
        <path id="DejaVuSans-2212" d="M 678 2272 
L 4684 2272 
L 4684 1741 
L 678 1741 
L 678 2272 
z
" transform="scale(0.015625)"/>
        <path id="DejaVuSans-38" d="M 2034 2216 
Q 1584 2216 1326 1975 
Q 1069 1734 1069 1313 
Q 1069 891 1326 650 
Q 1584 409 2034 409 
Q 2484 409 2743 651 
Q 3003 894 3003 1313 
Q 3003 1734 2745 1975 
Q 2488 2216 2034 2216 
z
M 1403 2484 
Q 997 2584 770 2862 
Q 544 3141 544 3541 
Q 544 4100 942 4425 
Q 1341 4750 2034 4750 
Q 2731 4750 3128 4425 
Q 3525 4100 3525 3541 
Q 3525 3141 3298 2862 
Q 3072 2584 2669 2484 
Q 3125 2378 3379 2068 
Q 3634 1759 3634 1313 
Q 3634 634 3220 271 
Q 2806 -91 2034 -91 
Q 1263 -91 848 271 
Q 434 634 434 1313 
Q 434 1759 690 2068 
Q 947 2378 1403 2484 
z
M 1172 3481 
Q 1172 3119 1398 2916 
Q 1625 2713 2034 2713 
Q 2441 2713 2670 2916 
Q 2900 3119 2900 3481 
Q 2900 3844 2670 4047 
Q 2441 4250 2034 4250 
Q 1625 4250 1398 4047 
Q 1172 3844 1172 3481 
z
" transform="scale(0.015625)"/>
        <path id="DejaVuSans-30" d="M 2034 4250 
Q 1547 4250 1301 3770 
Q 1056 3291 1056 2328 
Q 1056 1369 1301 889 
Q 1547 409 2034 409 
Q 2525 409 2770 889 
Q 3016 1369 3016 2328 
Q 3016 3291 2770 3770 
Q 2525 4250 2034 4250 
z
M 2034 4750 
Q 2819 4750 3233 4129 
Q 3647 3509 3647 2328 
Q 3647 1150 3233 529 
Q 2819 -91 2034 -91 
Q 1250 -91 836 529 
Q 422 1150 422 2328 
Q 422 3509 836 4129 
Q 1250 4750 2034 4750 
z
" transform="scale(0.015625)"/>
       </defs>
       <use xlink:href="#DejaVuSans-2212"/>
       <use xlink:href="#DejaVuSans-38" x="83.789062"/>
       <use xlink:href="#DejaVuSans-30" x="147.412109"/>
      </g>
     </g>
    </g>
    <g id="ytick_2">
     <g id="line2d_11">
      <g>
       <use xlink:href="#m9a573fb2a5" x="144" y="192.072722" style="stroke: #000000; stroke-width: 0.8"/>
      </g>
     </g>
     <g id="text_2">
      <!-- −60 -->
      <g transform="translate(115.895313 195.871941) scale(0.1 -0.1)">
       <defs>
        <path id="DejaVuSans-36" d="M 2113 2584 
Q 1688 2584 1439 2293 
Q 1191 2003 1191 1497 
Q 1191 994 1439 701 
Q 1688 409 2113 409 
Q 2538 409 2786 701 
Q 3034 994 3034 1497 
Q 3034 2003 2786 2293 
Q 2538 2584 2113 2584 
z
M 3366 4563 
L 3366 3988 
Q 3128 4100 2886 4159 
Q 2644 4219 2406 4219 
Q 1781 4219 1451 3797 
Q 1122 3375 1075 2522 
Q 1259 2794 1537 2939 
Q 1816 3084 2150 3084 
Q 2853 3084 3261 2657 
Q 3669 2231 3669 1497 
Q 3669 778 3244 343 
Q 2819 -91 2113 -91 
Q 1303 -91 875 529 
Q 447 1150 447 2328 
Q 447 3434 972 4092 
Q 1497 4750 2381 4750 
Q 2619 4750 2861 4703 
Q 3103 4656 3366 4563 
z
" transform="scale(0.015625)"/>
       </defs>
       <use xlink:href="#DejaVuSans-2212"/>
       <use xlink:href="#DejaVuSans-36" x="83.789062"/>
       <use xlink:href="#DejaVuSans-30" x="147.412109"/>
      </g>
     </g>
    </g>
    <g id="ytick_3">
     <g id="line2d_12">
      <g>
       <use xlink:href="#m9a573fb2a5" x="144" y="160.938701" style="stroke: #000000; stroke-width: 0.8"/>
      </g>
     </g>
     <g id="text_3">
      <!-- −40 -->
      <g transform="translate(115.895313 164.737919) scale(0.1 -0.1)">
       <defs>
        <path id="DejaVuSans-34" d="M 2419 4116 
L 825 1625 
L 2419 1625 
L 2419 4116 
z
M 2253 4666 
L 3047 4666 
L 3047 1625 
L 3713 1625 
L 3713 1100 
L 3047 1100 
L 3047 0 
L 2419 0 
L 2419 1100 
L 313 1100 
L 313 1709 
L 2253 4666 
z
" transform="scale(0.015625)"/>
       </defs>
       <use xlink:href="#DejaVuSans-2212"/>
       <use xlink:href="#DejaVuSans-34" x="83.789062"/>
       <use xlink:href="#DejaVuSans-30" x="147.412109"/>
      </g>
     </g>
    </g>
    <g id="ytick_4">
     <g id="line2d_13">
      <g>
       <use xlink:href="#m9a573fb2a5" x="144" y="129.804679" style="stroke: #000000; stroke-width: 0.8"/>
      </g>
     </g>
     <g id="text_4">
      <!-- −20 -->
      <g transform="translate(115.895313 133.603897) scale(0.1 -0.1)">
       <defs>
        <path id="DejaVuSans-32" d="M 1228 531 
L 3431 531 
L 3431 0 
L 469 0 
L 469 531 
Q 828 903 1448 1529 
Q 2069 2156 2228 2338 
Q 2531 2678 2651 2914 
Q 2772 3150 2772 3378 
Q 2772 3750 2511 3984 
Q 2250 4219 1831 4219 
Q 1534 4219 1204 4116 
Q 875 4013 500 3803 
L 500 4441 
Q 881 4594 1212 4672 
Q 1544 4750 1819 4750 
Q 2544 4750 2975 4387 
Q 3406 4025 3406 3419 
Q 3406 3131 3298 2873 
Q 3191 2616 2906 2266 
Q 2828 2175 2409 1742 
Q 1991 1309 1228 531 
z
" transform="scale(0.015625)"/>
       </defs>
       <use xlink:href="#DejaVuSans-2212"/>
       <use xlink:href="#DejaVuSans-32" x="83.789062"/>
       <use xlink:href="#DejaVuSans-30" x="147.412109"/>
      </g>
     </g>
    </g>
    <g id="ytick_5">
     <g id="line2d_14">
      <g>
       <use xlink:href="#m9a573fb2a5" x="144" y="98.670657" style="stroke: #000000; stroke-width: 0.8"/>
      </g>
     </g>
     <g id="text_5">
      <!-- 0 -->
      <g transform="translate(130.6375 102.469875) scale(0.1 -0.1)">
       <use xlink:href="#DejaVuSans-30"/>
      </g>
     </g>
    </g>
    <g id="text_6">
     <!-- Vm [mv] -->
     <g transform="translate(109.815625 172.747408) rotate(-90) scale(0.1 -0.1)">
      <defs>
       <path id="DejaVuSans-56" d="M 1831 0 
L 50 4666 
L 709 4666 
L 2188 738 
L 3669 4666 
L 4325 4666 
L 2547 0 
L 1831 0 
z
" transform="scale(0.015625)"/>
       <path id="DejaVuSans-6d" d="M 3328 2828 
Q 3544 3216 3844 3400 
Q 4144 3584 4550 3584 
Q 5097 3584 5394 3201 
Q 5691 2819 5691 2113 
L 5691 0 
L 5113 0 
L 5113 2094 
Q 5113 2597 4934 2840 
Q 4756 3084 4391 3084 
Q 3944 3084 3684 2787 
Q 3425 2491 3425 1978 
L 3425 0 
L 2847 0 
L 2847 2094 
Q 2847 2600 2669 2842 
Q 2491 3084 2119 3084 
Q 1678 3084 1418 2786 
Q 1159 2488 1159 1978 
L 1159 0 
L 581 0 
L 581 3500 
L 1159 3500 
L 1159 2956 
Q 1356 3278 1631 3431 
Q 1906 3584 2284 3584 
Q 2666 3584 2933 3390 
Q 3200 3197 3328 2828 
z
" transform="scale(0.015625)"/>
       <path id="DejaVuSans-20" transform="scale(0.015625)"/>
       <path id="DejaVuSans-5b" d="M 550 4863 
L 1875 4863 
L 1875 4416 
L 1125 4416 
L 1125 -397 
L 1875 -397 
L 1875 -844 
L 550 -844 
L 550 4863 
z
" transform="scale(0.015625)"/>
       <path id="DejaVuSans-76" d="M 191 3500 
L 800 3500 
L 1894 563 
L 2988 3500 
L 3597 3500 
L 2284 0 
L 1503 0 
L 191 3500 
z
" transform="scale(0.015625)"/>
       <path id="DejaVuSans-5d" d="M 1947 4863 
L 1947 -844 
L 622 -844 
L 622 -397 
L 1369 -397 
L 1369 4416 
L 622 4416 
L 622 4863 
L 1947 4863 
z
" transform="scale(0.015625)"/>
      </defs>
      <use xlink:href="#DejaVuSans-56"/>
      <use xlink:href="#DejaVuSans-6d" x="68.408203"/>
      <use xlink:href="#DejaVuSans-20" x="165.820312"/>
      <use xlink:href="#DejaVuSans-5b" x="197.607422"/>
      <use xlink:href="#DejaVuSans-6d" x="236.621094"/>
      <use xlink:href="#DejaVuSans-76" x="334.033203"/>
      <use xlink:href="#DejaVuSans-5d" x="393.212891"/>
     </g>
    </g>
   </g>
   <g id="line2d_15">
    <path d="M 184.581818 197.988187 
L 212.382101 197.9966 
L 285.890514 197.915298 
L 286.093435 197.57326 
L 286.499279 196.109782 
L 288.021192 190.779555 
L 288.274844 190.514816 
L 288.629958 190.65949 
L 289.543106 191.302088 
L 290.608445 192.325126 
L 294.514689 196.401092 
L 295.630759 197.045313 
L 296.848289 197.478778 
L 298.370203 197.764862 
L 300.602342 197.929653 
L 305.218813 197.992587 
L 349.202107 197.9966 
L 407.643578 197.915298 
L 407.846499 197.57326 
L 408.252343 196.109782 
L 409.774256 190.779555 
L 410.027909 190.514816 
L 410.383022 190.65949 
L 411.3469 191.341441 
L 411.752744 191.565313 
L 411.904935 191.391728 
L 412.158587 190.611691 
L 412.767353 187.790139 
L 413.223926 184.634239 
L 413.57904 180.69119 
L 413.883422 174.94923 
L 414.137074 165.88712 
L 414.339996 148.539112 
L 414.79657 84.449321 
L 414.847301 84.929718 
L 415.100953 90.735845 
L 416.014101 118.414941 
L 416.318484 133.458418 
L 416.572136 156.374432 
L 417.07944 209.210998 
L 417.333092 215.989237 
L 417.586745 217.705745 
L 417.738936 217.81999 
L 418.043319 217.563917 
L 418.347701 217.105912 
L 418.855006 215.650055 
L 420.021806 211.531795 
L 420.934954 207.266028 
L 421.797371 204.504965 
L 422.051024 204.113007 
L 422.304676 204.145675 
L 422.609059 204.146683 
L 423.014902 203.896816 
L 423.725128 203.127155 
L 423.97878 202.654018 
L 424.333894 201.258686 
L 425.09485 198.39639 
L 425.906537 196.132039 
L 426.109459 195.940786 
L 426.312381 196.114596 
L 427.225529 197.261737 
L 427.935755 197.767759 
L 428.747442 198.066887 
L 429.812781 198.208466 
L 431.689808 198.194443 
L 439.299374 198.01048 
L 460.809082 197.996601 
L 519.250553 197.915298 
L 519.453475 197.57326 
L 519.859318 196.109782 
L 521.381232 190.779555 
L 521.634884 190.514816 
L 521.989997 190.65949 
L 522.903145 191.302088 
L 523.968484 192.325126 
L 525.439667 193.810895 
L 525.591859 193.60192 
L 525.946972 192.507832 
L 526.758659 189.324352 
L 527.316694 186.249704 
L 528.229842 179.860931 
L 528.534224 175.002926 
L 528.787877 166.553765 
L 528.990798 150.339766 
L 529.19372 107.227188 
L 529.396642 84.788307 
L 529.447372 84.430588 
L 529.498103 84.771118 
L 529.701024 89.043661 
L 530.563442 114.457135 
L 530.918555 130.917479 
L 531.172207 152.747951 
L 531.730242 210.738753 
L 531.983894 216.491238 
L 532.186816 217.715409 
L 532.339008 217.834721 
L 532.491199 217.624611 
L 532.846312 216.586057 
L 533.75946 213.73338 
L 534.165304 213.009219 
L 534.976991 210.819696 
L 536.397443 207.156705 
L 537.817895 203.658235 
L 538.629583 200.279838 
L 539.44127 197.90695 
L 539.694922 197.517313 
L 539.847113 197.56206 
L 541.064644 198.717001 
L 541.72414 198.884271 
L 542.637288 198.868642 
L 543.550436 198.690117 
L 543.753357 198.405595 
L 544.05774 197.373056 
L 545.17381 193.390334 
L 545.833305 191.518324 
L 546.036227 191.518489 
L 546.594262 192.037499 
L 548.116175 193.786637 
L 549.79028 195.618995 
L 550.90635 196.515192 
L 552.02242 197.120951 
L 553.23995 197.5234 
L 554.812594 197.792124 
L 557.196925 197.94314 
L 562.523621 197.99476 
L 649.424871 197.9966 
L 665.35423 197.915298 
L 665.557152 197.57326 
L 665.962995 196.109782 
L 667.484909 190.779555 
L 667.738561 190.514816 
L 668.093674 190.65949 
L 669.006822 191.302088 
L 670.072161 192.325126 
L 673.978405 196.401092 
L 675.094475 197.045313 
L 676.312006 197.478778 
L 677.833919 197.764862 
L 680.015328 197.924857 
L 680.370441 197.859018 
L 680.573363 197.522956 
L 680.979207 196.06796 
L 682.50112 190.739621 
L 682.754772 190.471265 
L 683.109885 190.61013 
L 684.023033 191.236369 
L 685.088373 192.242362 
L 686.965399 194.409749 
L 688.335121 195.818684 
L 689.451191 196.65306 
L 690.56726 197.207592 
L 691.835522 197.583122 
L 693.509626 197.828295 
L 695.335922 197.886972 
L 695.538844 197.640545 
L 695.843227 196.650141 
L 697.41587 191.01072 
L 697.669523 190.507365 
L 697.872444 190.489697 
L 698.53194 190.857476 
L 699.546549 191.677905 
L 700.76408 192.975645 
L 703.351332 195.815704 
L 704.467402 196.650996 
L 705.583472 197.206289 
L 706.851733 197.582402 
L 708.525837 197.82799 
L 710.352133 197.886858 
L 710.555055 197.640443 
L 710.859438 196.650053 
L 712.432082 191.010641 
L 712.685734 190.507279 
L 712.888656 190.489604 
L 713.548151 190.85736 
L 714.56276 191.677751 
L 715.780291 192.975459 
L 718.367543 195.815565 
L 719.483613 196.6509 
L 720.599683 197.206228 
L 721.867944 197.582369 
L 723.542049 197.827975 
L 725.368345 197.886853 
L 725.571266 197.640438 
L 725.875649 196.650049 
L 727.448293 191.010637 
L 727.701945 190.507275 
L 727.904867 190.4896 
L 728.564363 190.857355 
L 729.578971 191.677743 
L 730.796502 192.97545 
L 733.383755 195.815559 
L 734.499824 196.650896 
L 735.615894 197.206225 
L 736.884155 197.582367 
L 738.55826 197.827975 
L 741.196243 197.958825 
L 747.994122 197.996228 
L 793.194947 198.077875 
L 793.397869 198.418806 
L 793.905174 200.163405 
L 794.513939 201.735134 
L 795.071974 202.575034 
L 795.274896 202.680826 
L 795.427087 202.540985 
L 795.7822 201.678389 
L 796.390965 200.451522 
L 797.050461 199.627455 
L 797.811418 199.039712 
L 798.724566 198.618831 
L 799.942096 198.31378 
L 801.717662 198.115885 
L 804.96441 198.015669 
L 816.886064 197.996589 
L 894.655834 198.077875 
L 894.858756 198.418806 
L 895.36606 200.163405 
L 895.974826 201.735134 
L 896.532861 202.575034 
L 896.735782 202.680826 
L 896.887974 202.540985 
L 897.243087 201.678389 
L 897.851852 200.451522 
L 898.511348 199.627455 
L 899.272305 199.039712 
L 900.185452 198.618831 
L 901.402983 198.31378 
L 903.178549 198.115885 
L 904.852653 197.911418 
L 905.055575 197.471293 
L 905.968723 194.115926 
L 907.084793 190.588211 
L 907.287715 190.576615 
L 907.94721 190.96625 
L 908.961819 191.821178 
L 910.280811 193.264521 
L 912.46222 195.669664 
L 913.57829 196.547922 
L 914.694359 197.140201 
L 915.91189 197.533382 
L 917.484534 197.79603 
L 919.868865 197.943918 
L 925.246292 197.994806 
L 996.218182 197.9966 
L 996.218182 197.9966 
" clip-path="url(#p13b357c5e1)" style="fill: none; stroke: #ffa500; stroke-width: 1.5; stroke-linecap: square"/>
   </g>
   <g id="patch_3">
    <path d="M 144 224.512941 
L 144 77.76 
" style="fill: none; stroke: #000000; stroke-width: 0.8; stroke-linejoin: miter; stroke-linecap: square"/>
   </g>
   <g id="patch_4">
    <path d="M 1036.8 224.512941 
L 1036.8 77.76 
" style="fill: none; stroke: #000000; stroke-width: 0.8; stroke-linejoin: miter; stroke-linecap: square"/>
   </g>
   <g id="patch_5">
    <path d="M 144 224.512941 
L 1036.8 224.512941 
" style="fill: none; stroke: #000000; stroke-width: 0.8; stroke-linejoin: miter; stroke-linecap: square"/>
   </g>
   <g id="patch_6">
    <path d="M 144 77.76 
L 1036.8 77.76 
" style="fill: none; stroke: #000000; stroke-width: 0.8; stroke-linejoin: miter; stroke-linecap: square"/>
   </g>
   <g id="legend_1">
    <g id="patch_7">
     <path d="M 151 100.438125 
L 267.670313 100.438125 
Q 269.670313 100.438125 269.670313 98.438125 
L 269.670313 84.76 
Q 269.670313 82.76 267.670313 82.76 
L 151 82.76 
Q 149 82.76 149 84.76 
L 149 98.438125 
Q 149 100.438125 151 100.438125 
z
" style="fill: #ffffff; opacity: 0.8; stroke: #cccccc; stroke-linejoin: miter"/>
    </g>
    <g id="line2d_16">
     <path d="M 153 90.858438 
L 163 90.858438 
L 173 90.858438 
" style="fill: none; stroke: #ffa500; stroke-width: 1.5; stroke-linecap: square"/>
    </g>
    <g id="text_7">
     <!-- integrator (SNIC) -->
     <g transform="translate(181 94.358438) scale(0.1 -0.1)">
      <defs>
       <path id="DejaVuSans-69" d="M 603 3500 
L 1178 3500 
L 1178 0 
L 603 0 
L 603 3500 
z
M 603 4863 
L 1178 4863 
L 1178 4134 
L 603 4134 
L 603 4863 
z
" transform="scale(0.015625)"/>
       <path id="DejaVuSans-6e" d="M 3513 2113 
L 3513 0 
L 2938 0 
L 2938 2094 
Q 2938 2591 2744 2837 
Q 2550 3084 2163 3084 
Q 1697 3084 1428 2787 
Q 1159 2491 1159 1978 
L 1159 0 
L 581 0 
L 581 3500 
L 1159 3500 
L 1159 2956 
Q 1366 3272 1645 3428 
Q 1925 3584 2291 3584 
Q 2894 3584 3203 3211 
Q 3513 2838 3513 2113 
z
" transform="scale(0.015625)"/>
       <path id="DejaVuSans-74" d="M 1172 4494 
L 1172 3500 
L 2356 3500 
L 2356 3053 
L 1172 3053 
L 1172 1153 
Q 1172 725 1289 603 
Q 1406 481 1766 481 
L 2356 481 
L 2356 0 
L 1766 0 
Q 1100 0 847 248 
Q 594 497 594 1153 
L 594 3053 
L 172 3053 
L 172 3500 
L 594 3500 
L 594 4494 
L 1172 4494 
z
" transform="scale(0.015625)"/>
       <path id="DejaVuSans-65" d="M 3597 1894 
L 3597 1613 
L 953 1613 
Q 991 1019 1311 708 
Q 1631 397 2203 397 
Q 2534 397 2845 478 
Q 3156 559 3463 722 
L 3463 178 
Q 3153 47 2828 -22 
Q 2503 -91 2169 -91 
Q 1331 -91 842 396 
Q 353 884 353 1716 
Q 353 2575 817 3079 
Q 1281 3584 2069 3584 
Q 2775 3584 3186 3129 
Q 3597 2675 3597 1894 
z
M 3022 2063 
Q 3016 2534 2758 2815 
Q 2500 3097 2075 3097 
Q 1594 3097 1305 2825 
Q 1016 2553 972 2059 
L 3022 2063 
z
" transform="scale(0.015625)"/>
       <path id="DejaVuSans-67" d="M 2906 1791 
Q 2906 2416 2648 2759 
Q 2391 3103 1925 3103 
Q 1463 3103 1205 2759 
Q 947 2416 947 1791 
Q 947 1169 1205 825 
Q 1463 481 1925 481 
Q 2391 481 2648 825 
Q 2906 1169 2906 1791 
z
M 3481 434 
Q 3481 -459 3084 -895 
Q 2688 -1331 1869 -1331 
Q 1566 -1331 1297 -1286 
Q 1028 -1241 775 -1147 
L 775 -588 
Q 1028 -725 1275 -790 
Q 1522 -856 1778 -856 
Q 2344 -856 2625 -561 
Q 2906 -266 2906 331 
L 2906 616 
Q 2728 306 2450 153 
Q 2172 0 1784 0 
Q 1141 0 747 490 
Q 353 981 353 1791 
Q 353 2603 747 3093 
Q 1141 3584 1784 3584 
Q 2172 3584 2450 3431 
Q 2728 3278 2906 2969 
L 2906 3500 
L 3481 3500 
L 3481 434 
z
" transform="scale(0.015625)"/>
       <path id="DejaVuSans-72" d="M 2631 2963 
Q 2534 3019 2420 3045 
Q 2306 3072 2169 3072 
Q 1681 3072 1420 2755 
Q 1159 2438 1159 1844 
L 1159 0 
L 581 0 
L 581 3500 
L 1159 3500 
L 1159 2956 
Q 1341 3275 1631 3429 
Q 1922 3584 2338 3584 
Q 2397 3584 2469 3576 
Q 2541 3569 2628 3553 
L 2631 2963 
z
" transform="scale(0.015625)"/>
       <path id="DejaVuSans-61" d="M 2194 1759 
Q 1497 1759 1228 1600 
Q 959 1441 959 1056 
Q 959 750 1161 570 
Q 1363 391 1709 391 
Q 2188 391 2477 730 
Q 2766 1069 2766 1631 
L 2766 1759 
L 2194 1759 
z
M 3341 1997 
L 3341 0 
L 2766 0 
L 2766 531 
Q 2569 213 2275 61 
Q 1981 -91 1556 -91 
Q 1019 -91 701 211 
Q 384 513 384 1019 
Q 384 1609 779 1909 
Q 1175 2209 1959 2209 
L 2766 2209 
L 2766 2266 
Q 2766 2663 2505 2880 
Q 2244 3097 1772 3097 
Q 1472 3097 1187 3025 
Q 903 2953 641 2809 
L 641 3341 
Q 956 3463 1253 3523 
Q 1550 3584 1831 3584 
Q 2591 3584 2966 3190 
Q 3341 2797 3341 1997 
z
" transform="scale(0.015625)"/>
       <path id="DejaVuSans-6f" d="M 1959 3097 
Q 1497 3097 1228 2736 
Q 959 2375 959 1747 
Q 959 1119 1226 758 
Q 1494 397 1959 397 
Q 2419 397 2687 759 
Q 2956 1122 2956 1747 
Q 2956 2369 2687 2733 
Q 2419 3097 1959 3097 
z
M 1959 3584 
Q 2709 3584 3137 3096 
Q 3566 2609 3566 1747 
Q 3566 888 3137 398 
Q 2709 -91 1959 -91 
Q 1206 -91 779 398 
Q 353 888 353 1747 
Q 353 2609 779 3096 
Q 1206 3584 1959 3584 
z
" transform="scale(0.015625)"/>
       <path id="DejaVuSans-28" d="M 1984 4856 
Q 1566 4138 1362 3434 
Q 1159 2731 1159 2009 
Q 1159 1288 1364 580 
Q 1569 -128 1984 -844 
L 1484 -844 
Q 1016 -109 783 600 
Q 550 1309 550 2009 
Q 550 2706 781 3412 
Q 1013 4119 1484 4856 
L 1984 4856 
z
" transform="scale(0.015625)"/>
       <path id="DejaVuSans-53" d="M 3425 4513 
L 3425 3897 
Q 3066 4069 2747 4153 
Q 2428 4238 2131 4238 
Q 1616 4238 1336 4038 
Q 1056 3838 1056 3469 
Q 1056 3159 1242 3001 
Q 1428 2844 1947 2747 
L 2328 2669 
Q 3034 2534 3370 2195 
Q 3706 1856 3706 1288 
Q 3706 609 3251 259 
Q 2797 -91 1919 -91 
Q 1588 -91 1214 -16 
Q 841 59 441 206 
L 441 856 
Q 825 641 1194 531 
Q 1563 422 1919 422 
Q 2459 422 2753 634 
Q 3047 847 3047 1241 
Q 3047 1584 2836 1778 
Q 2625 1972 2144 2069 
L 1759 2144 
Q 1053 2284 737 2584 
Q 422 2884 422 3419 
Q 422 4038 858 4394 
Q 1294 4750 2059 4750 
Q 2388 4750 2728 4690 
Q 3069 4631 3425 4513 
z
" transform="scale(0.015625)"/>
       <path id="DejaVuSans-4e" d="M 628 4666 
L 1478 4666 
L 3547 763 
L 3547 4666 
L 4159 4666 
L 4159 0 
L 3309 0 
L 1241 3903 
L 1241 0 
L 628 0 
L 628 4666 
z
" transform="scale(0.015625)"/>
       <path id="DejaVuSans-49" d="M 628 4666 
L 1259 4666 
L 1259 0 
L 628 0 
L 628 4666 
z
" transform="scale(0.015625)"/>
       <path id="DejaVuSans-43" d="M 4122 4306 
L 4122 3641 
Q 3803 3938 3442 4084 
Q 3081 4231 2675 4231 
Q 1875 4231 1450 3742 
Q 1025 3253 1025 2328 
Q 1025 1406 1450 917 
Q 1875 428 2675 428 
Q 3081 428 3442 575 
Q 3803 722 4122 1019 
L 4122 359 
Q 3791 134 3420 21 
Q 3050 -91 2638 -91 
Q 1578 -91 968 557 
Q 359 1206 359 2328 
Q 359 3453 968 4101 
Q 1578 4750 2638 4750 
Q 3056 4750 3426 4639 
Q 3797 4528 4122 4306 
z
" transform="scale(0.015625)"/>
       <path id="DejaVuSans-29" d="M 513 4856 
L 1013 4856 
Q 1481 4119 1714 3412 
Q 1947 2706 1947 2009 
Q 1947 1309 1714 600 
Q 1481 -109 1013 -844 
L 513 -844 
Q 928 -128 1133 580 
Q 1338 1288 1338 2009 
Q 1338 2731 1133 3434 
Q 928 4138 513 4856 
z
" transform="scale(0.015625)"/>
      </defs>
      <use xlink:href="#DejaVuSans-69"/>
      <use xlink:href="#DejaVuSans-6e" x="27.783203"/>
      <use xlink:href="#DejaVuSans-74" x="91.162109"/>
      <use xlink:href="#DejaVuSans-65" x="130.371094"/>
      <use xlink:href="#DejaVuSans-67" x="191.894531"/>
      <use xlink:href="#DejaVuSans-72" x="255.371094"/>
      <use xlink:href="#DejaVuSans-61" x="296.484375"/>
      <use xlink:href="#DejaVuSans-74" x="357.763672"/>
      <use xlink:href="#DejaVuSans-6f" x="396.972656"/>
      <use xlink:href="#DejaVuSans-72" x="458.154297"/>
      <use xlink:href="#DejaVuSans-20" x="499.267578"/>
      <use xlink:href="#DejaVuSans-28" x="531.054688"/>
      <use xlink:href="#DejaVuSans-53" x="570.068359"/>
      <use xlink:href="#DejaVuSans-4e" x="633.544922"/>
      <use xlink:href="#DejaVuSans-49" x="708.349609"/>
      <use xlink:href="#DejaVuSans-43" x="737.841797"/>
      <use xlink:href="#DejaVuSans-29" x="807.666016"/>
     </g>
    </g>
   </g>
  </g>
  <g id="axes_2">
   <g id="patch_8">
    <path d="M 144 400.616471 
L 1036.8 400.616471 
L 1036.8 253.863529 
L 144 253.863529 
z
" style="fill: #ffffff"/>
   </g>
   <g id="matplotlib.axis_3">
    <g id="xtick_10">
     <g id="line2d_17">
      <g>
       <use xlink:href="#mb0fa0289f7" x="184.581818" y="400.616471" style="stroke: #000000; stroke-width: 0.8"/>
      </g>
     </g>
    </g>
    <g id="xtick_11">
     <g id="line2d_18">
      <g>
       <use xlink:href="#mb0fa0289f7" x="286.042705" y="400.616471" style="stroke: #000000; stroke-width: 0.8"/>
      </g>
     </g>
    </g>
    <g id="xtick_12">
     <g id="line2d_19">
      <g>
       <use xlink:href="#mb0fa0289f7" x="387.503592" y="400.616471" style="stroke: #000000; stroke-width: 0.8"/>
      </g>
     </g>
    </g>
    <g id="xtick_13">
     <g id="line2d_20">
      <g>
       <use xlink:href="#mb0fa0289f7" x="488.964478" y="400.616471" style="stroke: #000000; stroke-width: 0.8"/>
      </g>
     </g>
    </g>
    <g id="xtick_14">
     <g id="line2d_21">
      <g>
       <use xlink:href="#mb0fa0289f7" x="590.425365" y="400.616471" style="stroke: #000000; stroke-width: 0.8"/>
      </g>
     </g>
    </g>
    <g id="xtick_15">
     <g id="line2d_22">
      <g>
       <use xlink:href="#mb0fa0289f7" x="691.886252" y="400.616471" style="stroke: #000000; stroke-width: 0.8"/>
      </g>
     </g>
    </g>
    <g id="xtick_16">
     <g id="line2d_23">
      <g>
       <use xlink:href="#mb0fa0289f7" x="793.347139" y="400.616471" style="stroke: #000000; stroke-width: 0.8"/>
      </g>
     </g>
    </g>
    <g id="xtick_17">
     <g id="line2d_24">
      <g>
       <use xlink:href="#mb0fa0289f7" x="894.808026" y="400.616471" style="stroke: #000000; stroke-width: 0.8"/>
      </g>
     </g>
    </g>
    <g id="xtick_18">
     <g id="line2d_25">
      <g>
       <use xlink:href="#mb0fa0289f7" x="996.268912" y="400.616471" style="stroke: #000000; stroke-width: 0.8"/>
      </g>
     </g>
    </g>
   </g>
   <g id="matplotlib.axis_4">
    <g id="ytick_6">
     <g id="line2d_26">
      <g>
       <use xlink:href="#m9a573fb2a5" x="144" y="398.37959" style="stroke: #000000; stroke-width: 0.8"/>
      </g>
     </g>
     <g id="text_8">
      <!-- −80 -->
      <g transform="translate(115.895313 402.178809) scale(0.1 -0.1)">
       <use xlink:href="#DejaVuSans-2212"/>
       <use xlink:href="#DejaVuSans-38" x="83.789062"/>
       <use xlink:href="#DejaVuSans-30" x="147.412109"/>
      </g>
     </g>
    </g>
    <g id="ytick_7">
     <g id="line2d_27">
      <g>
       <use xlink:href="#m9a573fb2a5" x="144" y="362.904289" style="stroke: #000000; stroke-width: 0.8"/>
      </g>
     </g>
     <g id="text_9">
      <!-- −60 -->
      <g transform="translate(115.895313 366.703508) scale(0.1 -0.1)">
       <use xlink:href="#DejaVuSans-2212"/>
       <use xlink:href="#DejaVuSans-36" x="83.789062"/>
       <use xlink:href="#DejaVuSans-30" x="147.412109"/>
      </g>
     </g>
    </g>
    <g id="ytick_8">
     <g id="line2d_28">
      <g>
       <use xlink:href="#m9a573fb2a5" x="144" y="327.428988" style="stroke: #000000; stroke-width: 0.8"/>
      </g>
     </g>
     <g id="text_10">
      <!-- −40 -->
      <g transform="translate(115.895313 331.228207) scale(0.1 -0.1)">
       <use xlink:href="#DejaVuSans-2212"/>
       <use xlink:href="#DejaVuSans-34" x="83.789062"/>
       <use xlink:href="#DejaVuSans-30" x="147.412109"/>
      </g>
     </g>
    </g>
    <g id="ytick_9">
     <g id="line2d_29">
      <g>
       <use xlink:href="#m9a573fb2a5" x="144" y="291.953687" style="stroke: #000000; stroke-width: 0.8"/>
      </g>
     </g>
     <g id="text_11">
      <!-- −20 -->
      <g transform="translate(115.895313 295.752905) scale(0.1 -0.1)">
       <use xlink:href="#DejaVuSans-2212"/>
       <use xlink:href="#DejaVuSans-32" x="83.789062"/>
       <use xlink:href="#DejaVuSans-30" x="147.412109"/>
      </g>
     </g>
    </g>
    <g id="ytick_10">
     <g id="line2d_30">
      <g>
       <use xlink:href="#m9a573fb2a5" x="144" y="256.478385" style="stroke: #000000; stroke-width: 0.8"/>
      </g>
     </g>
     <g id="text_12">
      <!-- 0 -->
      <g transform="translate(130.6375 260.277604) scale(0.1 -0.1)">
       <use xlink:href="#DejaVuSans-30"/>
      </g>
     </g>
    </g>
    <g id="text_13">
     <!-- Vm [mv] -->
     <g transform="translate(109.815625 348.850938) rotate(-90) scale(0.1 -0.1)">
      <use xlink:href="#DejaVuSans-56"/>
      <use xlink:href="#DejaVuSans-6d" x="68.408203"/>
      <use xlink:href="#DejaVuSans-20" x="165.820312"/>
      <use xlink:href="#DejaVuSans-5b" x="197.607422"/>
      <use xlink:href="#DejaVuSans-6d" x="236.621094"/>
      <use xlink:href="#DejaVuSans-76" x="334.033203"/>
      <use xlink:href="#DejaVuSans-5d" x="393.212891"/>
     </g>
    </g>
   </g>
   <g id="line2d_31">
    <path d="M 184.581818 352.084322 
L 186.053001 353.547288 
L 187.270532 354.599709 
L 188.18368 355.111251 
L 189.046097 355.353803 
L 190.009976 355.384337 
L 191.176776 355.175505 
L 193.205994 354.528382 
L 195.235211 353.966835 
L 196.757125 353.774366 
L 198.431229 353.798698 
L 201.424325 354.129253 
L 204.062308 354.307472 
L 207.004674 354.259252 
L 213.143058 354.118328 
L 232.927931 354.168243 
L 285.839783 354.106579 
L 285.991974 353.916289 
L 286.194896 353.24803 
L 286.752931 350.130559 
L 287.615349 344.144949 
L 288.376305 338.843399 
L 288.88361 337.093841 
L 289.187992 336.63564 
L 289.340184 336.662945 
L 289.543106 337.046445 
L 289.796758 338.196507 
L 290.151871 341.187983 
L 290.760636 348.969933 
L 291.572323 358.691643 
L 292.130358 362.914482 
L 292.637663 365.167174 
L 293.094237 366.227351 
L 293.44935 366.583336 
L 293.804463 366.631292 
L 294.159576 366.444323 
L 294.66688 365.881077 
L 295.377107 364.712171 
L 296.645368 362.107411 
L 299.384812 356.43724 
L 300.653073 354.326855 
L 301.667682 353.039237 
L 302.479369 352.331155 
L 303.189595 351.97745 
L 303.849091 351.879027 
L 304.559317 352.006783 
L 305.371004 352.396919 
L 306.639265 353.299261 
L 308.31337 354.435944 
L 309.378709 354.882569 
L 310.393318 355.067361 
L 311.509388 355.041252 
L 313.031301 354.757666 
L 316.886815 353.941122 
L 318.66238 353.859047 
L 320.99598 354.002103 
L 325.206607 354.273215 
L 328.757738 354.215424 
L 334.6932 354.133518 
L 351.84009 354.165479 
L 407.491386 354.142919 
L 407.694308 354.005877 
L 407.89723 353.460539 
L 408.303073 351.342314 
L 409.165491 345.701084 
L 410.23083 338.42176 
L 410.738135 336.876799 
L 410.991787 336.622553 
L 411.143978 336.718385 
L 411.3469 337.209339 
L 411.600552 338.482696 
L 413.122466 349.304006 
L 414.847301 360.711822 
L 415.354605 362.72614 
L 415.760449 363.581022 
L 415.91264 363.552673 
L 416.115562 363.042601 
L 416.724327 360.346291 
L 418.19551 353.708729 
L 418.753545 353.365796 
L 419.920345 352.739547 
L 420.173997 351.791711 
L 420.833493 347.820806 
L 421.59445 342.056027 
L 422.406137 335.817624 
L 423.065633 332.676082 
L 423.370015 332.028296 
L 423.522207 332.090233 
L 423.674398 332.512727 
L 423.92805 334.14419 
L 424.384624 338.974621 
L 425.196311 351.248411 
L 425.805076 358.263983 
L 426.819685 366.303972 
L 427.276259 368.090137 
L 427.682103 368.852401 
L 427.986486 369.050568 
L 428.290868 369.006597 
L 428.645981 368.721555 
L 429.153286 368.001388 
L 429.964973 366.383713 
L 431.639077 362.394935 
L 433.719026 357.632545 
L 435.088748 355.018262 
L 436.154087 353.414444 
L 437.016504 352.469436 
L 437.777461 351.944284 
L 438.436957 351.741719 
L 439.096453 351.771407 
L 439.806679 352.034984 
L 440.719827 352.632539 
L 443.560732 354.678379 
L 444.575341 355.036638 
L 445.589949 355.150737 
L 446.75675 355.046096 
L 448.481585 354.637292 
L 451.271759 353.98701 
L 452.996594 353.838898 
L 454.975081 353.912462 
L 460.859813 354.285719 
L 465.679205 354.154159 
L 470.701519 354.143752 
L 481.405642 354.163022 
L 519.301284 354.005904 
L 519.504205 353.460568 
L 519.910049 351.342346 
L 520.772466 345.701124 
L 521.837806 338.421829 
L 522.34511 336.876899 
L 522.598762 336.622808 
L 522.750954 336.719 
L 522.953876 337.213303 
L 523.207528 338.525095 
L 523.562641 341.738717 
L 524.272867 351.036884 
L 524.983093 359.158704 
L 525.439667 362.373466 
L 525.693319 362.902025 
L 525.896241 362.81649 
L 526.200624 362.378203 
L 526.657198 361.263668 
L 527.722537 358.364158 
L 528.787877 358.575795 
L 529.396642 358.349101 
L 530.208329 357.776328 
L 531.273668 356.73959 
L 531.52732 356.253595 
L 531.780973 355.097547 
L 532.59266 349.607954 
L 533.455077 342.435615 
L 533.962382 338.91264 
L 534.723338 335.324785 
L 535.078451 334.399508 
L 535.281373 334.321659 
L 535.433565 334.575427 
L 535.636486 335.44376 
L 535.940869 338.098389 
L 536.397443 344.857748 
L 537.361321 359.785214 
L 537.767165 363.111129 
L 538.071548 363.870393 
L 538.3252 364.018704 
L 538.578852 363.888064 
L 538.883235 363.442351 
L 539.339809 362.330844 
L 539.745652 361.467857 
L 539.948574 361.525593 
L 540.506609 361.851126 
L 540.912452 361.826518 
L 541.419757 361.546005 
L 542.079253 360.888191 
L 543.043131 359.574788 
L 543.651896 358.482712 
L 543.905549 357.345615 
L 544.666505 352.054029 
L 545.731845 343.291967 
L 546.188419 340.552221 
L 546.949375 337.391491 
L 547.304488 336.612236 
L 547.50741 336.539995 
L 547.659601 336.72806 
L 547.862523 337.372377 
L 548.166906 339.314683 
L 548.572749 343.677406 
L 549.993202 360.683617 
L 550.500506 363.911421 
L 550.95708 365.62036 
L 551.362924 366.423634 
L 551.718037 366.711296 
L 552.07315 366.705155 
L 552.478994 366.42798 
L 553.037028 365.715285 
L 553.848716 364.262259 
L 555.573551 360.578605 
L 557.602768 356.43657 
L 558.871029 354.321628 
L 559.885638 353.031877 
L 560.697325 352.32311 
L 561.407552 351.969622 
L 562.067047 351.872088 
L 562.777274 352.001446 
L 563.588961 352.393939 
L 564.857222 353.300007 
L 566.531326 354.43958 
L 567.596666 354.886524 
L 568.611275 355.070823 
L 569.727344 355.04369 
L 571.249258 354.75852 
L 575.104771 353.939906 
L 576.880337 353.858102 
L 579.213937 354.001976 
L 583.373834 354.272836 
L 586.874234 354.218736 
L 592.911157 354.133447 
L 609.956586 354.165339 
L 665.202039 354.142919 
L 665.404961 354.005877 
L 665.607882 353.460539 
L 666.013726 351.342314 
L 666.876143 345.701084 
L 667.941483 338.42176 
L 668.448787 336.876807 
L 668.702439 336.622705 
L 668.854631 336.71889 
L 669.057552 337.21319 
L 669.311205 338.524984 
L 669.666318 341.738633 
L 670.376544 351.03691 
L 671.08677 359.162104 
L 671.644805 363.200995 
L 672.15211 365.324805 
L 672.557953 366.22735 
L 672.913066 366.583334 
L 673.268179 366.63129 
L 673.623292 366.444322 
L 674.130597 365.881076 
L 674.840823 364.71217 
L 676.109084 362.10741 
L 678.848528 356.437239 
L 680.16752 354.237467 
L 680.471902 353.578957 
L 680.725554 352.339845 
L 681.486511 346.814884 
L 682.196737 340.187426 
L 683.211346 327.79917 
L 683.515729 320.911965 
L 683.769381 308.877873 
L 684.479607 261.675529 
L 684.631799 260.9795 
L 684.733259 261.411239 
L 684.986912 264.15173 
L 686.914669 292.310448 
L 687.320512 301.13791 
L 687.574164 311.636668 
L 687.827817 333.496091 
L 688.284391 372.185721 
L 688.639504 385.208504 
L 688.994617 391.019413 
L 689.298999 393.165792 
L 689.552652 393.84951 
L 689.755573 393.93777 
L 689.958495 393.743097 
L 690.262878 393.081749 
L 690.770182 391.366132 
L 691.68333 387.359418 
L 695.133 371.611813 
L 695.589574 369.342777 
L 696.401261 362.774396 
L 697.669523 353.546304 
L 698.075366 352.366438 
L 698.937784 350.575301 
L 699.597279 349.643081 
L 700.155314 349.207531 
L 700.611888 349.120628 
L 701.017732 349.255356 
L 701.474306 349.637648 
L 702.083071 350.474324 
L 703.04695 352.258543 
L 704.416671 354.711637 
L 705.228359 355.706544 
L 705.938585 356.23151 
L 706.598081 356.454959 
L 707.308307 356.460539 
L 708.170724 356.222685 
L 709.337525 355.640378 
L 710.402864 354.906974 
L 710.605786 354.363755 
L 710.960899 352.444415 
L 711.874047 346.113079 
L 713.243769 336.146417 
L 713.801804 333.897338 
L 714.055456 333.482044 
L 714.207647 333.553513 
L 714.359838 333.947952 
L 714.613491 335.509708 
L 714.917873 339.092717 
L 715.526639 349.948428 
L 716.186134 360.343335 
L 716.693439 365.324119 
L 717.150013 367.947544 
L 717.555856 369.209298 
L 717.910969 369.716231 
L 718.215352 369.821044 
L 718.519735 369.694462 
L 718.925578 369.25694 
L 719.534344 368.210094 
L 720.498222 366.037509 
L 724.404466 356.797668 
L 725.571266 354.280542 
L 725.926379 352.121164 
L 726.839527 344.804095 
L 727.499023 337.753985 
L 728.361441 326.407744 
L 728.665823 317.795865 
L 728.868745 305.773719 
L 729.42678 263.269555 
L 729.629702 260.58084 
L 729.680432 260.534118 
L 729.781893 260.930135 
L 730.035545 263.651798 
L 732.014033 292.720102 
L 732.419876 301.860278 
L 732.673528 313.088766 
L 732.977911 341.640985 
L 733.383755 373.416508 
L 733.738868 385.766035 
L 734.093981 391.259359 
L 734.398364 393.264681 
L 734.652016 393.877891 
L 734.854938 393.927913 
L 735.057859 393.705554 
L 735.412972 392.869247 
L 735.971007 390.866479 
L 737.036347 386.041262 
L 739.826521 373.181724 
L 741.348434 367.324582 
L 742.819617 362.532584 
L 744.24007 358.630093 
L 745.559061 355.619155 
L 746.675131 353.586404 
L 747.588279 352.350612 
L 748.349235 351.671868 
L 749.008731 351.371559 
L 749.617497 351.33861 
L 750.226262 351.52675 
L 750.987219 352.018554 
L 752.204749 353.137775 
L 753.726662 354.46989 
L 754.690541 355.02002 
L 755.603689 355.285506 
L 756.567567 355.327146 
L 757.734367 355.138072 
L 759.712855 354.541577 
L 761.843533 353.974782 
L 763.416177 353.789924 
L 765.141012 353.823775 
L 772.699848 354.286249 
L 781.425485 354.140412 
L 790.912077 354.166153 
L 793.194947 354.259555 
L 793.347139 354.530758 
L 793.600791 355.563278 
L 795.224165 363.447284 
L 795.477817 363.820538 
L 795.630009 363.696037 
L 796.238774 362.636819 
L 800.703053 354.365641 
L 801.717662 353.120719 
L 802.580079 352.400148 
L 803.290306 352.070332 
L 804.000532 351.985429 
L 804.710758 352.128538 
L 805.573176 352.54702 
L 807.095089 353.599884 
L 808.515541 354.473865 
L 809.580881 354.87369 
L 810.64622 355.030443 
L 811.863751 354.966487 
L 813.588586 354.619419 
L 816.683143 353.985675 
L 818.509439 353.872704 
L 820.741578 353.980853 
L 825.56097 354.270965 
L 829.568675 354.191111 
L 835.098294 354.137761 
L 850.215966 354.163245 
L 894.706565 354.327361 
L 894.909486 354.870956 
L 895.36606 357.196374 
L 896.532861 362.907312 
L 896.837243 363.772038 
L 896.989435 363.804798 
L 897.243087 363.463626 
L 898.257696 361.549132 
L 901.301522 355.699252 
L 902.519053 353.885387 
L 903.482931 352.827501 
L 904.294618 352.252893 
L 904.852653 351.880052 
L 905.055575 351.286458 
L 905.461419 349.063577 
L 906.273106 343.400159 
L 908.708167 322.834308 
L 909.06328 317.867387 
L 909.316932 311.297031 
L 909.570585 298.332162 
L 910.027159 274.218417 
L 910.280811 271.147138 
L 910.331541 271.096876 
L 910.382272 271.173713 
L 910.534463 271.978209 
L 910.889576 275.631029 
L 911.954915 289.834443 
L 912.411489 298.316325 
L 912.715872 308.647528 
L 912.969524 327.556016 
L 913.476829 371.900888 
L 913.831942 385.074378 
L 914.187055 390.95743 
L 914.491438 393.13621 
L 914.74509 393.83626 
L 914.948012 393.933438 
L 915.150933 393.745257 
L 915.455316 393.090641 
L 915.96262 391.381525 
L 916.875768 387.379567 
L 920.325439 371.639212 
L 921.796621 366.189602 
L 923.267804 361.574313 
L 924.688257 357.828005 
L 925.956518 355.06881 
L 927.021857 353.242473 
L 927.884275 352.164907 
L 928.594501 351.594536 
L 929.253997 351.346004 
L 929.862762 351.359795 
L 930.522258 351.617183 
L 931.333945 352.205152 
L 934.682154 354.962238 
L 935.595302 355.262245 
L 936.55918 355.333768 
L 937.67525 355.179944 
L 939.400085 354.681231 
L 941.885877 353.990012 
L 943.458521 353.793859 
L 945.132625 353.814536 
L 948.227182 354.138973 
L 950.915896 354.303096 
L 954.010453 354.243727 
L 959.793723 354.120087 
L 981.861466 354.168813 
L 996.218182 354.166931 
L 996.218182 354.166931 
" clip-path="url(#pe6dd0af541)" style="fill: none; stroke: #4169e1; stroke-width: 1.5; stroke-linecap: square"/>
   </g>
   <g id="patch_9">
    <path d="M 144 400.616471 
L 144 253.863529 
" style="fill: none; stroke: #000000; stroke-width: 0.8; stroke-linejoin: miter; stroke-linecap: square"/>
   </g>
   <g id="patch_10">
    <path d="M 1036.8 400.616471 
L 1036.8 253.863529 
" style="fill: none; stroke: #000000; stroke-width: 0.8; stroke-linejoin: miter; stroke-linecap: square"/>
   </g>
   <g id="patch_11">
    <path d="M 144 400.616471 
L 1036.8 400.616471 
" style="fill: none; stroke: #000000; stroke-width: 0.8; stroke-linejoin: miter; stroke-linecap: square"/>
   </g>
   <g id="patch_12">
    <path d="M 144 253.863529 
L 1036.8 253.863529 
" style="fill: none; stroke: #000000; stroke-width: 0.8; stroke-linejoin: miter; stroke-linecap: square"/>
   </g>
   <g id="legend_2">
    <g id="patch_13">
     <path d="M 151 276.541654 
L 274.220312 276.541654 
Q 276.220312 276.541654 276.220312 274.541654 
L 276.220312 260.863529 
Q 276.220312 258.863529 274.220312 258.863529 
L 151 258.863529 
Q 149 258.863529 149 260.863529 
L 149 274.541654 
Q 149 276.541654 151 276.541654 
z
" style="fill: #ffffff; opacity: 0.8; stroke: #cccccc; stroke-linejoin: miter"/>
    </g>
    <g id="line2d_32">
     <path d="M 153 266.961967 
L 163 266.961967 
L 173 266.961967 
" style="fill: none; stroke: #4169e1; stroke-width: 1.5; stroke-linecap: square"/>
    </g>
    <g id="text_14">
     <!-- resonator (subAH) -->
     <g transform="translate(181 270.461967) scale(0.1 -0.1)">
      <defs>
       <path id="DejaVuSans-73" d="M 2834 3397 
L 2834 2853 
Q 2591 2978 2328 3040 
Q 2066 3103 1784 3103 
Q 1356 3103 1142 2972 
Q 928 2841 928 2578 
Q 928 2378 1081 2264 
Q 1234 2150 1697 2047 
L 1894 2003 
Q 2506 1872 2764 1633 
Q 3022 1394 3022 966 
Q 3022 478 2636 193 
Q 2250 -91 1575 -91 
Q 1294 -91 989 -36 
Q 684 19 347 128 
L 347 722 
Q 666 556 975 473 
Q 1284 391 1588 391 
Q 1994 391 2212 530 
Q 2431 669 2431 922 
Q 2431 1156 2273 1281 
Q 2116 1406 1581 1522 
L 1381 1569 
Q 847 1681 609 1914 
Q 372 2147 372 2553 
Q 372 3047 722 3315 
Q 1072 3584 1716 3584 
Q 2034 3584 2315 3537 
Q 2597 3491 2834 3397 
z
" transform="scale(0.015625)"/>
       <path id="DejaVuSans-75" d="M 544 1381 
L 544 3500 
L 1119 3500 
L 1119 1403 
Q 1119 906 1312 657 
Q 1506 409 1894 409 
Q 2359 409 2629 706 
Q 2900 1003 2900 1516 
L 2900 3500 
L 3475 3500 
L 3475 0 
L 2900 0 
L 2900 538 
Q 2691 219 2414 64 
Q 2138 -91 1772 -91 
Q 1169 -91 856 284 
Q 544 659 544 1381 
z
M 1991 3584 
L 1991 3584 
z
" transform="scale(0.015625)"/>
       <path id="DejaVuSans-62" d="M 3116 1747 
Q 3116 2381 2855 2742 
Q 2594 3103 2138 3103 
Q 1681 3103 1420 2742 
Q 1159 2381 1159 1747 
Q 1159 1113 1420 752 
Q 1681 391 2138 391 
Q 2594 391 2855 752 
Q 3116 1113 3116 1747 
z
M 1159 2969 
Q 1341 3281 1617 3432 
Q 1894 3584 2278 3584 
Q 2916 3584 3314 3078 
Q 3713 2572 3713 1747 
Q 3713 922 3314 415 
Q 2916 -91 2278 -91 
Q 1894 -91 1617 61 
Q 1341 213 1159 525 
L 1159 0 
L 581 0 
L 581 4863 
L 1159 4863 
L 1159 2969 
z
" transform="scale(0.015625)"/>
       <path id="DejaVuSans-41" d="M 2188 4044 
L 1331 1722 
L 3047 1722 
L 2188 4044 
z
M 1831 4666 
L 2547 4666 
L 4325 0 
L 3669 0 
L 3244 1197 
L 1141 1197 
L 716 0 
L 50 0 
L 1831 4666 
z
" transform="scale(0.015625)"/>
       <path id="DejaVuSans-48" d="M 628 4666 
L 1259 4666 
L 1259 2753 
L 3553 2753 
L 3553 4666 
L 4184 4666 
L 4184 0 
L 3553 0 
L 3553 2222 
L 1259 2222 
L 1259 0 
L 628 0 
L 628 4666 
z
" transform="scale(0.015625)"/>
      </defs>
      <use xlink:href="#DejaVuSans-72"/>
      <use xlink:href="#DejaVuSans-65" x="38.863281"/>
      <use xlink:href="#DejaVuSans-73" x="100.386719"/>
      <use xlink:href="#DejaVuSans-6f" x="152.486328"/>
      <use xlink:href="#DejaVuSans-6e" x="213.667969"/>
      <use xlink:href="#DejaVuSans-61" x="277.046875"/>
      <use xlink:href="#DejaVuSans-74" x="338.326172"/>
      <use xlink:href="#DejaVuSans-6f" x="377.535156"/>
      <use xlink:href="#DejaVuSans-72" x="438.716797"/>
      <use xlink:href="#DejaVuSans-20" x="479.830078"/>
      <use xlink:href="#DejaVuSans-28" x="511.617188"/>
      <use xlink:href="#DejaVuSans-73" x="550.630859"/>
      <use xlink:href="#DejaVuSans-75" x="602.730469"/>
      <use xlink:href="#DejaVuSans-62" x="666.109375"/>
      <use xlink:href="#DejaVuSans-41" x="729.585938"/>
      <use xlink:href="#DejaVuSans-48" x="797.994141"/>
      <use xlink:href="#DejaVuSans-29" x="873.189453"/>
     </g>
    </g>
   </g>
  </g>
  <g id="axes_3">
   <g id="patch_14">
    <path d="M 144 576.72 
L 1036.8 576.72 
L 1036.8 429.967059 
L 144 429.967059 
z
" style="fill: #ffffff"/>
   </g>
   <g id="matplotlib.axis_5">
    <g id="xtick_19">
     <g id="line2d_33">
      <g>
       <use xlink:href="#mb0fa0289f7" x="184.581818" y="576.72" style="stroke: #000000; stroke-width: 0.8"/>
      </g>
     </g>
     <g id="text_15">
      <!-- 0 -->
      <g transform="translate(181.400568 591.318438) scale(0.1 -0.1)">
       <use xlink:href="#DejaVuSans-30"/>
      </g>
     </g>
    </g>
    <g id="xtick_20">
     <g id="line2d_34">
      <g>
       <use xlink:href="#mb0fa0289f7" x="286.042705" y="576.72" style="stroke: #000000; stroke-width: 0.8"/>
      </g>
     </g>
     <g id="text_16">
      <!-- 50 -->
      <g transform="translate(279.680205 591.318438) scale(0.1 -0.1)">
       <defs>
        <path id="DejaVuSans-35" d="M 691 4666 
L 3169 4666 
L 3169 4134 
L 1269 4134 
L 1269 2991 
Q 1406 3038 1543 3061 
Q 1681 3084 1819 3084 
Q 2600 3084 3056 2656 
Q 3513 2228 3513 1497 
Q 3513 744 3044 326 
Q 2575 -91 1722 -91 
Q 1428 -91 1123 -41 
Q 819 9 494 109 
L 494 744 
Q 775 591 1075 516 
Q 1375 441 1709 441 
Q 2250 441 2565 725 
Q 2881 1009 2881 1497 
Q 2881 1984 2565 2268 
Q 2250 2553 1709 2553 
Q 1456 2553 1204 2497 
Q 953 2441 691 2322 
L 691 4666 
z
" transform="scale(0.015625)"/>
       </defs>
       <use xlink:href="#DejaVuSans-35"/>
       <use xlink:href="#DejaVuSans-30" x="63.623047"/>
      </g>
     </g>
    </g>
    <g id="xtick_21">
     <g id="line2d_35">
      <g>
       <use xlink:href="#mb0fa0289f7" x="387.503592" y="576.72" style="stroke: #000000; stroke-width: 0.8"/>
      </g>
     </g>
     <g id="text_17">
      <!-- 100 -->
      <g transform="translate(377.959842 591.318438) scale(0.1 -0.1)">
       <defs>
        <path id="DejaVuSans-31" d="M 794 531 
L 1825 531 
L 1825 4091 
L 703 3866 
L 703 4441 
L 1819 4666 
L 2450 4666 
L 2450 531 
L 3481 531 
L 3481 0 
L 794 0 
L 794 531 
z
" transform="scale(0.015625)"/>
       </defs>
       <use xlink:href="#DejaVuSans-31"/>
       <use xlink:href="#DejaVuSans-30" x="63.623047"/>
       <use xlink:href="#DejaVuSans-30" x="127.246094"/>
      </g>
     </g>
    </g>
    <g id="xtick_22">
     <g id="line2d_36">
      <g>
       <use xlink:href="#mb0fa0289f7" x="488.964478" y="576.72" style="stroke: #000000; stroke-width: 0.8"/>
      </g>
     </g>
     <g id="text_18">
      <!-- 150 -->
      <g transform="translate(479.420728 591.318438) scale(0.1 -0.1)">
       <use xlink:href="#DejaVuSans-31"/>
       <use xlink:href="#DejaVuSans-35" x="63.623047"/>
       <use xlink:href="#DejaVuSans-30" x="127.246094"/>
      </g>
     </g>
    </g>
    <g id="xtick_23">
     <g id="line2d_37">
      <g>
       <use xlink:href="#mb0fa0289f7" x="590.425365" y="576.72" style="stroke: #000000; stroke-width: 0.8"/>
      </g>
     </g>
     <g id="text_19">
      <!-- 200 -->
      <g transform="translate(580.881615 591.318438) scale(0.1 -0.1)">
       <use xlink:href="#DejaVuSans-32"/>
       <use xlink:href="#DejaVuSans-30" x="63.623047"/>
       <use xlink:href="#DejaVuSans-30" x="127.246094"/>
      </g>
     </g>
    </g>
    <g id="xtick_24">
     <g id="line2d_38">
      <g>
       <use xlink:href="#mb0fa0289f7" x="691.886252" y="576.72" style="stroke: #000000; stroke-width: 0.8"/>
      </g>
     </g>
     <g id="text_20">
      <!-- 250 -->
      <g transform="translate(682.342502 591.318438) scale(0.1 -0.1)">
       <use xlink:href="#DejaVuSans-32"/>
       <use xlink:href="#DejaVuSans-35" x="63.623047"/>
       <use xlink:href="#DejaVuSans-30" x="127.246094"/>
      </g>
     </g>
    </g>
    <g id="xtick_25">
     <g id="line2d_39">
      <g>
       <use xlink:href="#mb0fa0289f7" x="793.347139" y="576.72" style="stroke: #000000; stroke-width: 0.8"/>
      </g>
     </g>
     <g id="text_21">
      <!-- 300 -->
      <g transform="translate(783.803389 591.318438) scale(0.1 -0.1)">
       <defs>
        <path id="DejaVuSans-33" d="M 2597 2516 
Q 3050 2419 3304 2112 
Q 3559 1806 3559 1356 
Q 3559 666 3084 287 
Q 2609 -91 1734 -91 
Q 1441 -91 1130 -33 
Q 819 25 488 141 
L 488 750 
Q 750 597 1062 519 
Q 1375 441 1716 441 
Q 2309 441 2620 675 
Q 2931 909 2931 1356 
Q 2931 1769 2642 2001 
Q 2353 2234 1838 2234 
L 1294 2234 
L 1294 2753 
L 1863 2753 
Q 2328 2753 2575 2939 
Q 2822 3125 2822 3475 
Q 2822 3834 2567 4026 
Q 2313 4219 1838 4219 
Q 1578 4219 1281 4162 
Q 984 4106 628 3988 
L 628 4550 
Q 988 4650 1302 4700 
Q 1616 4750 1894 4750 
Q 2613 4750 3031 4423 
Q 3450 4097 3450 3541 
Q 3450 3153 3228 2886 
Q 3006 2619 2597 2516 
z
" transform="scale(0.015625)"/>
       </defs>
       <use xlink:href="#DejaVuSans-33"/>
       <use xlink:href="#DejaVuSans-30" x="63.623047"/>
       <use xlink:href="#DejaVuSans-30" x="127.246094"/>
      </g>
     </g>
    </g>
    <g id="xtick_26">
     <g id="line2d_40">
      <g>
       <use xlink:href="#mb0fa0289f7" x="894.808026" y="576.72" style="stroke: #000000; stroke-width: 0.8"/>
      </g>
     </g>
     <g id="text_22">
      <!-- 350 -->
      <g transform="translate(885.264276 591.318438) scale(0.1 -0.1)">
       <use xlink:href="#DejaVuSans-33"/>
       <use xlink:href="#DejaVuSans-35" x="63.623047"/>
       <use xlink:href="#DejaVuSans-30" x="127.246094"/>
      </g>
     </g>
    </g>
    <g id="xtick_27">
     <g id="line2d_41">
      <g>
       <use xlink:href="#mb0fa0289f7" x="996.268912" y="576.72" style="stroke: #000000; stroke-width: 0.8"/>
      </g>
     </g>
     <g id="text_23">
      <!-- 400 -->
      <g transform="translate(986.725162 591.318438) scale(0.1 -0.1)">
       <use xlink:href="#DejaVuSans-34"/>
       <use xlink:href="#DejaVuSans-30" x="63.623047"/>
       <use xlink:href="#DejaVuSans-30" x="127.246094"/>
      </g>
     </g>
    </g>
    <g id="text_24">
     <!-- time [ms] -->
     <g transform="translate(566.138281 604.996562) scale(0.1 -0.1)">
      <use xlink:href="#DejaVuSans-74"/>
      <use xlink:href="#DejaVuSans-69" x="39.208984"/>
      <use xlink:href="#DejaVuSans-6d" x="66.992188"/>
      <use xlink:href="#DejaVuSans-65" x="164.404297"/>
      <use xlink:href="#DejaVuSans-20" x="225.927734"/>
      <use xlink:href="#DejaVuSans-5b" x="257.714844"/>
      <use xlink:href="#DejaVuSans-6d" x="296.728516"/>
      <use xlink:href="#DejaVuSans-73" x="394.140625"/>
      <use xlink:href="#DejaVuSans-5d" x="446.240234"/>
     </g>
    </g>
   </g>
   <g id="matplotlib.axis_6">
    <g id="ytick_11">
     <g id="line2d_42">
      <g>
       <use xlink:href="#m9a573fb2a5" x="144" y="571.075656" style="stroke: #000000; stroke-width: 0.8"/>
      </g>
     </g>
     <g id="text_25">
      <!-- −6 -->
      <g transform="translate(122.257812 574.874875) scale(0.1 -0.1)">
       <use xlink:href="#DejaVuSans-2212"/>
       <use xlink:href="#DejaVuSans-36" x="83.789062"/>
      </g>
     </g>
    </g>
    <g id="ytick_12">
     <g id="line2d_43">
      <g>
       <use xlink:href="#m9a573fb2a5" x="144" y="548.498281" style="stroke: #000000; stroke-width: 0.8"/>
      </g>
     </g>
     <g id="text_26">
      <!-- −4 -->
      <g transform="translate(122.257812 552.297499) scale(0.1 -0.1)">
       <use xlink:href="#DejaVuSans-2212"/>
       <use xlink:href="#DejaVuSans-34" x="83.789062"/>
      </g>
     </g>
    </g>
    <g id="ytick_13">
     <g id="line2d_44">
      <g>
       <use xlink:href="#m9a573fb2a5" x="144" y="525.920905" style="stroke: #000000; stroke-width: 0.8"/>
      </g>
     </g>
     <g id="text_27">
      <!-- −2 -->
      <g transform="translate(122.257812 529.720124) scale(0.1 -0.1)">
       <use xlink:href="#DejaVuSans-2212"/>
       <use xlink:href="#DejaVuSans-32" x="83.789062"/>
      </g>
     </g>
    </g>
    <g id="ytick_14">
     <g id="line2d_45">
      <g>
       <use xlink:href="#m9a573fb2a5" x="144" y="503.343529" style="stroke: #000000; stroke-width: 0.8"/>
      </g>
     </g>
     <g id="text_28">
      <!-- 0 -->
      <g transform="translate(130.6375 507.142748) scale(0.1 -0.1)">
       <use xlink:href="#DejaVuSans-30"/>
      </g>
     </g>
    </g>
    <g id="ytick_15">
     <g id="line2d_46">
      <g>
       <use xlink:href="#m9a573fb2a5" x="144" y="480.766154" style="stroke: #000000; stroke-width: 0.8"/>
      </g>
     </g>
     <g id="text_29">
      <!-- 2 -->
      <g transform="translate(130.6375 484.565373) scale(0.1 -0.1)">
       <use xlink:href="#DejaVuSans-32"/>
      </g>
     </g>
    </g>
    <g id="ytick_16">
     <g id="line2d_47">
      <g>
       <use xlink:href="#m9a573fb2a5" x="144" y="458.188778" style="stroke: #000000; stroke-width: 0.8"/>
      </g>
     </g>
     <g id="text_30">
      <!-- 4 -->
      <g transform="translate(130.6375 461.987997) scale(0.1 -0.1)">
       <use xlink:href="#DejaVuSans-34"/>
      </g>
     </g>
    </g>
    <g id="ytick_17">
     <g id="line2d_48">
      <g>
       <use xlink:href="#m9a573fb2a5" x="144" y="435.611403" style="stroke: #000000; stroke-width: 0.8"/>
      </g>
     </g>
     <g id="text_31">
      <!-- 6 -->
      <g transform="translate(130.6375 439.410621) scale(0.1 -0.1)">
       <use xlink:href="#DejaVuSans-36"/>
      </g>
     </g>
    </g>
    <g id="text_32">
     <!-- Iapp [a.u.] -->
     <g transform="translate(116.178125 529.132592) rotate(-90) scale(0.1 -0.1)">
      <defs>
       <path id="DejaVuSans-70" d="M 1159 525 
L 1159 -1331 
L 581 -1331 
L 581 3500 
L 1159 3500 
L 1159 2969 
Q 1341 3281 1617 3432 
Q 1894 3584 2278 3584 
Q 2916 3584 3314 3078 
Q 3713 2572 3713 1747 
Q 3713 922 3314 415 
Q 2916 -91 2278 -91 
Q 1894 -91 1617 61 
Q 1341 213 1159 525 
z
M 3116 1747 
Q 3116 2381 2855 2742 
Q 2594 3103 2138 3103 
Q 1681 3103 1420 2742 
Q 1159 2381 1159 1747 
Q 1159 1113 1420 752 
Q 1681 391 2138 391 
Q 2594 391 2855 752 
Q 3116 1113 3116 1747 
z
" transform="scale(0.015625)"/>
       <path id="DejaVuSans-2e" d="M 684 794 
L 1344 794 
L 1344 0 
L 684 0 
L 684 794 
z
" transform="scale(0.015625)"/>
      </defs>
      <use xlink:href="#DejaVuSans-49"/>
      <use xlink:href="#DejaVuSans-61" x="29.492188"/>
      <use xlink:href="#DejaVuSans-70" x="90.771484"/>
      <use xlink:href="#DejaVuSans-70" x="154.248047"/>
      <use xlink:href="#DejaVuSans-20" x="217.724609"/>
      <use xlink:href="#DejaVuSans-5b" x="249.511719"/>
      <use xlink:href="#DejaVuSans-61" x="288.525391"/>
      <use xlink:href="#DejaVuSans-2e" x="349.804688"/>
      <use xlink:href="#DejaVuSans-75" x="381.591797"/>
      <use xlink:href="#DejaVuSans-2e" x="444.970703"/>
      <use xlink:href="#DejaVuSans-5d" x="476.757812"/>
     </g>
    </g>
   </g>
   <g id="line2d_49">
    <path d="M 184.581818 503.343529 
L 285.383209 503.264856 
L 285.535401 502.804413 
L 285.687592 501.585703 
L 285.789053 498.573561 
L 285.941244 484.126345 
L 286.347088 438.414617 
L 286.550009 436.150413 
L 286.752931 435.6484 
L 287.209505 435.631388 
L 287.412427 435.690419 
L 287.564618 436.150413 
L 287.71681 437.369266 
L 287.81827 440.38139 
L 287.970462 454.82858 
L 288.376305 500.540351 
L 288.579227 502.804413 
L 288.782149 503.307156 
L 289.340184 503.342818 
L 354.325882 503.343529 
L 407.136273 503.264856 
L 407.288465 502.804413 
L 407.440656 501.585703 
L 407.542117 498.573561 
L 407.694308 484.126345 
L 408.100152 438.414617 
L 408.303073 436.150413 
L 408.505995 435.6484 
L 408.962569 435.631388 
L 409.165491 435.690419 
L 409.317682 436.150413 
L 409.469874 437.369266 
L 409.571335 440.381391 
L 409.723526 454.828578 
L 410.129369 500.540315 
L 410.332291 502.804519 
L 410.535213 503.306532 
L 410.991787 503.323544 
L 411.194709 503.264513 
L 411.3469 502.804519 
L 411.499091 501.585665 
L 411.600552 498.573541 
L 411.752744 484.126354 
L 412.158587 438.414617 
L 412.361509 436.150413 
L 412.564431 435.6484 
L 413.021005 435.631388 
L 413.223926 435.690419 
L 413.376118 436.150413 
L 413.528309 437.369266 
L 413.62977 440.381391 
L 413.781961 454.828578 
L 414.187805 500.540315 
L 414.390727 502.804519 
L 414.593648 503.306532 
L 415.050222 503.323544 
L 415.253144 503.264513 
L 415.405336 502.804519 
L 415.557527 501.585665 
L 415.658988 498.573541 
L 415.811179 484.126354 
L 416.217023 438.414617 
L 416.419944 436.150413 
L 416.622866 435.6484 
L 417.07944 435.631388 
L 417.282362 435.690419 
L 417.434553 436.150413 
L 417.586745 437.369266 
L 417.688206 440.381391 
L 417.840397 454.828578 
L 418.24624 500.540315 
L 418.449162 502.804519 
L 418.652084 503.306532 
L 419.108658 503.323544 
L 419.31158 503.264513 
L 419.463771 502.804519 
L 419.615962 501.585665 
L 419.717423 498.573541 
L 419.869615 484.126354 
L 420.275458 438.414617 
L 420.47838 436.150413 
L 420.681302 435.6484 
L 421.137876 435.631388 
L 421.340797 435.690419 
L 421.492989 436.150413 
L 421.64518 437.369266 
L 421.746641 440.381391 
L 421.898832 454.828578 
L 422.304676 500.540315 
L 422.507598 502.804519 
L 422.710519 503.306532 
L 423.167093 503.323544 
L 423.370015 503.264513 
L 423.522207 502.804519 
L 423.674398 501.585665 
L 423.775859 498.573541 
L 423.92805 484.126354 
L 424.333894 438.414617 
L 424.536815 436.150413 
L 424.739737 435.6484 
L 425.196311 435.631388 
L 425.399233 435.690419 
L 425.551424 436.150413 
L 425.703616 437.369266 
L 425.805076 440.38139 
L 425.957268 454.82858 
L 426.363111 500.540351 
L 426.566033 502.804413 
L 426.768955 503.307156 
L 427.32699 503.342818 
L 492.312688 503.343529 
L 518.743249 503.264856 
L 518.89544 502.804413 
L 519.047631 501.585703 
L 519.149092 498.573561 
L 519.301284 484.126345 
L 519.707127 438.414617 
L 519.910049 436.150413 
L 520.112971 435.6484 
L 520.569545 435.631388 
L 520.772466 435.690419 
L 520.924658 436.150413 
L 521.076849 437.369266 
L 521.17831 440.38139 
L 521.330501 454.82858 
L 521.736345 500.540351 
L 521.939267 502.804413 
L 522.142188 503.307156 
L 522.700223 503.342818 
L 524.830902 503.264856 
L 524.983093 502.804413 
L 525.135285 501.585703 
L 525.236745 498.573561 
L 525.388937 484.126345 
L 525.79478 438.414617 
L 525.997702 436.150413 
L 526.200624 435.6484 
L 526.657198 435.631388 
L 526.86012 435.690419 
L 527.012311 436.150413 
L 527.164502 437.369266 
L 527.265963 440.38139 
L 527.418155 454.82858 
L 527.823998 500.540351 
L 528.02692 502.804413 
L 528.229842 503.307156 
L 528.787877 503.342818 
L 530.918555 503.264856 
L 531.070746 502.804413 
L 531.222938 501.585703 
L 531.324399 498.573561 
L 531.47659 484.126345 
L 531.882434 438.414617 
L 532.085355 436.150413 
L 532.288277 435.6484 
L 532.744851 435.631388 
L 532.947773 435.690419 
L 533.099964 436.150413 
L 533.252156 437.369266 
L 533.353616 440.38139 
L 533.505808 454.82858 
L 533.911651 500.540351 
L 534.114573 502.804413 
L 534.317495 503.307156 
L 534.87553 503.342818 
L 537.006208 503.264856 
L 537.1584 502.804413 
L 537.310591 501.585703 
L 537.412052 498.573561 
L 537.564243 484.126345 
L 537.970087 438.414617 
L 538.173009 436.150413 
L 538.37593 435.6484 
L 538.832504 435.631388 
L 539.035426 435.690419 
L 539.187617 436.150413 
L 539.339809 437.369266 
L 539.44127 440.38139 
L 539.593461 454.82858 
L 539.999305 500.540351 
L 540.202226 502.804413 
L 540.405148 503.307156 
L 540.963183 503.342818 
L 543.093862 503.264856 
L 543.246053 502.804413 
L 543.398244 501.585703 
L 543.499705 498.573561 
L 543.651896 484.126345 
L 544.05774 438.414617 
L 544.260662 436.150413 
L 544.463584 435.6484 
L 544.920158 435.631388 
L 545.123079 435.690419 
L 545.275271 436.150413 
L 545.427462 437.369266 
L 545.528923 440.38139 
L 545.681114 454.82858 
L 546.086958 500.540351 
L 546.289879 502.804413 
L 546.492801 503.307156 
L 547.050836 503.342818 
L 612.036534 503.343529 
L 664.846926 503.264856 
L 664.999117 502.804413 
L 665.151308 501.585703 
L 665.252769 498.573561 
L 665.404961 484.126345 
L 665.810804 438.414617 
L 666.013726 436.150413 
L 666.216648 435.6484 
L 666.673222 435.631388 
L 666.876143 435.690419 
L 667.028335 436.150413 
L 667.180526 437.369266 
L 667.281987 440.38139 
L 667.434178 454.82858 
L 667.840022 500.540351 
L 668.042944 502.804413 
L 668.245865 503.307156 
L 668.8039 503.342818 
L 679.863137 503.264856 
L 680.015328 502.804413 
L 680.16752 501.585703 
L 680.26898 498.573561 
L 680.421172 484.126345 
L 680.827015 438.414617 
L 681.029937 436.150413 
L 681.232859 435.6484 
L 681.689433 435.631388 
L 681.892355 435.690419 
L 682.044546 436.150413 
L 682.196737 437.369266 
L 682.298198 440.38139 
L 682.45039 454.82858 
L 682.856233 500.540351 
L 683.059155 502.804413 
L 683.262077 503.307156 
L 683.820111 503.342818 
L 694.879348 503.264856 
L 695.031539 502.804413 
L 695.183731 501.585703 
L 695.285192 498.573561 
L 695.437383 484.126345 
L 695.843227 438.414617 
L 696.046148 436.150413 
L 696.24907 435.6484 
L 696.705644 435.631388 
L 696.908566 435.690419 
L 697.060757 436.150413 
L 697.212949 437.369266 
L 697.314409 440.38139 
L 697.466601 454.82858 
L 697.872444 500.540351 
L 698.075366 502.804413 
L 698.278288 503.307156 
L 698.836323 503.342818 
L 709.895559 503.264856 
L 710.047751 502.804413 
L 710.199942 501.585703 
L 710.301403 498.573561 
L 710.453594 484.126345 
L 710.859438 438.414617 
L 711.06236 436.150413 
L 711.265281 435.6484 
L 711.721855 435.631388 
L 711.924777 435.690419 
L 712.076968 436.150413 
L 712.22916 437.369266 
L 712.330621 440.38139 
L 712.482812 454.82858 
L 712.888656 500.540351 
L 713.091577 502.804413 
L 713.294499 503.307156 
L 713.852534 503.342818 
L 724.911771 503.264856 
L 725.063962 502.804413 
L 725.216153 501.585703 
L 725.317614 498.573561 
L 725.469805 484.126345 
L 725.875649 438.414617 
L 726.078571 436.150413 
L 726.281493 435.6484 
L 726.738067 435.631388 
L 726.940988 435.690419 
L 727.09318 436.150413 
L 727.245371 437.369266 
L 727.346832 440.38139 
L 727.499023 454.82858 
L 727.904867 500.540351 
L 728.107789 502.804413 
L 728.31071 503.307156 
L 728.868745 503.342818 
L 792.738373 503.511005 
L 792.890565 504.180467 
L 793.042756 506.146708 
L 793.194947 516.331763 
L 793.702252 569.317793 
L 793.955904 570.908124 
L 794.158826 571.052526 
L 794.716861 570.99664 
L 794.869052 570.536646 
L 795.021243 569.317793 
L 795.122704 566.305669 
L 795.274896 551.858478 
L 795.680739 506.146708 
L 795.883661 503.882646 
L 796.086583 503.379903 
L 796.644618 503.344241 
L 861.630316 503.343529 
L 894.14853 503.422203 
L 894.300721 503.882646 
L 894.452912 505.101356 
L 894.554373 508.113498 
L 894.706565 522.560714 
L 895.112408 568.272442 
L 895.31533 570.536646 
L 895.518252 571.038659 
L 895.974826 571.055671 
L 896.177747 570.99664 
L 896.329939 570.536646 
L 896.48213 569.317793 
L 896.583591 566.305669 
L 896.735782 551.858478 
L 897.141626 506.146708 
L 897.344548 503.882646 
L 897.547469 503.379903 
L 898.105504 503.344241 
L 904.294618 503.264856 
L 904.44681 502.804413 
L 904.599001 501.585703 
L 904.700462 498.573561 
L 904.852653 484.126345 
L 905.258497 438.414617 
L 905.461419 436.150413 
L 905.66434 435.6484 
L 906.120914 435.631388 
L 906.323836 435.690419 
L 906.476027 436.150413 
L 906.628219 437.369266 
L 906.72968 440.38139 
L 906.881871 454.82858 
L 907.287715 500.540351 
L 907.490636 502.804413 
L 907.693558 503.307156 
L 908.251593 503.342818 
L 973.237291 503.343529 
L 996.218182 503.343529 
L 996.218182 503.343529 
" clip-path="url(#p13f58167d9)" style="fill: none; stroke: #808080; stroke-width: 1.5; stroke-linecap: square"/>
   </g>
   <g id="patch_15">
    <path d="M 144 576.72 
L 144 429.967059 
" style="fill: none; stroke: #000000; stroke-width: 0.8; stroke-linejoin: miter; stroke-linecap: square"/>
   </g>
   <g id="patch_16">
    <path d="M 1036.8 576.72 
L 1036.8 429.967059 
" style="fill: none; stroke: #000000; stroke-width: 0.8; stroke-linejoin: miter; stroke-linecap: square"/>
   </g>
   <g id="patch_17">
    <path d="M 144 576.72 
L 1036.8 576.72 
" style="fill: none; stroke: #000000; stroke-width: 0.8; stroke-linejoin: miter; stroke-linecap: square"/>
   </g>
   <g id="patch_18">
    <path d="M 144 429.967059 
L 1036.8 429.967059 
" style="fill: none; stroke: #000000; stroke-width: 0.8; stroke-linejoin: miter; stroke-linecap: square"/>
   </g>
  </g>
 </g>
 <defs>
  <clipPath id="p13b357c5e1">
   <rect x="144" y="77.76" width="892.8" height="146.752941"/>
  </clipPath>
  <clipPath id="pe6dd0af541">
   <rect x="144" y="253.863529" width="892.8" height="146.752941"/>
  </clipPath>
  <clipPath id="p13f58167d9">
   <rect x="144" y="429.967059" width="892.8" height="146.752941"/>
  </clipPath>
 </defs>
</svg>
